<svg xmlns="http://www.w3.org/2000/svg" viewBox="0 0 962.7 634.06"><defs><style>.cls-1{opacity:0.4;}.cls-2{fill:#f1f2f2;}.cls-3{fill:#3b455a;}.cls-4{fill:#ebb044;}.cls-5{fill:#b0b0b0;}.cls-21,.cls-6,.cls-7{fill:#606060;}.cls-6{opacity:0.24;}.cls-7{opacity:0.21;}.cls-8{fill:#f4f5f5;}.cls-9{fill:#ebeaeb;}.cls-10{fill:#7f7f7f;}.cls-11{fill:#8e8e8e;}.cls-12{fill:#4e4e4e;}.cls-13{fill:#a39372;}.cls-14{fill:#474ebb;}.cls-15{fill:#ececec;}.cls-16{fill:#e1cfb5;}.cls-17{fill:#f1f1f1;}.cls-18{fill:#d34e4e;}.cls-19{fill:#7fc5a3;}.cls-20{fill:#b1996e;}.cls-21{opacity:0.16;}.cls-22{fill:#8ec3cb;}.cls-23{fill:#e2d0b5;}</style></defs><title>Ресурс 5</title><g id="Слой_2" data-name="Слой 2"><g id="Shadow"><g class="cls-1"><path class="cls-2" d="M441.66,528.27c-28.19.09-56.38.77-84.52,3.9-10.62,1.18-21,3.77-31.64,4.82-21.24,2.09-42.11,6-63.43,7.79-17.16,1.45-34.4,2.31-51.52,4.15a181.41,181.41,0,0,1-49.74-1.53c-11.79-2.1-23.64-3.29-35.23-6.68-13-3.79-27-6.5-40.56-6.4-19.27.14-38,.16-56.47,6.85-6.47,2.34-14.39,6.2-19.31,11.13C-2,563.58-3.53,591.73,7.7,603.44,26.62,623.13,67,630.86,93.53,631.22c29.06.4,57.29-1.76,86.4-3,27-1.17,54-2.85,81.11-2.79,55.33.12,110.67,0,165.89-3.7,51.89-3.47,103.91-2.28,155.91-2.28,53.33,0,106.29.42,159.24,7.51,23.06,3.09,46.56,4.17,69.75,6.33,20.76,1.94,40.71,0,61.39-1.83a146.41,146.41,0,0,0,50.39-13.5c12.49-6,34.75-24.51,38.58-38.75,10.74-39.94-151.3-39-176.18-38.89-27.83.1-55.88,1-83.69,0-11.7-.45-23.23-2.74-34.64-5.24s-22.83-1.86-34.37-2.91c-48.09-4.37-96.29-3.74-144.53-3.74C473.08,528.36,457.37,528.23,441.66,528.27Z"/></g></g><g id="Слой_3" data-name="Слой 3"><path class="cls-3" d="M870.23,198.58l-.06,10a5.83,5.83,0,0,0,5.72,5.94l25.72.15a5.83,5.83,0,0,0,5.79-5.87l.06-10Z"/><path class="cls-4" d="M952,64.3C952.21,29,924.46.2,890,0s-62.53,28.26-62.74,63.56a64.87,64.87,0,0,0,9.42,34.18h0c17.17,29.92,21,54.91,21,54.91l31.38.18,31.38.19s4.15-25,21.68-54.65h0A64.78,64.78,0,0,0,952,64.3Z"/><path class="cls-5" d="M857,152.64l-.25,42.64a3.15,3.15,0,0,0,3,3.24l58.07.34a3.15,3.15,0,0,0,3.09-3.2l.25-42.64Z"/><path class="cls-6" d="M951,52.32c-16,31.66-47.07,80.52-93.25,100.15l0,.18,31.38.18,31.38.19s4.15-25,21.68-54.65h0A64.78,64.78,0,0,0,952,64.3,65.75,65.75,0,0,0,951,52.32Z"/><path class="cls-7" d="M837.44,68.88c.18-30.82,24.71-55.67,54.77-55.49a53.89,53.89,0,0,1,43,22,54.2,54.2,0,0,0-47-28.28C858.13,7,833.61,31.83,833.43,62.65a56.43,56.43,0,0,0,11.08,34.09A56.65,56.65,0,0,1,837.44,68.88Z"/><polygon class="cls-8" points="876.99 152.76 869.92 70.88 880.39 79.92 889.66 65.05 898.89 79.55 909.29 71.04 901.24 152.9 904.46 152.92 913.24 63.59 899.64 74.72 889.64 59 879.66 74.99 866.04 63.24 873.77 152.74 876.99 152.76"/><path class="cls-9" d="M873.06,144.58l.71,8.16,3.22,0-.87-10.09C875.11,143.32,874.09,144,873.06,144.58Z"/><path class="cls-9" d="M904.55,119.2l-3.31,33.7,3.22,0,3.69-37.5Q906.38,117.32,904.55,119.2Z"/><rect class="cls-10" x="885.09" y="135.25" width="7.87" height="64.21" transform="translate(716.43 1055.38) rotate(-89.66)"/><rect class="cls-10" x="884.99" y="152.07" width="7.87" height="64.21" transform="translate(699.51 1072) rotate(-89.66)"/><path class="cls-11" d="M892.05,180.25l29,.17.05-8.94-17.89-.1A118.53,118.53,0,0,1,892.05,180.25Z"/><path class="cls-11" d="M921.16,163.61l.06-10.59h-1q-4.47,5.74-9,10.53Z"/><path class="cls-11" d="M859.81,198.52l58.07.34a3.15,3.15,0,0,0,3.09-3.2l0-7.36-41.92-.25a92.94,92.94,0,0,1-22.22,8A3.09,3.09,0,0,0,859.81,198.52Z"/><path class="cls-3" d="M903.22,171.38l17.89.1,0-7.87-9.94-.06Q907.21,167.8,903.22,171.38Z"/><path class="cls-3" d="M879.09,188.05l41.92.25,0-7.88-29-.17A106.78,106.78,0,0,1,879.09,188.05Z"/><path class="cls-12" d="M907.42,204.9c-7.28,7.1-21.16,9.18-25.75,9.69l19.94.12a5.83,5.83,0,0,0,5.79-5.87Z"/><polygon class="cls-13" points="699.09 265.27 688.49 258.1 691.35 253.43 699.7 256.73 700.04 253.9 708.37 261.14 706.04 266.39 699.09 265.27"/><polygon class="cls-14" points="802.58 249.71 760.56 276.93 706.37 257.74 702.28 268.4 761.24 305.24 820.14 283.49 802.58 249.71"/><polygon class="cls-3" points="803.45 587.35 803.45 593.36 788.03 601.06 780.33 593.36 788.03 585.65 789.03 585.65 789.28 587.35 803.45 587.35"/><path class="cls-14" d="M824.88,245.48c16.56,1,33.54,9.68,38.29,25.81a20,20,0,0,1,.81,4.06c.66,8.29-1.87,14.41.52,22.73,2.08,7.23,4,14.57,5.34,22,2,10.7,3.85,21.36,5.31,32a328.87,328.87,0,0,1,3.07,35.19c0,1.29.3,4.9.44,9.21.31,9,.11,21.1-3.69,21.55a3.71,3.71,0,0,1-2-.53c-4.89-2.38-8.74-5.48-13.06-8.19a46.53,46.53,0,0,0-4.78-2.67,61.22,61.22,0,0,0-10.75-3.82c6.26.32,7-.84,7-.84s-5.65-22.67-9.61-42.4c-2-10.16-3.64-19.55-3.79-24.63-.44-15.31-2.4-65.85-2.4-65.85l-9.5-19.34-1.75,0,.38,0A13.34,13.34,0,0,1,824.88,245.48Z"/><path class="cls-14" d="M754.42,408c1-10,2-20.05,3.21-30,2.46-19.93,5.81-39.82,11.48-59.12,2.16-7.37,4.65-14.64,7.15-21.9l9.12-26.55c3.77-11,10.15-18.74,21.31-22.59a41.76,41.76,0,0,1,6.25-1.61c0,.23.1.46.13.7a5.72,5.72,0,0,0,1.1,3l-7.33.07s-20.66,72.22-21.42,84.67c-.29,4.73-1.25,15.06-2.32,25.94-1.69,17.22-3.65,35.83-3.65,35.83s9.07.21,22.2,1.19l-2.91-.06c-9.13-.08-18.6,3.8-27.34,6.32l-1.88.52c-3.56.94-6.45,3.54-9.41,5.57C755.74,412.9,753.82,414.09,754.42,408Z"/><path class="cls-3" d="M769.81,400.83c9.53-11.71,91.46-.61,92.24,5.27l-2.11,13-17.5,169.11-14.27.59-.37-1.34L812.24,475.62l-.07-.63-8.72,112.77-14.21.34-18.44-124Z"/><polygon class="cls-3" points="842.33 585.65 843.39 585.65 851.09 593.36 843.39 601.06 827.98 593.36 827.98 587.35 842.15 587.35 842.33 585.65"/><path class="cls-15" d="M779.45,396.35s9.07.21,22.2,1.19l2.48.19c6.12.49,13,1.13,20.17,2l1.06.12a125.39,125.39,0,0,0,19,2.94c6.26.32,7-.84,7-.84s-5.65-22.67-9.61-42.4c-2-10.16-3.64-19.55-3.79-24.63-.44-15.31-2.4-65.85-2.4-65.85l-9.5-19.34-1.75,0-7.26.86a4.41,4.41,0,0,1-1.88,0,2.16,2.16,0,0,1-.78-.45,2.13,2.13,0,0,1-.26-.26l-7.33.07s-20.66,72.22-21.42,84.67c-.29,4.73-1.25,15.06-2.32,25.94C781.41,377.74,779.45,396.35,779.45,396.35Z"/><path class="cls-16" d="M801.34,223.13c.48-1.95-.44-3.94-.87-5.9a5.49,5.49,0,0,1-.1-1.52,43.11,43.11,0,0,0,9.55-3c5.33-2.33,15.7-4.8,21.23-2.06,4.37,2.17,3,9.1,2.81,13.48a11.8,11.8,0,0,0,.12,3.36,13.9,13.9,0,0,0,1.4,2.84,12.17,12.17,0,0,1-2.59,4.79c-3.5,4-7.06,5.9-8,10.37a13.34,13.34,0,0,0-.15,4.22l-.38,0-7.26.86a4.41,4.41,0,0,1-1.88,0,2.16,2.16,0,0,1-.78-.45,2.13,2.13,0,0,1-.26-.26,5.72,5.72,0,0,1-1.1-3c0-.24-.08-.47-.13-.7-1-4.07-5.45-5.91-7.87-9.52a31.62,31.62,0,0,1-4.81-13.74,2,2,0,0,1,0-.24A7.45,7.45,0,0,0,801.34,223.13Z"/><path class="cls-3" d="M783.94,200c-.16,5,3.63,13.17,8.3,15.22a10.12,10.12,0,0,0,3,.74c1,2.72,2.62,5.36,5,6.67a7.45,7.45,0,0,0,1.12.49c.48-1.95-.44-3.94-.87-5.9a5.49,5.49,0,0,1-.1-1.52,43.11,43.11,0,0,0,9.55-3c5.33-2.33,15.7-4.8,21.23-2.06,4.37,2.17,3,9.1,2.81,13.48a11.8,11.8,0,0,0,.12,3.36,13.9,13.9,0,0,0,1.4,2.84,4,4,0,0,1,.33,1.08c3.58-1.61,5.75-5.64,7.77-8.93a33.73,33.73,0,0,0,2.7-5.21c3.33-8.33,2.1-19.56-3-27.54a17.55,17.55,0,0,0-5.39-5.66c-5-3.09-12.09-3.37-17.53-5.48-7.66-3-11.56-.3-18.79,2-2.89.93-6.21,1.73-7.74,4.47-.85,1.51-1,3.38-1.83,4.89-1.1,1.94-3.18,2.95-5,4.18A7,7,0,0,0,783.94,200Z"/><polygon class="cls-16" points="919.75 195.9 921.63 183.23 916.25 182.19 913.05 190.58 910.73 188.91 910.45 199.94 915.89 201.78 919.75 195.9"/><polygon class="cls-14" points="838.39 261.71 886.85 249.1 909.29 196.18 919.91 200.37 907.26 268.73 851.45 297.48 838.39 261.71"/><polygon class="cls-3" points="704.82 587.44 705.47 593.88 693.24 601.64 686.14 595.85 691.93 588.75 704.16 581 704.82 587.44"/><polygon class="cls-14" points="705.29 390.89 707.28 410.46 689.81 497.9 705.28 585.29 692.76 589.15 652.28 485.24 650.05 453.48 655.54 387.68 705.29 390.89"/><polygon class="cls-14" points="610.4 397.55 610 480.22 626.29 586.69 638.27 586.61 645.17 488.22 660.9 389.77 610.4 397.55"/><polygon class="cls-3" points="638.23 591.66 625.32 598.23 618.8 591.79 625.24 585.27 638.19 585.19 638.23 591.66"/><path class="cls-17" d="M600.31,385.42c8.64-26.77,9.56-54.87,12.07-82.75.75-8.23,1.54-16.64,5-24.15,3.93-8.64,10.44-13.19,18-15.68,9.64-3.17,21-3,31-3.6,9.51-.3,17.92,35.45,27.62,52.78,5.94,10.62,12.07,20,16.08,31.6,3.85,11.12,7.54,22.43,9.78,34,3.38,17.47,12,29.66,3.77,35.6-.75.25-1.48.5-2.17.75a203.64,203.64,0,0,1-41.84,10.33,167.41,167.41,0,0,1-38.23.72c-17.4-1.72-34.26-4.17-49.6-13.25Q596.06,398.6,600.31,385.42Z"/><path class="cls-13" d="M671,232.63c-5.42-16.35-29.29-22-34.84-3-1.66,5.71-2.67,11.77-1.53,17.62s4.7,11.44,10.15,13.84l.09,0c-.21,1.51-.42,3-.64,4.54a1,1,0,0,0,1.1,1.41l5.43.81a6.1,6.1,0,0,0,2.69,0c1.89-.61,2.68-2.87,2.76-4.86,0-.47,0-1,0-1.43C667,257.88,674.58,243.33,671,232.63Z"/><path class="cls-3" d="M642,204.71c-4.37-.65-8.09,3.59-12.12,5.81-3.36,1.85-7.16,2.34-10.64,3.88s-6.89,4.73-7,8.74c-3.52-1.83-7.34-3.71-11.29-2.95s-7.61,5.47-6,9.36c1.41,3.48,6,4.3,7.46,7.72,2.39,5.42-4.07,13.84.34,17.43,1.06.86,2.5,1.07,3.54,2,1.29,1.11,1.71,3,2.29,4.69C611.14,269,618.84,274,626.45,273a20.18,20.18,0,0,0,10.2-12.05c2-6.32-1.34-8.53-1.91-14.46a25.87,25.87,0,0,1,5.52-18.39c2.66-3.28,6.46-6.1,10.48-6.48,1.63-.16,1.11,1.2,3-.06a8.1,8.1,0,0,0,2.09-3.58C651.38,214.42,647.71,205.56,642,204.71Z"/><path class="cls-3" d="M689.23,213.12c2.25.62,4.7.53,6.85,1.47,3.22,1.42,3,4.77,3.94,7.68,1,3.22,2.48,7.54,4.61,10,1.53,1.81,3.67,2.84,5.54,4.23s3.57,3.45,3.53,6-1.63,4.51-1.87,6.89c-.28,3.54.33,5.36-.76,9-.56,1.87-1.19,3.85-2.6,5.12-1.84,1.68-4.48,1.65-6.79,1.26s-4.7-1-7-.26c-4.94,1.67-4,6.66-5.33,10.85-2,6.38-9.39,10.1-15,7.83-4.79-1.92-7.57-7.49-7.35-13,.11-2.75,1.2-5.32,1.28-8.07s-1.42-6.34,1-8.45a18.93,18.93,0,0,0,1.86-1.37,3.83,3.83,0,0,0,.81-1.74,7.66,7.66,0,0,0-1.26-6.27c-.93-1.2-2.27-2.09-2.84-3.54-.65-1.67-.13-3.63,0-5.47.27-4.46-2.17-8.84-5.89-10.56-2.45-1.14-4.66-1.81-6.8-3.53-.32-.27-5.19-4.57-5.32-3.64a9.88,9.88,0,0,1,2.12-4.33,19.46,19.46,0,0,1,5.54-5.5c7.17-4.13,7.52,5.48,13.27,4.21,1.39-.3,2.43-1.57,3.68-2.33,2.36-1.44,5.26-.92,7.67.15S686.69,212.41,689.23,213.12Z"/><polygon class="cls-13" points="730.4 194.05 727.87 181.29 722.38 182.14 722.17 191.25 719.39 190.44 722.88 201.09 728.71 200.99 730.4 194.05"/><polygon class="cls-17" points="672.01 275.1 717.07 256.14 720.49 197.88 732.07 198.27 743.28 267.95 677.29 304.36 672.01 275.1"/><polygon class="cls-13" points="572.59 363.55 573.58 376.51 579.13 376.33 580.43 367.31 583.09 368.44 580.9 357.46 575.1 356.86 572.59 363.55"/><polygon class="cls-17" points="640.26 290.06 593.25 303.5 582.89 360.93 571.44 359.16 568.64 288.64 638.52 260.38 640.26 290.06"/><path class="cls-18" d="M735.89,356a38.21,38.21,0,0,0-38.11-38.31c-2.85,0-7.12,1.54-9.74,0-2.19-1.27-3-4.3-4.68-6.09a34,34,0,0,0-7-5.63,33.31,33.31,0,0,0-30.95-1.86l-.07,0h0l-.8.38,0,0c-3.39,1.49-15.8,7.9-16.83,22a26,26,0,0,1,19.95,8.3,22.88,22.88,0,0,1,20.54-6.07,22.74,22.74,0,0,1,17.68,26.87,1.14,1.14,0,0,1-1.12.91l-.22,0a1.15,1.15,0,0,1-.89-1.35,20.47,20.47,0,0,0-35.19-17.91,1.13,1.13,0,0,1-1.6.08l-.16-.18a23.81,23.81,0,0,0-33.49-2.76,1.14,1.14,0,0,1-1.47-1.74,25.93,25.93,0,0,1,13.67-6c.87-14.42,12.54-21.52,17.26-23.81a45.61,45.61,0,0,0-67.77,10.84A39.71,39.71,0,0,0,531.7,333a43.66,43.66,0,0,0-3.9,9.86,7.71,7.71,0,0,1-.46,1.26c8.21-3.05,19.66-5.31,32.21-1.86a1.14,1.14,0,0,1-.6,2.2c-26.18-7.21-47.82,11.38-48,11.56a1.09,1.09,0,0,1-.56.27,41.48,41.48,0,0,0-7.61,7.6A50.54,50.54,0,0,0,543,444.88c3.14,0,6.49-1.78,9.54-.74a25.3,25.3,0,0,1-.71-16.21,1.14,1.14,0,1,1,2.17.68c-3.83,12.36,5.76,23.86,5.86,24a1.11,1.11,0,0,1,.23.46,22.13,22.13,0,0,0,5.92,5.23,42.18,42.18,0,0,0,40.38,2.17,1.84,1.84,0,0,1,.22-.17c17-9.5,19.49-28.29,19.51-28.48a1.14,1.14,0,0,1,2.26.28c-.09.73-2.14,16.1-15.27,26.57a42.89,42.89,0,0,0,32.38,14.85c6.3,0,12.84-1.81,18.8-4.14,6.29-2.46,10.85,6.89,13.24,10.91,3.52,5.92,5.43,13.2,10.45,18.14,7.23,7.13,15.08.79,15.93-7.93a69.94,69.94,0,0,0-.23-15c-.29-2.45-.8-5.26.31-7.58,1.33-2.77,3.86-2.34,6.51-3a35.3,35.3,0,0,0,25.19-46,31.21,31.21,0,0,1-10.11,2.31c-.76.06-1.57.09-2.42.08-6.26,0-15-1.7-24.66-8.54a1.14,1.14,0,0,1-.27-1.58,1.15,1.15,0,0,1,1.59-.27c19.87,14.08,35.81,5.53,36,5.44a1.42,1.42,0,0,1,.33-.11,33.24,33.24,0,0,0-.21-60.31ZM609.8,413.38a1.31,1.31,0,0,1-.38.06,1.14,1.14,0,0,1-1.07-.76,24.31,24.31,0,0,0-30.51-15.1.49.49,0,0,1-.16.05l-.22.07a1.13,1.13,0,0,1-1.35-1.64,29.65,29.65,0,0,0-56.91-2.94,1.14,1.14,0,1,1-2.15-.74,31.92,31.92,0,0,1,61.17,2.71,26.58,26.58,0,0,1,32.28,16.84A1.15,1.15,0,0,1,609.8,413.38Zm94.66-24.63a1.13,1.13,0,0,1-1.6.17,26.93,26.93,0,0,0-43.72,23.76,1.15,1.15,0,0,1-1,1.25H658a1.14,1.14,0,0,1-1.13-1,29.21,29.21,0,0,1,47.42-25.77A1.13,1.13,0,0,1,704.46,388.75Z"/><polygon class="cls-3" points="227.5 586.6 226.52 594.23 240.8 603.83 249.42 597.17 242.77 588.56 228.48 578.97 227.5 586.6"/><polygon class="cls-3" points="227.02 584.04 238.03 486.7 224.78 377.73 227.76 354.55 286.96 352.3 289.09 390.03 279.16 486.85 241.77 589.01 227.02 584.04"/><polygon class="cls-19" points="292.51 244.6 322.29 252.71 380.39 318.43 373.9 341.48 317.46 301.65 292.51 244.6"/><polygon class="cls-3" points="330.39 363.21 330.55 461.43 310.78 587.88 296.55 587.74 288.72 470.81 270.42 353.76 330.39 363.21"/><polygon class="cls-3" points="296.57 593.74 311.88 601.59 319.65 593.97 312.04 586.2 296.65 586.05 296.57 593.74"/><path class="cls-19" d="M218.65,396.61c.14-4.25.38-7.8.41-9.07.31-11.42,1.32-22.81,2.75-34.15,1.28-10.16,2.9-35.38,4.64-45.48,1.44-8.34,6.44-29.15,10.05-36.88,9-19.23,6.21-21,45.7-26.72,17.3-2.5,21.39,8.28,35.54,20.69,1.4,1.22,1.32,8.5,1.64,10.43.57,3.4,1.18,6.79,1.88,10.16.55,2.65,1.16,5.3,1.84,7.92h0S335,347.56,342.83,359s24.08,27.53-3.06,37.33a97.49,97.49,0,0,1-14.66,3.82s-22.2-2.47-33.61-2.38a194.37,194.37,0,0,0-31.41,2.92c-6.91,1.16-14,2.84-20.15,6.07-5.9,3.08-10.15,7.61-16.14,10.8a3.07,3.07,0,0,1-1.83.53C218.53,417.65,218.37,405.57,218.65,396.61Z"/><path class="cls-20" d="M281.84,248.92c-1.7,1.44-6.18,2.92-11.4,2.24a2.56,2.56,0,0,1-2.17-1.94,65.54,65.54,0,0,1-1.46-8.81c-3.88-.37-8.48-1.22-10-4.8a11,11,0,0,1-.67-3.6L255,216.81a13.27,13.27,0,0,1,.31-5.22c1-2.92,3.81-4.8,6.62-6.05,7.2-3.17,15.8-3.58,22.85-.11a12,12,0,0,1,4.84,3.89c1.79,2.69,1.81,6.14,1.76,9.36q0,4.47-.11,8.94c0,3.42-.35,7.38-3.15,9.36-1.49,1.05-3.48,1.35-4.73,2.66C281.18,242,282.51,245.79,281.84,248.92Z"/><path class="cls-3" d="M313.18,189.7a31,31,0,0,1,1.56-4.09c1.33-2.85,3.2-5.48,4.1-8.51s.55-6.73-1.92-8.7a9.73,9.73,0,0,0-5.77-1.65,37.79,37.79,0,0,0-19.38,4.44c-5.63,3-10.37,6.9-17,6.14-6.21-.7-10.1,1.18-15.51,4.78-5.86,3.89-14.35,6.58-19.36,11.27a17.57,17.57,0,0,0-4.44,7.26A26.65,26.65,0,0,0,242.22,228a37.86,37.86,0,0,0,5.28,4.07c3.85,2.53,8.49,5.69,13,5.87-.83-3.75-7.16-14.67-5.06-18.44,3.34-6,14-6.85,20-7.06,6.48-.23,13.05,2.76,19.38,2.17,4.56-.42,9.63-4,12.79-7.17C311.47,203.5,311.58,194.79,313.18,189.7Z"/><path class="cls-3" d="M447.76,456.89l-3.25,19.67a11.58,11.58,0,0,1-13.19,9.71L380.91,478a11.59,11.59,0,0,1-9.38-13.43l3.25-19.67Z"/><path class="cls-4" d="M332.62,166.55C344.05,97.34,408,50.27,475.54,61.41s113,76.27,101.55,145.48a128.81,128.81,0,0,1-29.89,63.78h0c-43.65,52.81-59.59,100.46-59.59,100.46L426.1,361l-61.51-10.15s.22-50.24-24.15-114.28h0A128.89,128.89,0,0,1,332.62,166.55Z"/><path class="cls-5" d="M489,371.36l-13.79,83.57a6.27,6.27,0,0,1-7.07,5.33L354.36,441.48a6.26,6.26,0,0,1-5-7.32l13.79-83.57Z"/><path class="cls-21" d="M338.67,143.45c20.77,67.35,65.21,173.43,149.05,227.35-.06.19-.11.33-.11.33L426.1,361l-61.51-10.15s.22-50.24-24.15-114.28h0a128.89,128.89,0,0,1-7.82-70A131.23,131.23,0,0,1,338.67,143.45Z"/><path class="cls-7" d="M555.41,213.9c10-60.42-29.72-117.28-88.66-127-34.44-5.68-67.84,6-91.63,28.75C399,85.89,437.14,69.51,476.71,76c58.93,9.72,98.63,66.59,88.65,127a112.17,112.17,0,0,1-33.12,63A112.4,112.4,0,0,0,555.41,213.9Z"/><polygon class="cls-8" points="449.87 364.9 491.15 206.93 467.61 221.12 454.44 188.91 431.52 214.2 414.01 194.05 402.33 357.06 396.02 356.01 408.76 178.15 431.65 204.5 456.51 177.06 470.7 211.72 501.31 193.26 456.18 365.94 449.87 364.9"/><path class="cls-9" d="M460.3,350.19l-4.12,15.75-6.31-1L455,345.44Q457.6,347.86,460.3,350.19Z"/><path class="cls-9" d="M407.14,289.94l-4.81,67.12L396,356l5.35-74.67Q404.19,285.66,407.14,289.94Z"/><rect class="cls-10" x="413.58" y="325.67" width="15.64" height="127.55" transform="translate(-31.45 741.82) rotate(-80.63)"/><rect class="cls-10" x="408.15" y="358.63" width="15.64" height="127.55" transform="translate(-68.53 764.04) rotate(-80.63)"/><path class="cls-11" d="M411.17,413.68l-56.86-9.38,2.9-17.52,35.07,5.78A233.47,233.47,0,0,0,411.17,413.68Z"/><path class="cls-11" d="M359.75,371.34l3.43-20.75,2,.33q6.81,12.75,14.07,23.64Z"/><path class="cls-11" d="M468.17,460.26,354.36,441.48a6.26,6.26,0,0,1-5-7.32l2.38-14.42,82.17,13.56a184.94,184.94,0,0,0,40.82,23.17A6.14,6.14,0,0,1,468.17,460.26Z"/><path class="cls-3" d="M392.28,392.56l-35.07-5.78,2.54-15.44,19.48,3.22Q385.65,384.22,392.28,392.56Z"/><path class="cls-3" d="M433.94,433.3l-82.17-13.56,2.54-15.44,56.86,9.38A212.81,212.81,0,0,0,433.94,433.3Z"/><path class="cls-12" d="M372.81,456.8c11.88,16.35,38.37,25.08,47.18,27.6L380.91,478a11.59,11.59,0,0,1-9.38-13.43Z"/><path class="cls-3" d="M161.36,241.66l2.34,10.16a6.06,6.06,0,0,0,7.2,4.63l26-6a6.06,6.06,0,0,0,4.45-7.32L199,233Z"/><path class="cls-4" d="M211.85,86.38c-8.25-35.73-43.18-58.18-78-50.14S77.38,79.76,85.63,115.5a67.32,67.32,0,0,0,17.7,32.28h0c24.52,26.12,34.4,50.45,34.4,50.45l31.76-7.32,31.76-7.33s-1.77-26.2,8.83-60.42h0A67.3,67.3,0,0,0,211.85,86.38Z"/><path class="cls-5" d="M137,198.4l10,43.15a3.26,3.26,0,0,0,3.86,2.54l58.76-13.55a3.27,3.27,0,0,0,2.35-4l-10-43.15Z"/><path class="cls-6" d="M207.93,74.52c-8.62,35.83-28.3,92.65-70.27,123.54a1.1,1.1,0,0,1,.07.17l31.76-7.32,31.76-7.33s-1.77-26.2,8.83-60.42h0a67.3,67.3,0,0,0,1.77-36.78A69,69,0,0,0,207.93,74.52Z"/><path class="cls-7" d="M97.17,118.44c-7.2-31.2,11.64-62.18,42.06-69.2a56,56,0,0,1,48.77,12,56.31,56.31,0,0,0-54.32-17.31c-30.42,7-49.26,38-42.06,69.19A58.62,58.62,0,0,0,111,144.9,58.73,58.73,0,0,1,97.17,118.44Z"/><polygon class="cls-8" points="157.22 193.74 130.47 112.68 143.22 119.3 149.03 102.06 161.82 114.51 170.29 103.41 181.76 188.07 185.02 187.32 172.5 94.94 161.43 109.45 147.55 95.95 141.3 114.5 124.72 105.88 153.96 194.49 157.22 193.74"/><path class="cls-9" d="M151.29,186.41l2.67,8.08,3.26-.75-3.3-10C153.06,184.65,152.18,185.53,151.29,186.41Z"/><path class="cls-9" d="M177,153.22l4.72,34.85,3.26-.75-5.25-38.78Q178.44,150.88,177,153.22Z"/><rect class="cls-10" x="139.54" y="201.51" width="66.68" height="8.18" transform="translate(-41.79 44.12) rotate(-12.99)"/><rect class="cls-10" x="143.47" y="218.53" width="66.68" height="8.18" transform="translate(-45.52 45.44) rotate(-12.99)"/><path class="cls-11" d="M179,217.91l29.36-6.77-2.09-9-18.11,4.18A122.28,122.28,0,0,1,179,217.91Z"/><path class="cls-11" d="M204.45,194.12,202,183.41l-1,.24q-3.14,6.87-6.57,12.79Z"/><path class="cls-11" d="M150.82,244.09l58.76-13.55a3.27,3.27,0,0,0,2.35-4l-1.72-7.45-42.42,9.79a97.16,97.16,0,0,1-20.54,13.44A3.22,3.22,0,0,0,150.82,244.09Z"/><path class="cls-3" d="M188.18,206.27l18.11-4.18-1.84-8-10.06,2.32C192.38,200,190.3,203.22,188.18,206.27Z"/><path class="cls-3" d="M167.79,228.9l42.42-9.79-1.83-8L179,217.91A111.6,111.6,0,0,1,167.79,228.9Z"/><path class="cls-12" d="M200.46,239.14c-5.66,8.93-19.19,14.35-23.71,16l20.18-4.65a6.06,6.06,0,0,0,4.45-7.32Z"/><polygon class="cls-3" points="90.63 589.68 90.43 591.72 89.78 598.46 76.13 604.31 70.28 597.12 77.43 590.82 78.08 590.54 78.17 591.38 90.63 589.68"/><path class="cls-14" d="M91.3,590.17,78,591.82,67.28,476.68l-1.7-6.17c10.22.15,23.24.2,35.47.29Z"/><path class="cls-14" d="M146.58,469.21l-3.17,32.24-25.53,79.19-12.51-1.21L114.69,499l-8.28-29.38C120.7,469.66,135.86,469.4,146.58,469.21Z"/><polygon class="cls-3" points="118.2 578.71 118.98 578.82 124.61 586.55 117.15 592.54 104.97 583.94 105.68 578.59 117.72 580.19 118.2 578.71"/><path class="cls-22" d="M112.7,351c-3.84-4.63-32.23-71.84-38.24-71.32,0,0-.89-21.25-.88-22.06.08-4.39,6.53-6.14,6.36-6.53-.43-1,7-.25,6.68-1.41l.91.44a14.71,14.71,0,0,0,7.22,3.44L120,265.56l18.13,73.82S115.26,354.05,112.7,351Z"/><path class="cls-22" d="M60.5,298.36c-1.58,7.45-7.48,12.92-13.24,18.1a314.5,314.5,0,0,1,12.9-28.81A25.47,25.47,0,0,1,60.5,298.36Z"/><path class="cls-22" d="M43.12,353.08c4.73,2.52,10.21,3.32,15.57,3.31,4.28,0,8.63-.49,12.82.42s8.34,3.65,9.4,7.81c.58,2.29.39,5.17,2.37,6.46a6.11,6.11,0,0,0,3.22.69c3.39.1,7.25,0,9.52-2.5,3.53-3.9,1.47-11.71,6.24-13.93,1.39-.65,3-.55,4.52-.8,6.45-1.09,9.6-8.39,9-15.08,2.2,1.91,4.65,3.61,7.51,3.67,3.28.06,6.15-2.06,8.74-4.09,1.67-1.31,3.39-2.6,5.12-3.88l.11.42,26.15,135.28c-3.12.39-9.36.64-17.47.78l-39,.11-6.39-.05-61.38-.84s-9.52-69.92-1.07-121.59A20.53,20.53,0,0,0,43.12,353.08Z"/><path class="cls-23" d="M171.87,253.4c0-1.72,6.5-12.52,7.29-11.44a22.29,22.29,0,0,1,2,3.87c3.06-2.71,9.79-12.06,11.3-3.46.65,3.73-4.28,11.61-7.25,13.49a1.37,1.37,0,0,1-.2.13l-12.33.76A6.29,6.29,0,0,1,171.87,253.4Z"/><path class="cls-22" d="M185.05,256l-12.33.76h-.16l-35.43,26.69L120,265.56,105,280.41l33,38.4c17.42-20.48,39.4-39,50.3-63Z"/><path class="cls-16" d="M86.49,249.11c-2.37-10.27.2-26.49,7.06-32.55,2.7-2.38,5.79-2.81,9.23-2.83,1.62,0,2.17.41,3,.26,2.56,3.29,4.28,7.31,4,11.1-.26,3.2-2.1,5.64-2.25,9.07-.29,6.25-9.23,12.52-5.8,18.73a14.64,14.64,0,0,1-6.94.62l-7.22-3.44C87.18,249.77,86.83,249.44,86.49,249.11Z"/><path class="cls-16" d="M94.75,253.51a14.71,14.71,0,0,1-7.22-3.44Z"/><path class="cls-16" d="M107.49,234.16c.15-3.43,2-5.87,2.25-9.07.32-3.79-1.4-7.81-4-11.1a4.17,4.17,0,0,0,1.44-.64c1.23-.76,2.33-2.77,2.9-4.4,3.19,2,5.51,5.66,6.15,11.21.7,6,.69,12.39-1.38,18.43s-6.48,11.71-12.2,13.95c-.34.13-.67.24-1,.35C98.26,246.68,107.2,240.41,107.49,234.16Z"/><path class="cls-3" d="M33.61,340.81a16.23,16.23,0,0,0,4.47,8.46c.18-1.1.37-2.2.57-3.29-.2,1.09-.39,2.19-.57,3.29a20.53,20.53,0,0,0,5,3.81c4.73,2.52,10.21,3.32,15.56,3.31,4.29,0,8.64-.49,12.83.42s8.34,3.65,9.4,7.81c.58,2.29.39,5.17,2.37,6.46a6.11,6.11,0,0,0,3.22.69c3.39.1,7.25,0,9.52-2.5,3.53-3.9,1.47-11.71,6.24-13.93,1.39-.65,3-.55,4.52-.8,6.45-1.09,9.6-8.39,9-15.08a16,16,0,0,0-.87-4c-2.66-7.43-8.84-12.94-13.51-19.31-9.13-12.42-15.3-29-9.69-43.71a39.55,39.55,0,0,0,1.49-4.2,10.16,10.16,0,0,0,.36-2.39c.08-4.39-3.18-8-5.29-11.84-.2-.36-.38-.74-.56-1.13a21,21,0,0,1-1.07-3.22c-.05-.17-.09-.35-.13-.52-6.47-6.46-9.07-18.45-4.81-27.42.24-.51.5-1,.77-1.49-.27.49-.53,1-.77,1.49-4.26,9-1.66,21,4.81,27.42-2.37-10.27.2-26.49,7.06-32.55,2.7-2.38,5.79-2.81,9.23-2.83,1.62,0,2.17.41,3,.26a4.17,4.17,0,0,0,1.44-.64c1.23-.76,2.33-2.77,2.9-4.4,3.19,2,5.51,5.66,6.15,11.21.7,6,.69,12.39-1.38,18.43s-6.48,11.71-12.2,13.95c-.34.13-.67.24-1,.35a8.37,8.37,0,0,0,1.11,1.54c3.14,3.45,8.17,4.25,12.79,4.85a3.48,3.48,0,0,0,1.67-.06,2.4,2.4,0,0,0,1.32-2.28,9.45,9.45,0,0,0-.58-2.71c-2.69-9.36,2.07-20,2.87-29.46s-1.15-19.65-8.71-26a19.89,19.89,0,0,0-3.71,1.43c-.12-.16-.24-.32-.37-.47-10.93-13.12-26.36-1.9-34.67,8.12-6.84,8.26-12.55,17.75-15.16,28.24C55.8,245.89,55,260.3,56,270.32c.6,5.85,2.92,11.6,4.14,17.33a25.47,25.47,0,0,1,.34,10.71c-1.58,7.45-7.48,12.92-13.24,18.1-.53,1.35-1,2.71-1.57,4.09s-1,2.79-1.55,4.21c-.33.92-.65,1.85-1,2.8.31-.95.63-1.88,1-2.8.51-1.42,1-2.82,1.55-4.21s1-2.74,1.57-4.09l-2.38,2.14C38.47,324.44,32.15,332.26,33.61,340.81ZM91.09,210.88a27.62,27.62,0,0,1,2.61-1.52A27.62,27.62,0,0,0,91.09,210.88Z"/><path class="cls-20" d="M350.12,329.4l16.8,5.18,12.82-9-4.3-5.9L363,320.86l-2.65-3-12.72,1.54S350.35,329.46,350.12,329.4Z"/><polygon class="cls-19" points="254.89 252.89 299.34 315.04 350.4 315.96 354.28 331.76 291.33 343.47 273.88 332.87 237.15 273.17 254.89 252.89"/><polygon class="cls-19" points="753.84 48.9 687.75 133.99 724.65 149.21 691.92 232.36 766.47 145.63 727.1 123.13 753.84 48.9"/></g></g></svg>