<svg xmlns="http://www.w3.org/2000/svg" viewBox="0 0 959.06 708.65">
  <defs/>
  <defs>
    <style>
      .cls-2{fill:none}.cls-3{fill:#1a3151}.cls-4{fill:#145566}.cls-5{fill:#dd957c}.cls-7{fill:#3ababa}.cls-9{fill:#9ea6ad}.cls-10{fill:#c8d6a1}.cls-11{fill:#ffd559}.cls-12{fill:#878d91}.cls-13{fill:#fff}
    </style>
  </defs>
  <g id="Слой_2" data-name="Слой 2">
    <g id="Слой_1-2" data-name="Слой 1">
      <path fill="#f7f7f7" d="M220.62 703.18c-19.44-.45-38.87-.79-58.29-.88-34.62-.15-80 7.32-105.83-21.13-13-14.32-8.73-42.89 11.91-48 5.84-1.43 12.13-1.27 17.6-3.71s9.82-9.09 6.78-14.16c-1.55-2.59-4.54-4-7.41-5.07-18.14-6.9-38.25-7.77-56.3-14.89-42.88-16.92-35.48-50.93 3.51-61.91 35.06-9.87 74-8.51 110.19-9.18 211.53-3.91 423.64-8.55 634 4.63 45.37 2.85 90.48 6.44 135.65 9.79 20.67 1.51 46.57 5.51 46.63 14.51.05 6.22-13.59 10.87-27 13.3-23.55 4.26-54.31 8-49.86 21.89 1.63 5.08 9.29 9.75 20 12.13 8.22 1.84 17.69 2.32 26.61 3.43s18.06 3.14 21.81 6.77c10.1 9.76-15.33 15.57-33.24 16.46-21.44 1.06-38.92 7.92-31.53 18.27 5.15 7.21 21.91 12.09 27 19.31a8.58 8.58 0 01.69 9c-13.61 29.72-84.7 27.17-111.2 29.4-49 4.12-98.25 4.9-147.42 5.27-111.54.84-223.08-.56-334.6-2.73-33.32-.68-66.5-1.78-99.7-2.5z"/>
      <path d="M257 231.28c-.86 1.18-1.15 3.19-1.16 5.52q.54-2.8 1.16-5.52z" class="cls-2"/>
      <path d="M182.32 637.7l-.75 2.39-2.5 7.93 13.36 12.91 10.42-5.43-5.43-10.42-.59-.57-.55.86-13.96-7.67z" class="cls-3"/>
      <path d="M224.22 442l-.58 89.48-42.09 105.8.77.42 1.75-5.53 12.76 12.34 77.28-119.17 27.41-94.85s-74.64 9.23-77.3 11.51z" class="cls-4"/>
      <path d="M182.14 638l14.43 8.19.59-2.13L184 631.85zM278.22 510.79l1.59 9.54 9.7 126.16h.09v-1.83h15.52l19.71-134.9-.95-82.56c-3.61-.37-19.94-2-31.34-2.26z" class="cls-4"/>
      <path d="M289.57 646.49v6.48l16.62 8.3 8.31-8.3-8.31-8.31h-1.07l-.27 1.83h-15.28z" class="cls-3"/>
      <path d="M289.57 646.49h15.44l.27-2.95h-15.71v2.95z" class="cls-4"/>
      <path d="M277.22 265.54c.59-2.17 1.2-4.28 3.06-5.37 1.7-1 3.85-.7 5.71-1.35 3.49-1.21 5-5.23 6.06-8.77q1.41-4.61 2.8-9.23a41.41 41.41 0 001.1-4.25 56.1 56.1 0 00-15.82-7c-1.24-.33-19.6-5.06-22.8.79a3.81 3.81 0 00-.36.94l-1.16 5.52-.85 5.47-.78 2.16-.42 3.66 1 2.46c1.62 2.62 5 4.26 8.05 5.46a71.31 71.31 0 00-1.19 11.38l.55.07c5.05-.65 10.12-1.11 14.55-1.85z" class="cls-5"/>
      <path d="M254.82 244.09l1.51-7.07c0-2.26.3-4.21 1.14-5.35l.68-3.19a14 14 0 011.85-5.16c1.86-2.67 5.3-3.74 8.54-4.17 8.26-1.11 17.15 1 23.32 6.51a12.54 12.54 0 013.79 5.33 11.48 11.48 0 01.13 5.82 24.45 24.45 0 003.57 1c4.77.89 11-1.21 15.15-3.51 5.15-2.84 7.86-11.56 10.94-16.22a35.34 35.34 0 012.79-3.66c2.21-2.48 4.92-4.58 6.68-7.37s2.54-6.62.61-9.31c-1.25-1.74-3.35-2.67-5.4-3.34a40.6 40.6 0 00-21.06-1.15c-6.63 1.41-12.61 3.93-19.12 1.25-6.13-2.51-10.65-1.74-17.22.3-7.12 2.22-16.56 2.47-23.05 5.73a18.58 18.58 0 00-6.66 6 27.57 27.57 0 00-1.18 29.47 41 41 0 004.19 5.64c2.66 3.05 5.75 6.71 9.32 8.72a6.09 6.09 0 01-.89-2.44 11.2 11.2 0 01.37-3.83z" class="cls-3"/>
      <path fill="#41352b" d="M256.09 237.11a49.11 49.11 0 01-1.57 7.44 8 8 0 00-.4 3.94 6.9 6.9 0 001 2.55 7.68 7.68 0 001 .67 7.23 7.23 0 001.28.55q-.22-3.28-.53-6.65-.31-4.34-.78-8.5z"/>
      <path d="M296.65 230.49a14.14 14.14 0 00-3.64-7.12c-5.26-6.06-15.77-10.08-24.86-6.94-1.86.65-6 2.09-8.61 6.24a13.58 13.58 0 00-1.88 5.32l-.69 3.29.32-.38c4.94-5.48 17-2.08 23.22-.35a69.43 69.43 0 0115.53 6.5 13.3 13.3 0 00.61-6.56z" class="cls-3"/>
      <path d="M184.53 231.56l3.25-6.75-1.08-1.42-1.8 1.26 1.1-6.38-2.62-4.56-6.96-.69-6.11 3.86.05 6.98 4.2 7.17.9 2.82 9.88-.07-.81-2.22z" class="cls-5"/>
      <path d="M241.6 274.3l-42.1 8-12.5-47.84h-4l2.12 5.77-9.35 2.58-2.65-8.28h-3.54l8.26 76.62 44.91 9.12z" class="cls-7"/>
      <path d="M187.81 240l-2.47-6.17-12.71-1.33 2.8 11zM388.05 395.73c-2.56-3.69-11.27-6.16-15.19-8.43a134 134 0 01-24.64-17.8A89.62 89.62 0 01325 333.88a156.33 156.33 0 01-5.7-21.17c-.79-3.87-1.48-7.77-2.14-11.68-1.41-8.45-2.54-17.16-5.77-25.25-1.8-4.49-4.29-9.12-3.48-13.89-10.39 4.13-20.25 2-30.77 3.65a18.14 18.14 0 01-1.33 3.79l-13.63-1.87c-5.66.73-11.29 1.69-16 3.51a17.14 17.14 0 00-4 2.31c-11.77 9.54-17.81 25.7-20.72 45.49a317.52 317.52 0 00-4.17 20.81 851.23 851.23 0 00-4.68 35 428.15 428.15 0 00-2.6 39.37c0 1.46-.24 5.56-.34 10.46-.21 10.32.09 24.24 3.81 24.75a3.26 3.26 0 002-.63 67.42 67.42 0 008.7-6.53l99.66-14.84.73.08c6.93-1.24 13.55-3.79 20.18-6.15 11.4-4.06 23-7.63 33.74-13.31 3.51-1.78 12.94-7.17 9.56-12.05z" class="cls-7"/>
      <path d="M277.22 265.54l-.46.07c-2.27.17-4.6.37-7 .62q-4.18.43-8.11 1a1 1 0 00-.08.55q.46 2.4 17.13 1.7a6.45 6.45 0 00-.41-2 6.61 6.61 0 00-1.07-1.94z" class="cls-7"/>
      <path d="M532.66 169.31l1.21-.46a10.1 10.1 0 00-1.26.41z" class="cls-2"/>
      <path fill="#eac5b0" d="M660 255a56 56 0 00-51.19-60.35c-4.16-.34-10.58 1.41-14.23-1.12-3-2.11-3.87-6.62-6.12-9.42A48.69 48.69 0 00534 168.77h-.1l-1.21.46h-.05c-5.11 1.78-24 9.7-27.11 30.16a38.12 38.12 0 0128.16 14.43 33.3 33.3 0 0153.37 34.81 1.67 1.67 0 01-1.74 1.2l-.33-.06a1.67 1.67 0 01-1.13-2.07 30 30 0 00-49.29-30.23 1.66 1.66 0 01-2.35-.08 1.39 1.39 0 01-.21-.27 34.87 34.87 0 00-48.57-7.93 1.66 1.66 0 01-1.94-2.7 37.85 37.85 0 0120.65-7.11c2.94-21 20.81-30 28-32.76A66.78 66.78 0 00430 174.51a58.26 58.26 0 00-65.3 23.16 64 64 0 00-6.85 13.94 11.59 11.59 0 01-.82 1.79c12.34-3.5 29.31-5.47 47.24 1a1.67 1.67 0 01-.91 3.21l-.23-.08C365.72 204 332 228.59 331.64 228.84a1.73 1.73 0 01-.85.32 60.76 60.76 0 00-12 10.22 74 74 0 0049.33 122.83c4.59.38 9.68-1.84 14 0-1.87-6.8-2.56-15.21.85-23.73a1.66 1.66 0 013.09 1.23c-7 17.6 5.63 35.51 5.76 35.69a1.65 1.65 0 01.29.71 32.46 32.46 0 008 8.32 62.17 62.17 0 0031.46 11.75 61.4 61.4 0 0027.23-3.9 1.94 1.94 0 01.34-.21c25.86-11.9 31.74-39 31.8-39.31a1.66 1.66 0 013.26.67c-.22 1.05-5 23.24-25.38 37A62.82 62.82 0 00514.36 416c9.19.76 19-1.15 27.93-3.86 9.46-2.85 15 11.31 18 17.46 4.45 9 6.4 19.9 13.14 27.7 9.73 11.25 21.92 2.91 24.18-9.72a102.05 102.05 0 001.4-21.87c-.13-3.6-.54-7.77 1.35-11 2.26-3.89 5.9-3 9.83-3.57A51.71 51.71 0 00652.32 347a46 46 0 01-15 2.21c-1.11 0-2.3-.07-3.55-.17-9.14-.75-21.72-4.24-35-15.33a1.67 1.67 0 112-2.65l.11.09c27.37 22.87 51.63 12.24 51.87 12.13a1.69 1.69 0 01.49-.13A48.69 48.69 0 00660 255zm-190.78 69.1a1.32 1.32 0 01-.56 0 1.63 1.63 0 01-1.47-1.24 35.58 35.58 0 00-42.79-25.57h-.24l-.32.08a1.67 1.67 0 01-2-1.2 1.64 1.64 0 01.25-1.36A43.41 43.41 0 00339.36 284a1.67 1.67 0 01-3.06-1.33 46.74 46.74 0 0189 11.06 38.92 38.92 0 0145.17 28.33 1.67 1.67 0 01-1.19 2zm141-24.94a1.66 1.66 0 01-2.35.06 39.43 39.43 0 00-66.59 29.6 1.66 1.66 0 01-1.62 1.7h-.19a1.67 1.67 0 01-1.47-1.62 42.77 42.77 0 0172.22-32.09 1.66 1.66 0 01.1 2.33z"/>
      <path d="M753.55 259.09a25.85 25.85 0 01-8 5.34 19.88 19.88 0 01-1 6.31c3.26.23 6.41.49 9.31.68 0-2.27.06-4.54.09-6.79a35.43 35.43 0 00-.4-5.54z" class="cls-2"/>
      <path d="M770.69 636.53l-.64.44-6.3 8.24 7.78 6.43 13.32-9.14-.74-7.34-.22-2.21-12.94 4.46-.26-.88z" class="cls-3"/>
      <path d="M733.76 510.16l1.18 7.2 35.75 119.17 12.68-8.7.52 5.12.72-.25L766.1 510q-16.17.27-32.34.16z" class="cls-9"/>
      <path d="M770.67 636.46l.28 1.38 12.94-4.9-.52-5.64zM688.74 507.48l18.48 132.71h13.21v1.62h.08L722.87 510l-4.94-.07a187.77 187.77 0 01-29.19-2.45z" class="cls-9"/>
      <path d="M707.24 640.18h-.91l-7.06 7.41 7.06 7.4 14.12-7.4v-5.78h-12.98l-.23-1.63z" class="cls-3"/>
      <path d="M707.24 640.18l.23 1.94h12.98v-1.94h-13.21z" class="cls-3"/>
      <path d="M740.83 302.92l8.17 15.73c4.06-15.4 4.66-31.46 4.89-47.23-2.9-.19-6-.45-9.31-.68a2.94 2.94 0 01-.6.91c-1.86 1.84-8.16.57-10.62.15a3.71 3.71 0 01-1.91-.73 1.87 1.87 0 01-.47-.79c-7.73.17-14.86 1.37-19.3 5.05-.3.25-.58.5-.86.77-8.2 8.08-13.41 25.27-17.77 35.77a290.3 290.3 0 00-10.42 29.47l30.56 17.76zM722.88 509.74v.3l10.89.12-4.29-26.16zM733 408.66l-3.59-.16v13.3l10.28-2.8a25.18 25.18 0 01-6.69-10.34z" class="cls-10"/>
      <path d="M733 408.66a27.72 27.72 0 01-1.29-5.07c-1.1-7.07.06-14.21 1.66-21.23l-10.87 11.26-44.84-33.33c-4.57 20.49-7.1 41.4-9.61 62.25-2.44 20.25-1 48.86-13.51 66.15a5.17 5.17 0 00-1.4 3.15c.09 1.36 1.3 2.35 2.43 3.12 9.83 6.67 21.31 10.42 33.14 12.52l-10-71.71 50.69-14V408.5zM826.7 482.75c-12.81-11-21.2-22.38-26.42-36.32-2.45-.75-5.06-2.24-7.77-2.85-2.89-.66-6.06-.28-9.24.24-5.13.83-10.31 2-14.45-.2-5.23-2.81-5.8-9.88-7.93-15.43s-10.27-10.12-13.38-5.05a15.89 15.89 0 01-2.25-.71L729.48 484l4.28 26.18q16.17.1 32.34-.16h.19c21.25-.36 43.78-1.61 61.31-13.63 1.77-1.22 3.59-2.71 4.08-4.8.85-3.5-2.27-6.51-4.98-8.84z" class="cls-10"/>
      <path d="M759.18 410.39a53.35 53.35 0 00-30-5.65l-23.64 1.89-29.27 29.14 10 71.71a187.77 187.77 0 0029.18 2.52l4.94.07 15.62.19.82-22.41 2.94-6.35z" class="cls-10"/>
      <path d="M744.53 270.74a19.88 19.88 0 001-6.31 5.19 5.19 0 00-.44-7.14 5.12 5.12 0 00-6.11-.24l-7.8.88a7.45 7.45 0 00-1.35 2.65c-.39 1.44-.18 2.55.6 7l.47 2.69c4.49-.08 9.16.16 13.63.47z" class="cls-5"/>
      <path d="M733.31 271.8c1.61.14 8.07 2.66 10.62-.15a3.4 3.4 0 00.69-1.13q-3.35-.19-6.87-.32t-6.89-.12a1.91 1.91 0 00.54 1 3.71 3.71 0 001.91.72zM744 258.09l-1.85 2.25c2-.06 3.57.15 3.56.56 0 .79 0 2.09-.12 3.53a25.85 25.85 0 008-5.34 50 50 0 00-8.16-20.19c-5.07-7.65-11.57-14.22-18-20.78l-.3-.31a26.21 26.21 0 00-10.17 18.55 22.47 22.47 0 01-4.07-4.69 44.35 44.35 0 001.93 16.39c2.51 7.49 8.07 14.26 15.5 16.81a12 12 0 00-.58-3.66zM664.09 336.77l-2.61-6.99-1.76-.2-.33 2.16-3.82-5.18-5.08-1.26-5.28 4.52-1.44 7.04 5.04 4.77 8.04 1.91 4.12 2.02 3.81-8.49-.69-.3z" class="cls-5"/>
      <path d="M712.74 356.64l-45.8-24.39-2.16 4.82 7.06 3.09-4.62 8.48-6.28-3.07-.78 1.72c23.05 30 46.65 42.33 59.73 47.64 8.65 3.52 13.94 4.48 19.23 2.91 18.78-5.55 26.33-39.62 22.62-65.11-2-13.59-8.94-37.08-18.82-37.42-5.75-.19-16.09 7.31-30.18 61.33z" class="cls-10"/>
      <path d="M671.84 340.16l-7.06-3.09-3.81 8.49 6.28 3.08 4.59-8.48z" class="cls-10"/>
      <path d="M739.15 418.38a22.13 22.13 0 006.73 4.34l1.67-6.72z" class="cls-3"/>
      <path d="M739.71 419l6.93-1.91-1.42 5.34a15.89 15.89 0 002.25.71c3.11-5.07 11.26-.51 13.38 5.05s2.7 12.62 7.93 15.43c4.14 2.22 9.32 1 14.45.2l2.77-10.6-2.22-22.22-50.78-2.29a25.11 25.11 0 006.71 10.29z" class="cls-3"/>
      <path d="M831.5 393.2c-3.19-11.38-11-20.77-18.2-30.15-17.63-23-24.67-55.95-23.89-84.66.52-19.1 2.34-38.73-3.63-56.88-7.06-21.46-24.21-34-46.4-32.7a19.81 19.81 0 00-15.22 8.12 16.94 16.94 0 00-1.77 2.75c-.54-.3-1.08-.6-1.64-.88a23 23 0 00-8.8 31.32c.29.51.6 1 .92 1.49a22.33 22.33 0 004.07 4.71 26.21 26.21 0 0110.17-18.55l-.86-.89.86.89.3.31s12.91 13.13 18 20.78a50 50 0 018.16 20.17 35.41 35.41 0 01.38 5.54c0 2.25-.06 4.52-.09 6.79-.23 15.77-.83 31.83-4.89 47.23l-.29 1.14c-5.23 19-9.38 38.34-14.06 57.47-.41 1.69-.83 3.39-1.21 5.1l31.55-32.73-31.56 32.74c-1.6 7-2.76 14.16-1.66 21.23a27.72 27.72 0 001.29 5.07c21.89 3.84 37.82 16.83 50.25 35.18 3.34-.36 7.74-1.14 9.3.43 2.72 2.73 13.71 4.82 16.29-2a7.67 7.67 0 01-.6-10.84 8 8 0 01.84-.81c3.47-3.05 8.31-3.91 12.34-6.18 10.29-5.68 13.24-19.81 10.05-31.19z" class="cls-3"/>
      <path d="M257.67 140a75.78 75.78 0 10-139.45 13.36 86 86 0 0110.14 43.06l-.75 23.4 47.51 14.5 11.78-18.78A86.28 86.28 0 01220.22 185a75.59 75.59 0 0037.45-45z" class="cls-11"/>
      <path d="M155.06 255.86l-23.16-7.07c-6.56-2-10.7-8.56-9.2-14.82l5.3-24.34 52.57 15.68L171 248.7c-2.28 6.03-9.37 9.17-15.94 7.16z" class="cls-9"/>
      <path d="M172.68 234.22c-14.84-3.84-29.32-9.08-44.17-12.91a1 1 0 00-.54 2c14.52 5 29.5 8.54 44 13.49 1.65.57 2.4-2.14.71-2.58zM170.74 240.59c-14.85-3.85-29.33-9.09-44.18-12.91a1 1 0 10-.53 2c14.51 5 29.49 8.54 44 13.48 1.65.58 2.4-2.16.71-2.57z" class="cls-12"/>
      <path d="M224.47 10.32c-1.43 4.67-9 20.7-12.1 19.77s-.42-18.49 1-23.16 5.07-7.7 8.13-6.76 4.39 5.48 2.97 10.15zM285.71 57.2c-4.47 2-19.5 11.4-18.22 14.33s18.41-1.75 22.88-3.71 7.05-5.93 5.77-8.86-5.92-3.72-10.43-1.76zM289.78 140.35c-4.81-.82-21.68-6.35-21.14-9.51s18.29-2.75 23.1-1.92 8.27 4.05 7.73 7.21-4.88 5.05-9.69 4.22zM144.43 8c2.8 4 10.73 19.87 8.11 21.71s-14.81-11.06-17.61-15.07-2.93-8.73-.32-10.56S141.63 4 144.43 8zM88.43 65.78c4.45 2 21.53 6.83 22.84 3.91S97.64 57.2 93.22 55.2s-9.13-1.26-10.44 1.66 1.22 6.92 5.65 8.92z" class="cls-11"/>
      <path d="M205.22 164.3a19.47 19.47 0 01-3.49-8.11c3.61-2.45 6.1-6.46 7.82-10.37a73.07 73.07 0 002.7-7.33c.77-2.39 1.08-4.53-.5-6.65-1.41-1.89-4.2-1.42-6-.55-2.07 1-3.59 3.21-4.83 5.06a28 28 0 00-4.33 12.58 27 27 0 00-.1 4.67 11.67 11.67 0 01-4.05.79c-4.34.06-6.65-3.14-7.45-7.08-.14-.65-.24-1.32-.33-2 .57-.74 1.12-1.49 1.65-2.23a54.34 54.34 0 006.22-11.68c1.35-3.41 2.72-7.55 0-10.64a2.32 2.32 0 00-3.21-.13c-7 5.31-9.46 14.42-9.15 23a53.48 53.48 0 01-4.81 5.06c-1.87 1.74-5.22 4.29-7.94 3-2.54-1.2-3.64-5.17-4.33-7.63a25.1 25.1 0 01-.86-5.51c.61-.78 1.19-1.59 1.76-2.4a52.31 52.31 0 005.42-10.38c1.19-3 2.63-7.37-.32-9.9-.86-.73-2.33-1.13-3.21-.13a32.61 32.61 0 00-8.08 20.46v.8a47.91 47.91 0 01-13.35 11.49c-2.27 1.34-.4 4.9 1.93 3.63a50.52 50.52 0 0012-9.11 32.24 32.24 0 001.12 4.21c1.28 3.75 3.19 7.48 7.12 8.92 3.67 1.34 7.66-.88 10.51-3a30.63 30.63 0 003.86-3.43c.94 3.47 2.87 6.58 6.31 8.18a13.92 13.92 0 009.94.44 28.73 28.73 0 003.85 9 2.56 2.56 0 104.31-2.76 1.44 1.44 0 00-.18-.27zm-15.74-37.85a28.81 28.81 0 01-1.85 4.83 42 42 0 01-2.7 5.41 20.87 20.87 0 014.54-10.24zm13.6 16.09a21.8 21.8 0 012.82-4.91 12.13 12.13 0 011.72-1.86l.47-.32a3.31 3.31 0 01-.07.55 39.19 39.19 0 01-5.57 12.88 13.83 13.83 0 01-1.07 1.33 25.29 25.29 0 011.69-7.67z" class="cls-13"/>
      <path d="M212.58 154.89q-22.37 31.76-45.92 62.61c-1.89 2.46 1.86 5.46 3.75 3a1237 1237 0 0045.44-63c1.49-2.21-1.71-4.82-3.27-2.61zM142.94 132c-1.16 25.85-2.77 51.7-5.05 77.48-.28 3.08 4.5 3.6 4.77.51 2.24-25.8 3.8-51.65 4.44-77.54.12-2.66-4.03-3.14-4.16-.45z" class="cls-13"/>
      <path d="M339.72 222.34l3.55-9.45s5.17-5.26 7.75-5.26l7.75 2.71V224l-9.55 4.16z" class="cls-5"/>
      <path d="M667.93 41.15l-52.56 67.66 29.35 12.11-26.02 66.12 59.28-68.97-31.31-17.89 21.26-59.03zM711.06 115.2l-52.89 54.53 22.63 13.35-39.43 57.78 57.9-59.21-14.76-18.31 26.55-48.14z" class="cls-11"/>
    </g>
  </g>
</svg>
