<svg xmlns="http://www.w3.org/2000/svg" viewBox="0 0 876.91 652.69">
  <defs/>
  <defs>
    <style>
      .cls-3{fill:#0d1929}.cls-4{fill:#1a3151}.cls-5{fill:#ead1c5}.cls-6{fill:#14253d}.cls-9{fill:#89939b}.cls-11{fill:#bf9e6c}.cls-17{fill:#f5f2e8}
    </style>
  </defs>
  <g id="Слой_2" data-name="Слой 2">
    <path fill="#e2ebf2" d="M725.64 478c30.72 2 61.55-1.08 92.21 2.52 15.09 1.76 30.62 4.81 44.13 12.05 5 2.67 13.64 6.83 14.78 12.89 1.21 6.5-5.25 8.8-5.78 14.65-.36 4 4.38 9.57 4.87 14.09 1 9.51-3.73 18.13-9.2 25.52-10.24 13.85-31 25.56-35.9 42.67-1.83 6.36-2.28 13.43-4.83 19.34-14.24 33-52.47 23.61-75.88 25.6-47 4-94.17 4.77-141.29 5.12-106.91.82-213.81-.54-320.69-2.65-31.81-.63-63.64-1.68-95.46-2.42-18.63-.44-37.25-.77-55.87-.85-27.94-.13-60.09 6.62-86.51-8.81-46.15-27 13.23-53.25 1.65-83.16-5.13-13.19-26.26-14.78-35.67-18.07-4.33-1.52-8.92-3.23-12-7.63-16.12-23.34 18.4-48.14 31.48-51.41 26.53-6.65 55.41-3.42 82.28-3.93 202.77-3.86 406.04-8.37 607.68 4.48z"/>
    <path fill="none" d="M159.55 170c-.77 1.24-.93 3.26-.78 5.59z"/>
    <path d="M113.07 580.67l-.59 2.44-1.94 8.07 14.21 11.96 10.03-6.13-6.14-10.01-.63-.53-.49.89-14.45-6.69z" class="cls-3"/>
    <path d="M172.56 362.33a122.37 122.37 0 00-23.1 13.47c-3.44 2.62-6.15 5-8 6.73l5.54 89.32-34.74 108.44.81.37 1.73 1.34 12.79 5.73 69.34-125.54 6.69-19 30-84.82c-25.8-4.49-47.9-1.55-61.06 3.96z" class="cls-4"/>
    <path d="M205.21 422.22L200 447.43l2.24 9.4L220.6 582h.73l3.16.07 11.62-.63q5.14-69.18 10.3-138.35l-6.64-82.31c-3.63-.13-20-.65-31.42-.1z" class="cls-4"/>
    <path d="M220.68 582.04l.45 6.47 17.15 7.14 7.72-8.86-8.86-7.71-1.07.06-.14 1.86-15.25 1.04z" class="cls-3"/>
    <path d="M182.11 202.8c.44-2.21.91-4.36 2.69-5.58 1.63-1.1 3.79-1 5.6-1.74 3.4-1.45 4.63-5.56 5.45-9.16l2.15-9.41a39.15 39.15 0 00.81-4.32c-5.43-1.61-10.64-4.9-16.27-5.91-6.32-1.12-17.81-2.64-22.7 2.92l-.29.4-.78 5.59c.33 5.18 2.2 11.86 2.22 14.63a12.39 12.39 0 01-2.27-.84c1.79 2.5 5.29 3.9 8.41 4.89a74.15 74.15 0 00-.41 11.44h.55c5-1 10-1.81 14.4-2.84z" class="cls-5"/>
    <path d="M160.42 182.42a34.49 34.49 0 01-.92-3.8 17.33 17.33 0 01-.05-3.14c.09-.84.16-1.77.17-2.77a22.4 22.4 0 00-.1-2.71l.47-3.33a14.58 14.58 0 011.5-5.44c1.7-2.87 5.12-4.2 8.38-4.88 8.31-1.72 17.48-.2 24.14 5.07a12.9 12.9 0 014.22 5.21 12 12 0 01.55 6 22.25 22.25 0 003.69.79c4.91.59 11.06-2 15.13-4.66 5-3.28 7.12-12.44 10-17.46a38.27 38.27 0 012.57-4c2.06-2.71 4.63-5.06 6.26-8s2.11-7 0-9.63c-1.4-1.7-3.59-2.5-5.72-3a40.84 40.84 0 00-21.47.29c-6.62 1.92-12.51 4.93-19.32 2.63-6.4-2.16-10.93-1-17.46 1.52-7.07 2.78-16.64 3.69-23 7.5a19.22 19.22 0 00-6.33 6.66 28.78 28.78 0 00.9 30.41 41.57 41.57 0 004.66 5.5A71 71 0 00161 191.52V190a35.92 35.92 0 00-.58-7.58z" class="cls-6"/>
    <path d="M200.78 166.79a10 10 0 00-2.86-5.52c-8.1-8.76-27-5.54-27.86-5.38-5.41 1-7.71 2.48-8.91 4.41a18.18 18.18 0 00-1.85 5.7 25.89 25.89 0 00-.47 4.64l1.41-.2c13.41-2 20.16-2.92 22.12-2.62 2.27.35 1.14.52 13.26 4l3.84 1.08a9.58 9.58 0 001.32-6.11z" class="cls-6"/>
    <path d="M95.66 140.56l2.78-6.97-1.18-1.34-1.7 1.38.65-6.44-2.93-4.36-6.99-.2-5.83 4.26.53 6.96 4.69 6.87 1.09 2.75 9.85-.75-.96-2.16z" class="cls-5"/>
    <path fill="#ebb044" d="M698.8 231.71l-25.53 51.04-22.33 11.74-52.9 21.19-.71-17.64 51.61-34.58 27.53-53.99 22.33 22.24z"/>
    <path fill="#145566" d="M301.67 325c-2.81-3.51-11.67-5.38-15.74-7.37a133.37 133.37 0 01-25.77-16.06c-11.2-9.13-13.55-21.29-19.34-34.57-2.93-6.7 47.26 16.65 45.3 9.6-.7-2.54-2.41-31.35-2.41-31.35L212.57 197v2.29a12.51 12.51 0 010-2.29c-10.09 4.84-20.07 3.41-30.46 5.77l-.44.1c-4.38 1-9.4 1.85-14.4 2.84-5.59 1.12-11.15 2.46-15.71 4.61a17.26 17.26 0 00-3.87 2.57l-31.28-23.67-15.73-46.85-4.06.31-9.85.75-3.54.27 13.6 75.82 33.29 40.13a305.06 305.06 0 00-2.73 21.05c-1 11.74-1.79 23.5-2.26 35.28-.51 13.15-.58 26.32.12 39.46.28 5.09.14 7.36.38 10.46a124.85 124.85 0 005.52 28.15A55 55 0 01142 382.8a75.25 75.25 0 019.29-6.47 84.12 84.12 0 0120.57-8.33c3.11-.9 5.68-1.46 10.82-2.59 13.17-2.89 18.49-3.1 21.88-3.06 1.78 0 2.47.1 6.12.35 5.75.4 14 .9 24.47 1.27l8.18-2.34a197.7 197.7 0 0116.93-8.26c15.51-6.69 22.26-9.2 32.74-15.61 3.3-2.04 12.38-8.07 8.67-12.76z"/>
    <path d="M769.89 410.73l-17.78 78.96-16.34 93.94h-16.53l-6.75-228.59 54.64.98 2.76 54.71z" class="cls-9"/>
    <path d="M665.27 405.89l-2.3 76.66 23.08 101.08h14.84l1.52-106.61 16.23-87.25 4.03-27.85-45.49-5.36-11.91 49.33z" class="cls-9"/>
    <path fill="#f2ba61" d="M701.26 199.68l49.01-1.18 28.2 49-9.88 53.37 9.88 59.07-81.6 1.12-23-3.74 6.11-63.3-3.51-84.55 24.79-9.79z"/>
    <path d="M704 155.19c7.82-22.74 37.85-14.22 44 6 4 13.21-6.17 30.36-19.86 34.15 0 .48-.09.95-.1 1.42a43.19 43.19 0 01-.59 6.33c-.12.79-12.09-1.51-13.43-1.78a1.78 1.78 0 01-1.24-.61c-.48-.75.3-3 .39-3.8l.31-3c-6.75-3.3-11-10.31-12.2-17.46s.36-14.44 2.72-21.25z" class="cls-11"/>
    <path d="M723.58 134.64c1.61 1.64 2.24 3.92 2.7 6.11a9.33 9.33 0 01.24 4c-1.12 5.16-6.24 4.89-10.2 6.56a26.55 26.55 0 00-11.83 10.18c-4.28 6.81-2.35 15.58-.61 23.1.61 2.65 1.84 6.58-.22 8.95s-6.91 2-9.41.79c-2.28-1.13-4.16-3.21-6.67-3.63s-6.24.72-7.47-1.72a14 14 0 00-.81-2.12c-1.47-2.1-5.12.35-7.19-1.12-1.27-.91-1.26-2.85-.83-4.39s1.16-3.08.86-4.64c-.26-1.34-1.23-2.4-1.83-3.62a7.17 7.17 0 011-7.59c3.27-3.78 9.59-3.06 13.1-6.62 1.82-1.85 2.53-4.53 3.21-7.06s1.5-5.2 3.45-6.91c2.41-2.12 5.89-1.76 8.26-4.27 1.4-1.48 2.33-3.4 3.9-4.68 2.06-1.7 6.1-3 8.67-3.86a11.31 11.31 0 0111.68 2.54z" class="cls-4"/>
    <path d="M742.57 171c.14 7.48-3.58 15.58-.13 22.17S754.59 201 762 201.3c1.21.06 16.82 1.4 16.88 1.11 1.17-5.21 2.38-10.53 5.11-15.11s7.28-8.37 12.5-8.7c-1.51-.26-2.27-2.1-2.09-3.66a25.11 25.11 0 011.44-4.45 10.44 10.44 0 00-2.75-10.5c-5.52-5.15-15.52-3-20.26-8.92-2.93-3.67-2.58-9-4.12-13.45-3-8.65-12.44-10.46-19.52-14.37-7.47-4.12-14.51-6.38-23.13-4.94-10.69 1.78-18.64 12.66-14.51 22.9 5.28 13.14 26.43 12 30.38 25.34a15.94 15.94 0 01.64 4.45z" class="cls-4"/>
    <path fill="#ffd559" d="M735.77 199.4l-15.2 21.48-7.15-.57-11.92-21.81 34.27.9z"/>
    <path d="M719.24 583.63l-8.8 11.34 8.2 8.96 11.5-10.15 5.63-10.15h-16.53zM684.9 583.63l-8.81 11.34 8.2 8.96 11.5-10.15 5.63-10.15H684.9zM619.09 558.72l-331.33 25.47a12.86 12.86 0 01-13.91-11.71l-41-533.24a12.84 12.84 0 0111.93-13.68L576.15 0A12.83 12.83 0 01590 11.77L631 545a12.84 12.84 0 01-11.91 13.72z" class="cls-4"/>
    <path fill="#d1e7f5" d="M270.49 41.74H591v478.49H270.49z" transform="rotate(-4.4 430.69 281.02)"/>
    <path fill="#fff" d="M435.38 542.04h38.5v8.73h-38.5z" transform="rotate(-4.57 454.62 546.4)"/>
    <path d="M257.7 121l31.58 410.86 319.57-24.57L257.7 121z" opacity=".04"/>
    <path d="M332.31 170.93a35.56 35.56 0 01-26.08-8.13 33 33 0 01-12.46-24q-1.11-14.76 7.37-25.54t22.94-11.86a74.19 74.19 0 0123.24 2l-.94 3.87a75.31 75.31 0 00-22-1.75q-12.36.93-19.54 10.41t-6.19 22.32a29.72 29.72 0 0010.78 21.17 30.11 30.11 0 0022.6 7.36 49.72 49.72 0 0019-4.87l1.66 3.11a30.44 30.44 0 01-9.15 3.92 58.61 58.61 0 01-11.23 1.99z" class="cls-4"/>
    <path d="M329.2 172.57a37 37 0 01-23.92-8.6 34.66 34.66 0 01-13-25.09c-.78-10.2 1.81-19.15 7.69-26.6s14-11.67 24-12.43a76.28 76.28 0 0123.71 2.07 1.53 1.53 0 011.11 1.84l-.94 3.87a1.49 1.49 0 01-1.8 1.12 75 75 0 00-21.54-1.75c-7.86.6-13.9 3.81-18.44 9.82s-6.5 13.14-5.88 21.28a28.37 28.37 0 0010.24 20.13 28.74 28.74 0 0021.45 7 48.32 48.32 0 0018.43-4.7 1.52 1.52 0 012 .64l1.66 3.1a1.51 1.51 0 01-.48 2 32 32 0 01-9.61 4.13 59.57 59.57 0 01-11.49 2c-1.05.13-2.13.17-3.19.17zm.06-69.88c-1.7 0-3.39.06-5.06.19-9.15.69-16.51 4.49-21.87 11.28s-7.76 15.07-7 24.49a31.67 31.67 0 0011.9 23 34.24 34.24 0 0025 7.8 56.94 56.94 0 0010.92-1.94 32.41 32.41 0 007.55-3l-.31-.57a53 53 0 01-18.24 4.37 31.7 31.7 0 01-23.65-7.72 31.36 31.36 0 01-11.3-22.21c-.68-8.9 1.51-16.76 6.49-23.34a27.42 27.42 0 0120.63-11 76.28 76.28 0 0121 1.47l.23-1a73.75 73.75 0 00-16.29-1.82zM421.56 163L419 129.2l-46.37 3.53 2.56 33.81-4.53.34-5.16-67.53L370 99l2.25 29.66 46.37-3.53-2.22-29.61 4.53-.35 5.13 67.53z" class="cls-4"/>
    <path d="M370.66 168.4a1.55 1.55 0 01-1.51-1.4L364 99.47a1.53 1.53 0 011.4-1.63l4.53-.34a1.51 1.51 0 011.63 1.39l2.13 28.11 43.31-3.25-2.14-28.15a1.53 1.53 0 011.4-1.62l4.53-.35a1.52 1.52 0 011.66 1.37l5.13 67.53a1.5 1.5 0 01-1.39 1.62l-4.53.35a1.53 1.53 0 01-1.1-.36 1.67 1.67 0 01-.53-1l-2.45-32.3-43.35 3.29 2.46 32.3a1.51 1.51 0 01-1.4 1.63l-4.53.34zm-3.5-67.65l4.9 64.5 1.51-.11-2.46-32.3a1.54 1.54 0 011.4-1.63l46.37-3.52a1.51 1.51 0 011.67 1.32l2.45 32.3 1.51-.12-4.9-64.5-1.51.12 2.1 28.2a1.52 1.52 0 01-1.4 1.63l-46.37 3.52a1.53 1.53 0 01-1.1-.36 1.67 1.67 0 01-.53-1l-2.13-28.14zM452.84 137l-7.95 24.16-4.82.37 23.27-70.16 2.64-.2L499.67 157l-5.1.39-11.57-22.6zM465 98.89a5.33 5.33 0 00-.29 1.16 75.64 75.64 0 01-2 7.09l-8.48 25.91 27-2.05-12.29-24.24c-2.59-4.58-3.86-7.2-3.94-7.83z" class="cls-4"/>
    <path d="M440 163.13a1.54 1.54 0 01-1.51-1.55 2.34 2.34 0 01.07-.45L461.86 91a1.52 1.52 0 011.32-1l2.65-.2a1.5 1.5 0 011.46.82L501 156.39a1.5 1.5 0 01-.65 2 1.34 1.34 0 01-.59.17l-5.1.38a1.51 1.51 0 01-1.47-.82l-11-21.78-28.19 2.18-7.63 23.2a1.5 1.5 0 01-1.32 1l-4.82.36zm24.42-70.24l-22.23 67 1.54-.11 7.63-23.2a1.56 1.56 0 011.32-1l30.23-2.29a1.5 1.5 0 011.46.82l11.05 21.78 1.82-.14-32.15-62.91zm-10.31 41.72a1.56 1.56 0 01-1.19-.58 1.54 1.54 0 01-.25-1.41l8.48-25.91a84.93 84.93 0 002-6.94c.21-1.11.32-1.49.63-1.84a1.53 1.53 0 012.15-.14 1.51 1.51 0 01.5 1c.07.28.56 1.6 3.74 7.31l12.31 24.29a1.53 1.53 0 01-.67 2.05 1.5 1.5 0 01-.56.15l-27 2zm11.2-31.12c-.43 1.55-.86 3-1.28 4.18l-7.77 23.73 22.48-1.7-11.26-22.21-2.13-4zM514.11 92l-22.86 1.74-.3-4L541.19 86l.3 4-22.85 1.74 4.83 63.56-4.54.34z" class="cls-4"/>
    <path d="M518.93 157.14a1.55 1.55 0 01-1.51-1.4l-4.71-62-21.34 1.62a1.5 1.5 0 01-1.62-1.36l-.3-4a1.5 1.5 0 011.38-1.62l50.24-3.82a1.47 1.47 0 011.1.36 1.55 1.55 0 01.53 1l.3 4a1.52 1.52 0 01-1.4 1.63l-21.34 1.62 4.71 62a1.51 1.51 0 01-1.4 1.63l-4.53.34zm-4.82-66.6a1.5 1.5 0 011.51 1.46l4.71 62 1.51-.11-4.71-62a1.5 1.5 0 011.38-1.62l21.35-1.62-.07-.94-47.22 3.59.07.94L514 90.55z" class="cls-4"/>
    <path fill="#3ababa" d="M300.12 290.61c-3.11-34.7 34.22-66.42 83.39-70.83s91.56 20.14 94.67 54.85S444 341 394.8 345.47c-2.54.22-5 .37-7.55.45l12.32 44.37-54.68-50.79c-25.14-9.07-42.8-26.95-44.77-48.89z"/>
    <path d="M427.72 286.91c-5.14.46-5.86-7.52-.72-8s5.86 7.54.72 8zM391.81 290.13c-5.14.47-5.86-7.51-.72-8s5.91 7.54.72 8zM346.92 294.16c-5.14.47-5.86-7.51-.72-8s5.8 7.54.72 8z" class="cls-17"/>
    <path fill="#c7d394" d="M569.66 340.67c-2-30.92-39.23-53.61-83-50.7S409 320.32 411 351.23s39.23 53.61 83 50.7c2.26-.16 4.49-.37 6.69-.65l4.83 28.56L530.2 394c24.69-8.66 40.8-33.8 39.46-53.33z"/>
    <path d="M457.09 355c4.57-.31 4.1-7.42-.48-7.11s-4.1 7.46.48 7.11zM489 352.92c4.58-.31 4.11-7.42-.47-7.11s-4.04 7.41.47 7.11zM529 350.25c4.57-.3 4.1-7.41-.48-7.11s-4.05 7.42.48 7.11z" class="cls-17"/>
    <path d="M625.15 325.96l-14.74 1.62-.62 5.1-9.26 6.32 3.93 5.94 19.1-6.11 1.59-12.87z" class="cls-11"/>
    <path fill="#ffd664" d="M778.47 247.5l-53.34 56.14-24.15 9.12-78.57 28.17 1.49-18 78.94-41.91 45.39-82.65 20.83 11.45 9.41 37.68z"/>
  </g>
</svg>
