<svg xmlns="http://www.w3.org/2000/svg" xmlns:xlink="http://www.w3.org/1999/xlink" viewBox="0 0 256.91 170.54"><defs><style>.cls-1{fill:#f6f5fb;}.cls-2{fill:#004967;}.cls-3{fill:#005a89;}.cls-4{fill:url(#Безымянный_градиент);}.cls-5{fill:url(#Безымянный_градиент_2);}.cls-6{fill:#c5d0d7;}.cls-7{fill:#00b1dc;}.cls-8{fill:#350d9a;}.cls-9{fill:#231c64;}.cls-10{fill:#ffc4a1;}.cls-11{fill:#00cfef;}.cls-12{fill:#00daf4;}.cls-13{fill:#edecf6;}.cls-14{fill:#e3eff8;}.cls-15{fill:#f3f7f9;}.cls-16{fill:#d7e4ec;}.cls-17{fill:#5812b7;}.cls-18{fill:#4ef1fe;}.cls-19{fill:#0088e4;}.cls-20{fill:#00c8ed;}.cls-21{fill:#00c4f5;}.cls-22{fill:#fff;}.cls-23{fill:#d4d4d4;}.cls-24{fill:#ecebec;}.cls-25{fill:#45108b;}.cls-26{fill:#a551f4;}.cls-27{fill:#7540db;}.cls-28{fill:#4d85e2;}.cls-29{fill:#7316d8;}.cls-30{fill:#00bfed;}.cls-31{fill:#e5e2f5;}.cls-32{fill:#f5f3fe;}.cls-33{fill:#f7f5ff;}.cls-34{fill:#dad6ee;}.cls-35{fill:#0ce;}.cls-36{fill:#004a69;}.cls-37{fill:#0082b5;}.cls-38{fill:#00d5f9;}.cls-39{fill:#537ae0;}.cls-40{fill:#00c6ed;}.cls-41{fill:#edefef;}.cls-42{fill:#0096b5;}.cls-43{fill:#007e93;}.cls-44{fill:#00c6e5;}.cls-45{fill:#596cdd;}</style><linearGradient id="Безымянный_градиент" x1="219.39" y1="-35.99" x2="241.61" y2="-5.47" gradientTransform="matrix(1, 0, 0, -1, 0, 49.84)" gradientUnits="userSpaceOnUse"><stop offset="0.18" stop-color="#fff"/><stop offset="0.64" stop-color="#f2f2f2"/></linearGradient><linearGradient id="Безымянный_градиент_2" x1="215.69" y1="-1.84" x2="241.48" y2="36.53" gradientTransform="matrix(1, 0, 0, -1, 0, 49.84)" gradientUnits="userSpaceOnUse"><stop offset="0.18" stop-color="#fff"/><stop offset="0.47" stop-color="#f2f2f2"/></linearGradient></defs><title>Ресурс 12</title><g id="Слой_2" data-name="Слой 2"><g id="Слой_3" data-name="Слой 3"><path class="cls-1" d="M122.61,113.16l20-11.6c2-.86,3.91-.36,4.54.77a2.48,2.48,0,0,1,.1,1.91,4.91,4.91,0,0,0-.08,2.11,4.85,4.85,0,0,0,.34,1.09A5.35,5.35,0,0,0,148.6,109a7.1,7.1,0,0,0,2.85,1.59,17.94,17.94,0,0,0,4.53.92,26,26,0,0,0,8.41-.88,27.43,27.43,0,0,0,6-2.27,19.35,19.35,0,0,0,3.16-2.08,14.65,14.65,0,0,0,2.34-2.34,7.25,7.25,0,0,0,1.31-2.22,5.07,5.07,0,0,0,0-3.37,4.33,4.33,0,0,0-.76-1.26,7.3,7.3,0,0,0-3.38-2.21,13.92,13.92,0,0,0-3.78-.83,18.44,18.44,0,0,0-1.85-.06l-1.06,0c-.69,0-1,0-1.37,0a10.87,10.87,0,0,1-1.65-.18,4.82,4.82,0,0,1-2.42-.86,1.55,1.55,0,0,1-.57-.71c-.16-.74.79-1.74,2.4-2.5l17.36-10.06Q151.2,63,122.31,46.26L64.61,79.6"/><path class="cls-2" d="M178.57,89.38q0-3.94,0-7.88l-3.33,2.2Z"/><path class="cls-2" d="M181.2,62v7.3l-.27,0-6.4-3.74L181,61.91Z"/><path class="cls-2" d="M123.7,102.72l20-11.61c2-.85,3.9-.36,4.54.77a2.54,2.54,0,0,1,.09,1.92,5.09,5.09,0,0,0-.07,2.11A4.69,4.69,0,0,0,148.6,97a5.15,5.15,0,0,0,1.08,1.51,7.27,7.27,0,0,0,2.86,1.59,18.88,18.88,0,0,0,4.53.92,25.68,25.68,0,0,0,8.41-.89,27.3,27.3,0,0,0,6-2.26,19.71,19.71,0,0,0,3.15-2.09A14.29,14.29,0,0,0,177,93.45a6.81,6.81,0,0,0,1.31-2.23,4.91,4.91,0,0,0,0-3.36,4.43,4.43,0,0,0-.75-1.27,7.33,7.33,0,0,0-3.39-2.2,13.14,13.14,0,0,0-3.77-.83,16.27,16.27,0,0,0-1.85-.07l-1.06,0c-.69,0-1,0-1.38,0a10.7,10.7,0,0,1-1.64-.18,4.69,4.69,0,0,1-2.42-.85,1.47,1.47,0,0,1-.57-.72c-.16-.73.79-1.74,2.4-2.49L181.2,69.25,123.39,35.81,65.7,69.16"/><path class="cls-3" d="M123.7,95.42l20-11.6c2-.86,3.9-.36,4.54.76a2.54,2.54,0,0,1,.09,1.92,5.1,5.1,0,0,0-.07,2.11,4.69,4.69,0,0,0,.34,1.09,5,5,0,0,0,1.08,1.51,7.14,7.14,0,0,0,2.86,1.59,17.86,17.86,0,0,0,4.53.92,26,26,0,0,0,8.41-.88,27.67,27.67,0,0,0,6-2.27,19.83,19.83,0,0,0,3.15-2.08A13.74,13.74,0,0,0,177,86.15a6.87,6.87,0,0,0,1.31-2.22,4.94,4.94,0,0,0,0-3.37,4.21,4.21,0,0,0-.75-1.26,7.28,7.28,0,0,0-3.39-2.21,13.87,13.87,0,0,0-3.77-.83c-.75-.07-1.38-.07-1.85-.07-.26,0-.62,0-1.06,0-.69,0-1,0-1.38,0a12.55,12.55,0,0,1-1.64-.17,4.78,4.78,0,0,1-2.42-.86,1.47,1.47,0,0,1-.57-.72c-.16-.73.79-1.73,2.4-2.49L181.2,62,123.39,28.52,65.7,61.86"/><polygon class="cls-2" points="252.84 119.35 252.84 126.65 248.32 122.76 252.36 118.84 252.84 119.35"/><polygon class="cls-2" points="143.29 119.35 143.29 126.65 147.23 123 143.66 118.87 143.29 119.35"/><path class="cls-1" d="M256.91,137l-57.7-33.34-57.8,33.43,17.36,10.06c1.61.76,2.56,1.76,2.4,2.49a1.47,1.47,0,0,1-.57.72,4.55,4.55,0,0,1-2.42.85,10.87,10.87,0,0,1-1.65.18c-.33,0-.68,0-1.37,0-.44,0-.81,0-1.06,0a16.27,16.27,0,0,0-1.85.07,13,13,0,0,0-3.77.83,7.38,7.38,0,0,0-3.39,2.2,5,5,0,0,0-.76,1.27,5.07,5.07,0,0,0,0,3.37,7,7,0,0,0,1.32,2.22,13.74,13.74,0,0,0,2.34,2.34,19.83,19.83,0,0,0,3.15,2.08,26.33,26.33,0,0,0,6,2.26,25.68,25.68,0,0,0,8.41.89,17.86,17.86,0,0,0,4.53-.92,7.17,7.17,0,0,0,2.85-1.59,5,5,0,0,0,1.09-1.51,5.25,5.25,0,0,0,.34-1.09,4.92,4.92,0,0,0-.07-2.11,2.45,2.45,0,0,1,.09-1.92c.63-1.13,2.55-1.63,4.54-.77l20,11.61Z"/><path class="cls-2" d="M143,146.76c0-2.62,0-5.26.05-7.88,1.1.74,2.21,1.47,3.32,2.2Q144.64,143.93,143,146.76Z"/><path class="cls-2" d="M251.21,123.11l-51-29.19a3,3,0,0,0-3,0c-6.56,3.75-12.36,7.16-18.91,10.91,0,.18,0,.36,0,.48a1.4,1.4,0,0,0,.93,1.37,4.09,4.09,0,0,0,.73.23,10.1,10.1,0,0,0,1.7.17c1.15,0,1.19-.06,2-.12,1.32-.1,2-.18,2.68-.16a11.3,11.3,0,0,1,2.3.39,12.35,12.35,0,0,1,4.26,1.42,5.47,5.47,0,0,1,2.21,2.12,4.78,4.78,0,0,1,.49,2.94,6,6,0,0,1-1,2.47,12.37,12.37,0,0,1-2.32,2.58,21.63,21.63,0,0,1-4,2.72,26.37,26.37,0,0,1-4.42,1.81,30.92,30.92,0,0,1-4.53,1.06,27.61,27.61,0,0,1-4.75.31,16.79,16.79,0,0,1-3-.29,11.88,11.88,0,0,1-3.16-1,5.7,5.7,0,0,1-2.66-2,4.54,4.54,0,0,1-.67-1.65,5.09,5.09,0,0,1-.05-1.76,2.4,2.4,0,0,0,0-1,2.47,2.47,0,0,0-1.05-1.35,5.3,5.3,0,0,0-3.34-.69l-15.72,9a3,3,0,0,0,0,5.17l12.92,7.41a1.39,1.39,0,0,0,.21.11c1.56.76,2.48,1.72,2.32,2.45-.07.29-.3.47-.58.71a4.68,4.68,0,0,1-2.44.86,10.88,10.88,0,0,1-1.66.18l-1.39,0-1.07,0a14.47,14.47,0,0,0-1.88.06,13.42,13.42,0,0,0-3.81.83,7.4,7.4,0,0,0-3.42,2.21,4.73,4.73,0,0,0-.76,1.26,5,5,0,0,0,0,3.37,6.84,6.84,0,0,0,1.33,2.22A13.83,13.83,0,0,0,147,153a19.29,19.29,0,0,0,3.18,2.08,29.56,29.56,0,0,0,14.55,3.16,18.93,18.93,0,0,0,4.57-.93,7.26,7.26,0,0,0,2.89-1.59,5.34,5.34,0,0,0,1.1-1.51,4.82,4.82,0,0,0,.28-3.15l0-.11a2.45,2.45,0,0,1,.11-1.86c.61-1.09,2.41-1.59,4.33-.88a3,3,0,0,1,.44.21l18.5,10.63a3,3,0,0,0,3,0c17.52-10,34.07-19.63,51.58-29.66C253.47,128.28,253.22,124.26,251.21,123.11Z"/><polygon class="cls-2" points="190.65 105.31 178.26 105.31 178.25 97.65 190.65 97.39 190.65 105.31"/><path class="cls-3" d="M251.34,116.65,199.62,86.76a3,3,0,0,0-3,0c-6.12,3.54-11.27,6.42-17.4,10-1.95,1-.42,1.63-.36,1.67a2.88,2.88,0,0,0,1.3.59,5.19,5.19,0,0,0,1.53.12c1.09,0,1.77-.14,2.6-.21a17.27,17.27,0,0,1,2.66-.16,22,22,0,0,1,6.5,1.81,5.47,5.47,0,0,1,2.18,2.12,4.85,4.85,0,0,1,.49,2.94,5.94,5.94,0,0,1-1,2.46,11.42,11.42,0,0,1-2.3,2.59,21.31,21.31,0,0,1-4,2.72,25.72,25.72,0,0,1-4.39,1.8,29.26,29.26,0,0,1-4.48,1.07,28.24,28.24,0,0,1-4.7.31,17.57,17.57,0,0,1-3-.29,11.72,11.72,0,0,1-3.13-1,5.75,5.75,0,0,1-2.63-2,4.69,4.69,0,0,1-.66-1.65,5.14,5.14,0,0,1,0-1.77,2.36,2.36,0,0,0,0-1,2.54,2.54,0,0,0-1-1.36,3.46,3.46,0,0,0-3.91.06c-5.68,3.43-10.33,5.87-16.07,9.18a3,3,0,0,0,0,5.17l12.82,7.43.15.08c1.57.76,2.49,1.74,2.33,2.46a1.4,1.4,0,0,1-.57.71,4.64,4.64,0,0,1-2.42.86,10.87,10.87,0,0,1-1.65.18l-1.37,0-1.06,0a15.91,15.91,0,0,0-1.85.06,13,13,0,0,0-3.77.83,7.41,7.41,0,0,0-3.39,2.21,4.82,4.82,0,0,0-.76,1.27,5,5,0,0,0,0,3.36,7,7,0,0,0,1.32,2.22,13.74,13.74,0,0,0,2.34,2.34A19.15,19.15,0,0,0,150,148a29,29,0,0,0,14.4,3.16,18.88,18.88,0,0,0,4.53-.92,7.42,7.42,0,0,0,2.85-1.59,5.12,5.12,0,0,0,1.09-1.52,4.81,4.81,0,0,0,.28-3.14l0-.12a2.45,2.45,0,0,1,.11-1.86c.6-1.08,2.39-1.59,4.29-.87a3.36,3.36,0,0,1,.43.2l18.31,10.63a3,3,0,0,0,3,0l52-30.11A3,3,0,0,0,251.34,116.65Z"/><path class="cls-4" d="M207.75,25.16,247,47.88a2.82,2.82,0,0,1,1.4,2.43V122.7l-.56.3L207.74,99.73V25.16Z"/><path class="cls-5" d="M241.64,56.22l-40.25-23a9.75,9.75,0,0,1,.44-4.3,8.15,8.15,0,0,1,.9-1.87,5.42,5.42,0,0,1,1.75-1.87,3.92,3.92,0,0,1,1.43-.56,3.19,3.19,0,0,1,1,0c13.55,7.76,40.61,23.54,40.61,23.54l-.42.24a3.61,3.61,0,0,0-1.21-.38,2.45,2.45,0,0,0-1.4.43,3.77,3.77,0,0,0-1,.93,8.15,8.15,0,0,0-1.29,2,5,5,0,0,0-.52,1.68c-.07.86.17,1.31,0,2.42A5.1,5.1,0,0,1,241.64,56.22Z"/><path class="cls-6" d="M242.22,53.61a5.17,5.17,0,0,1,.1-.93,5.26,5.26,0,0,1,.89-1.92,5.61,5.61,0,0,1,.82-1,3.1,3.1,0,0,1,1.33-.93,1.93,1.93,0,0,1,1.71.14,1.89,1.89,0,0,1,.7,1.14,2,2,0,0,1,0,.57c0,.7,0,72.38,0,72.38l.56-.31V49.76a2,2,0,0,0-.25-.92,1.58,1.58,0,0,0-.4-.5,2,2,0,0,0-1.08-.47,2.57,2.57,0,0,0-1.4.26,5.88,5.88,0,0,0-2.48,2.1,7.79,7.79,0,0,0-1,2.19,6.53,6.53,0,0,0-.15,1.15,3.33,3.33,0,0,0,0,.38c0,.77,0,2.24,0,2.55h.6C242.24,56.44,242.18,54.52,242.22,53.61Z"/><path class="cls-7" d="M237.94,65.84,213.48,52a2,2,0,0,1-1.21-2h0a.69.69,0,0,1,1-.66l24.6,14a2,2,0,0,1,1,1.53l0,.28A.68.68,0,0,1,237.94,65.84Z"/><path class="cls-7" d="M230.29,67.87l-17.14-9.65a1.82,1.82,0,0,1-1.07-1.93h0c0-.51.53-.95.89-.74l17.6,10a1.41,1.41,0,0,1,.61,1.31l0,.26C231.15,67.64,230.64,68.06,230.29,67.87Z"/><path class="cls-7" d="M238,79,213.32,65a2,2,0,0,1-1.22-2h0a.69.69,0,0,1,1-.66l24.79,14.13A2.06,2.06,0,0,1,239,78l0,.27A.68.68,0,0,1,238,79Z"/><path class="cls-7" d="M230.59,81,213,71.1c-.47-.26-.85-.58-.71-1.73h0c0-.51.53-.94.89-.73l17.73,10.11a1.38,1.38,0,0,1,.62,1.3v.26C231.46,80.81,231,81.24,230.59,81Z"/><path class="cls-7" d="M235.84,90.28,213.33,77.57a1.8,1.8,0,0,1-1.06-1.93h0a.69.69,0,0,1,1-.68l22.63,12.9a1.81,1.81,0,0,1,.9,1.48l0,.27A.68.68,0,0,1,235.84,90.28Z"/><path class="cls-7" d="M238.1,97.87l-24.76-14a2,2,0,0,1-1.23-2h0a.69.69,0,0,1,1-.65l24.9,14.2a2,2,0,0,1,1,1.54l0,.28A.67.67,0,0,1,238.1,97.87Z"/><path class="cls-7" d="M230.18,99.81,212.77,90c-.47-.26-.84-.58-.69-1.72h0c0-.51.54-.94.9-.74l17.49,10a1.36,1.36,0,0,1,.6,1.3v.25C231,99.59,230.53,100,230.18,99.81Z"/><path class="cls-7" d="M235.76,109.26,213,96.42A1.83,1.83,0,0,1,212,94.48h0a.69.69,0,0,1,1-.68l22.85,13a1.86,1.86,0,0,1,.92,1.48l0,.27A.68.68,0,0,1,235.76,109.26Z"/><path class="cls-8" d="M202.94,117c0,.09-.25.89.21,1.37a2.16,2.16,0,0,0,1,.59s6.24-.76,6.83-1.12,1.14-1.26.2-1.53Z"/><path class="cls-8" d="M201,115.06s-.14,1.08.19,1.39a1.28,1.28,0,0,0,1.17.48c.54-.08,1.14-.93,1.14-.93Z"/><path class="cls-9" d="M200.83,115.17a3.2,3.2,0,0,0,2,.76s-.18.88,0,1.16a2.52,2.52,0,0,0,.81.56l3.87-5.24s1.31-18.17,1.22-18.17H201Z"/><path class="cls-10" d="M198.79,82.92a19.64,19.64,0,0,0,.29,4.3c.37,1.12,1.75,4.86,1.75,4.86s.23-9.13.16-9.16S198.79,82.92,198.79,82.92Z"/><path class="cls-11" d="M199.79,77.2s-.7.24-.95,1.79-.5,3.83-.5,3.83a1.73,1.73,0,0,0,1.82.7Z"/><path class="cls-12" d="M200,83.64a34.83,34.83,0,0,1,.53,10.51s2.59,2.56,8.64.28c0,0,.19-14.63-3.24-15.37,0,0-3.24-2.94-6.24-1.94C199.66,77.12,198.94,78.53,200,83.64Z"/><path class="cls-10" d="M207.86,79.49a17.22,17.22,0,0,0,2.94-1.56c.74-.62,2.3-5.58,3.11-8a5.09,5.09,0,0,0,1.18-2.58c.11-1.39,0-1.12-.34-1.61s-.67-.85-1-.6a11.66,11.66,0,0,0-1.12,2.1s.06-1.1-.28-1.17-.58.28-.57.82a3.6,3.6,0,0,0,.36,2.35c.23.38-.39,1.53-.39,1.53l-2.63,5-1.7.76Z"/><path class="cls-11" d="M207.71,76s1,2.71.37,4.44c0,0-5.77,1.92-6.59-.46s4.5-3.5,4.56-3.51Z"/><path class="cls-10" d="M199.12,75l.65,2.2,3.88.2s-1.37-1.25-1.35-2.16c0,0-.33-.23,0-.24s1.52-.15,1.83-.84a2.8,2.8,0,0,0,0-1.65l-2.16-5Z"/><path class="cls-8" d="M201.88,70.93s.18-.07.37.29.35.65.49.3a.73.73,0,0,0-.07-.79,7.94,7.94,0,0,1-.62-2.22c0-.34,0-1.24,0-1.24a2.16,2.16,0,0,0-1-.87,6.35,6.35,0,0,0-1.48-.33s.75.74-.45.48-1.15,0-1.15,0,1.4.69-1.09.42c0,0,.57.37,0,.71a3.7,3.7,0,0,0-1.28,1.79,3.85,3.85,0,0,0,.72,3.19c.65.68,2.57,2.32,2.57,2.32s.81.36,1.12.22a1.91,1.91,0,0,0,1.22-1.28,4.62,4.62,0,0,0,.24-2.35C201.45,70.9,201.88,70.93,201.88,70.93Z"/><path class="cls-13" d="M213.82,158.07a13.31,13.31,0,0,1,3.21.25c1.64.34,3.48.32,4.18-.1a.63.63,0,0,0,.13-1s-2.83-1.21-4.15-1.7a7,7,0,0,0-3.62-.15c-1.29.15-1,1.64-1,1.64A1.25,1.25,0,0,0,213.82,158.07Z"/><path class="cls-8" d="M207.47,159.92s-.18,1.59.32,1.94,4.49,2.29,4.63,2.35a4.67,4.67,0,0,0,1.84.28,4.07,4.07,0,0,0,1.4-.65.67.67,0,0,0,0-.83c-.22-.23-3.93-3.23-3.93-3.23Z"/><path class="cls-8" d="M212.73,152.36a3,3,0,0,0-.13,1.58.89.89,0,0,0,.88.46s2,.13,2.54.13,2.62.39,2.79.39a7.62,7.62,0,0,0,1.95,0c.3-.17,1.29-.83,0-1.45s-4-1.64-4-1.64Z"/><path class="cls-7" d="M194.39,136.91a5,5,0,0,0,.84,4.46,11.15,11.15,0,0,0,3.5,2.74l5.27,2.68s1,.47,1.56,4,1.71,9.07,1.71,9.07.7,1.12,3.74,1.22c1.25,0,1-.87,1.09-1S210,146.64,210,146.64a2,2,0,0,0-1.68-2l2.73-.28,1.4,8.05s3.21,2.21,5.05-.31l-2.24-11.42L203.87,134Z"/><polygon class="cls-14" points="206.72 128.32 209.81 132.95 210 136.41 213.34 134.51 213.23 132.36 208.85 121.91 206.72 128.32"/><path class="cls-15" d="M208.49,123a20,20,0,0,1-1.61,6c-1.36,3-2.24,5.13-2.24,5.13a3.27,3.27,0,0,1-.32,2.74,6.6,6.6,0,0,1-3.49,2.42,8.55,8.55,0,0,1-4.91-.42c-1-.58-2.2-1.37-2.32-2.51s1.22-6.76,1.22-6.76,2-8.35,4.35-8.94,4.63-1.24,6.53-.58A5.52,5.52,0,0,1,208.49,123Z"/><path class="cls-16" d="M205.49,126.41s1.49-2.23.9-3.85c0,0-.25-.53.31-.4a5,5,0,0,1,1.19.79s-1,3.21-2.33,3.67C205.56,126.62,205.25,126.81,205.49,126.41Z"/><path class="cls-10" d="M204.9,123.89c.08,0,1,.31,1.36-.25a2.33,2.33,0,0,0,.15-1.39s.19-.18.44.12,1.34,1.14,2.28.58a3,3,0,0,0,1.17-1.85l.87-4.76h-6.46l-.43,3.26a2.37,2.37,0,0,0-1.05,1.68Z"/><path class="cls-16" d="M201.52,119.94l2.82-.09.16-1.1s-5.12.66-5.5,1.32Z"/><path class="cls-14" d="M205.32,126.82a5.56,5.56,0,0,0-.89-4.1c-1.37-2-1.81-2.54-2.3-2.89a3.92,3.92,0,0,0-3.36.38c-1.31.89-1.12,1.57-1.12,1.57a3.55,3.55,0,0,1,3-.15C203.56,123.21,204.18,124.43,205.32,126.82Z"/><path class="cls-17" d="M204.35,119.63a7.77,7.77,0,0,0,.71-.35s-.51-.79-.21-1.2.46-.58.71-.47a1.36,1.36,0,0,1,.59,1.37,4.05,4.05,0,0,1,1-2.06c.71-.56,1.14-.65,1.69-.42a2.33,2.33,0,0,0,1.56.27,1.64,1.64,0,0,0,.82-.5,2.59,2.59,0,0,1,.48-.8,4.13,4.13,0,0,1,.35-.29,3.55,3.55,0,0,0-.86-.66c-.4-.12.14-.36.34-.37s-.46-.33-.68-.28c0,0-.32-.41.55-.37a2,2,0,0,0-1.55-.32.72.72,0,0,1,.48-.63,2.34,2.34,0,0,0-1.34.08s-.39-.22.1-.44a2.74,2.74,0,0,0-1.58.14.39.39,0,0,1,.28-.46s-3.38.68-4.08,2.6a4,4,0,0,0-.09,3.07Z"/><path class="cls-10" d="M203.84,136.86a11.81,11.81,0,0,1,4.28-.35s.62.51-.21.64c0,0-.33.45.44.45v2.24l-4.95-1.4Z"/><path class="cls-14" d="M204.7,136.69s-.89.27-1,2.19c0,0-8.32-2.58-9-3.47A2.86,2.86,0,0,1,194,133c.12-.56,1.74-9.13,3.26-10.34s2.08.21,2.2.51a4.09,4.09,0,0,1,.26,2.72,23,23,0,0,1-1.36,4.84c-.54,1-.49,2.45.49,2.8S204.7,136.69,204.7,136.69Z"/><path class="cls-18" d="M209.93,135.17c0,.07-9.66,5-9.66,5s-.51.51-.19.74,8.27,4.58,8.27,4.58L210,136Z"/><path class="cls-19" d="M200,141l8.11,4.75a1.19,1.19,0,0,0,1.08-.24c.63-.42,10.49-6.07,10.56-6.13s.08-.65.06-.65-11.5,6.5-11.5,6.5L200,140.62S199.9,140.74,200,141Z"/><path class="cls-20" d="M208.24,144.64l-4.09-2.12s-.53-.4,0-.72,4.62-2.49,4.62-2.49Z"/><path class="cls-21" d="M208.17,145.17s0-7.58,0-7.58a.93.93,0,0,1,.47-.85c.52-.3,10.41-5.93,10.61-6s.56-.08.58.44S209,144.9,209,144.9l-.65.39Z"/><path class="cls-22" d="M208.47,145.22l0-7.09a1.59,1.59,0,0,1,.94-1.5c1.36-.67,9.66-5.6,9.66-5.6s.77-.44.77.34v7.41Z"/><path class="cls-23" d="M123.61,95.31v7.44h-.31l-6-3.53c2-1.32,4-2.63,5.91-4Z"/><path class="cls-23" d="M85.87,116.8v7.43h-.5l-8.28-1.92,8.1-5.56Z"/><path class="cls-23" d="M10.84,95.47v7.43h.35L16.8,101l-5.49-5.56Z"/><path class="cls-1" d="M123.61,112.58c-9.62,6.53-17.2,10.93-19.87,11.66-.87.24-2.85.75-4.17-.24a2,2,0,0,1-.63-.75,2.43,2.43,0,0,1-.13-1.26,4.09,4.09,0,0,1,.17-.75,4.55,4.55,0,0,0-.49-3,5.36,5.36,0,0,0-1.69-1.78,11,11,0,0,0-5.09-1.84,21.14,21.14,0,0,0-5.89,0,28.77,28.77,0,0,0-7.53,1.86,23.61,23.61,0,0,0-5.56,3.18,10.73,10.73,0,0,0-3,3.21,6,6,0,0,0-1,3.06,4.69,4.69,0,0,0,.47,2.06,5.63,5.63,0,0,0,2.29,2.27,12.25,12.25,0,0,0,5.14,1.56,15.23,15.23,0,0,0,4.7.08,4,4,0,0,1,.72-.1,4.86,4.86,0,0,1,2.53.71c.79.4,1,.66,1.1.88a1.34,1.34,0,0,1,.12.66,1.63,1.63,0,0,1-.87,1.05c-.89.55-8.5,5-19,11.14Q39,130.59,11.87,115a3.12,3.12,0,0,1-1-2.56,3,3,0,0,1,1.41-2.18l2-1.2Q40,93.93,65.82,79.14"/><path class="cls-23" d="M65.82,69.31Q40,84.12,14.31,99.19l-2,1.2a3.06,3.06,0,0,0-1.41,2.18,3.12,3.12,0,0,0,1,2.56L66,136.39c10.47-6.11,18.09-10.59,19-11.14a1.61,1.61,0,0,0,.87-1,1.08,1.08,0,0,0-.12-.65c-.11-.23-.31-.5-1.1-.89a4.86,4.86,0,0,0-2.53-.71,4,4,0,0,0-.72.1,14.92,14.92,0,0,1-4.7-.08,12.25,12.25,0,0,1-5.14-1.56,5.63,5.63,0,0,1-2.29-2.27,4.8,4.8,0,0,1-.47-2.06,6,6,0,0,1,1-3.06,11,11,0,0,1,3-3.21,23.61,23.61,0,0,1,5.56-3.18,28.77,28.77,0,0,1,7.53-1.86,21.53,21.53,0,0,1,5.89,0,11,11,0,0,1,5.09,1.84,5.25,5.25,0,0,1,1.69,1.78,4.56,4.56,0,0,1,.49,3,4.09,4.09,0,0,0-.17.75,2.38,2.38,0,0,0,.13,1.27,2.05,2.05,0,0,0,.63.74c1.32,1,3.3.48,4.17.24,2.67-.73,10.24-5.13,19.87-11.66"/><path class="cls-24" d="M123.61,95.31c-9.62,6.54-17.2,10.93-19.87,11.67-.87.24-2.85.75-4.17-.24a2,2,0,0,1-.63-.75,2.46,2.46,0,0,1-.13-1.27A4.09,4.09,0,0,1,99,104a4.56,4.56,0,0,0-.49-3,5.27,5.27,0,0,0-1.69-1.77,11.11,11.11,0,0,0-5.09-1.85,21.94,21.94,0,0,0-5.89,0,29,29,0,0,0-7.53,1.87,23.25,23.25,0,0,0-5.56,3.18,10.61,10.61,0,0,0-3,3.21,6,6,0,0,0-1,3.06,4.69,4.69,0,0,0,.47,2.06A5.57,5.57,0,0,0,71.56,113a12.28,12.28,0,0,0,5.14,1.57,15.61,15.61,0,0,0,4.7.07,4.32,4.32,0,0,1,.72-.09,5,5,0,0,1,2.53.7c.79.41,1,.67,1.1.89a1.31,1.31,0,0,1,.12.66,1.63,1.63,0,0,1-.87,1c-.89.54-8.5,5-19,11.13L11.87,97.69a3.1,3.1,0,0,1-1-2.56A3.06,3.06,0,0,1,12.27,93c.4-.23,1.65-1,2-1.2Q40,76.68,65.82,61.88L85.44,73.29a5.63,5.63,0,0,0,3.8-.64,2.44,2.44,0,0,0,1-1.35,2.4,2.4,0,0,0,0-1,4.86,4.86,0,0,1,0-1.77,4.55,4.55,0,0,1,.65-1.65,5.71,5.71,0,0,1,2.62-2,11.82,11.82,0,0,1,3.12-1,16.64,16.64,0,0,1,3-.3,27.55,27.55,0,0,1,4.7.27,30.24,30.24,0,0,1,4.49,1,24.82,24.82,0,0,1,4.4,1.78,20.67,20.67,0,0,1,4,2.69,11.68,11.68,0,0,1,2.31,2.57,5.77,5.77,0,0,1,1.05,2.46,4.83,4.83,0,0,1-.47,3A5.45,5.45,0,0,1,118,79.43a12.23,12.23,0,0,1-4.21,1.46,12.28,12.28,0,0,1-2.27.39,17.86,17.86,0,0,1-2.65-.14c-.84-.07-1.52-.15-2.62-.19a5.57,5.57,0,0,0-1.53.11,2.72,2.72,0,0,0-1.3.61c-.09.1-.81.79-.56,1.46.13.35.72.65.73.65Z"/><path class="cls-25" d="M77.36,118.3v.94l-.21.2s-.18-.79-.18-.81A4,4,0,0,1,77.36,118.3Z"/><polygon class="cls-25" points="45.78 113.33 45.78 114.24 46.24 114.26 46.12 113.35 45.78 113.33"/><path class="cls-25" d="M64.66,125.61,46.2,114.94a.85.85,0,0,1,0-1.49l10.43-5.54a2.16,2.16,0,0,1,2.09,0l18.16,10.49a.91.91,0,0,1,0,1.58l-10.59,5.62A1.71,1.71,0,0,1,64.66,125.61Z"/><path class="cls-22" d="M64.66,124.69,46.2,114a.86.86,0,0,1,0-1.5L56.67,107a2.18,2.18,0,0,1,2.09,0l18.16,10.49a.91.91,0,0,1,0,1.58l-10.59,5.62A1.66,1.66,0,0,1,64.66,124.69Z"/><path class="cls-26" d="M63.85,123.55l-16.22-9.36a.79.79,0,0,1,0-1.35L57,107.75a1.85,1.85,0,0,1,1.85,0L74.77,117a.82.82,0,0,1,0,1.42l-9.44,5.17A1.41,1.41,0,0,1,63.85,123.55Z"/><path class="cls-27" d="M53.17,109.4l-1.51.82a.12.12,0,0,1-.17,0h0a.13.13,0,0,1,0-.17l1.51-.83a.13.13,0,0,1,.17,0h0A.13.13,0,0,1,53.17,109.4Z"/><path class="cls-27" d="M51.13,110.56l-.1,0a.13.13,0,0,1-.17,0h0a.12.12,0,0,1,0-.16l.1-.06a.13.13,0,0,1,.17,0h0A.12.12,0,0,1,51.13,110.56Z"/><path class="cls-27" d="M71.93,121.21,70.5,122a.47.47,0,0,1-.64-.19l0,0a.22.22,0,0,1,.1-.31l1.42-.78a.46.46,0,0,1,.63.19l0,0A.22.22,0,0,1,71.93,121.21Z"/><path class="cls-1" d="M55.58,51.76,3.32,82.69A2.2,2.2,0,0,1,0,80.8V47.33a9.35,9.35,0,0,1,4.59-8L56.21,8.73a2.56,2.56,0,0,1,3.86,2.2v33A9.15,9.15,0,0,1,55.58,51.76Z"/><path class="cls-7" d="M62.5,52.35,10.25,83.28a2.2,2.2,0,0,1-3.32-1.9V47.92a9.36,9.36,0,0,1,4.59-8.06L63.13,9.31A2.56,2.56,0,0,1,67,11.51v33A9.16,9.16,0,0,1,62.5,52.35Z"/><polygon class="cls-22" points="46.92 45.29 33.83 39.74 33.83 57.07 46.92 45.29"/><path class="cls-8" d="M53.13,88a12,12,0,0,0-.07,1.54,2,2,0,0,0,.46,1.16,2.91,2.91,0,0,0,.43.43,2.41,2.41,0,0,0,1.32.68,2.6,2.6,0,0,0,1.15,0,1.49,1.49,0,0,0,.93-.67,2.19,2.19,0,0,0,.15-1.49c0-.39-.13-.64-.2-1.07s-.1-.57-.16-.84Z"/><path class="cls-8" d="M62.15,86.35a1.13,1.13,0,0,0,.7,1.45,1.28,1.28,0,0,0,.57.14,1.46,1.46,0,0,0,.5-.12,2.39,2.39,0,0,1,1.11.05,4.67,4.67,0,0,1,.9.25,11.14,11.14,0,0,0,1.4.33,8.24,8.24,0,0,0,1.2.1,2.16,2.16,0,0,0,.85-.1,1.13,1.13,0,0,0,.58-.4,1,1,0,0,0,.18-.44,1,1,0,0,0-.18-.77,1,1,0,0,0-.7-.37L68,86c-.5-.2-1-.41-1.43-.61a1,1,0,0,1-.51-.47.68.68,0,0,1,0-.28Z"/><path class="cls-10" d="M61.81,67a.16.16,0,0,1,.11,0c.07,0,.1.06.18.1a.51.51,0,0,0,.21.09,1.15,1.15,0,0,0,.56,0,1.21,1.21,0,0,0,.72-.83.12.12,0,0,1,0-.09s0-.06.08-.06.1.24.11.34c.05.44,0,.67.05.89s.12.32.23.75a2.16,2.16,0,0,1,0,1.58,1,1,0,0,1-.57.49.83.83,0,0,1-.73-.08.89.89,0,0,1-.28-.41c-.39-1.1-.47-1.42-.47-1.42C61.84,67.7,61.65,67,61.81,67Z"/><path class="cls-9" d="M52.73,87.16a2.22,2.22,0,0,0,1.08,1.47,2.08,2.08,0,0,0,.8.2,2.84,2.84,0,0,0,1.74-.34,2.74,2.74,0,0,0,.92-.84.21.21,0,0,0,0-.12.44.44,0,0,0,0-.09c0-.14.18-3.21.28-4.51.08-1.06.14-1.94.32-3.06.07-.53.17-1.09.23-1.93,0-.34,0-.71.08-1.34,0-.22,0-.54.1-1s.13-.52.17-.52.15.19.34.64c.11.26.24.53.33.8.25.65.38.82.7,1.54s.5,1.25.67,1.72a25.57,25.57,0,0,1,1.14,4.54c.07.56.22,1.1.28,1.65a.34.34,0,0,0,0,.14.77.77,0,0,0,.35.38,2.32,2.32,0,0,0,1.34.11,4.43,4.43,0,0,0,1.37-.45,3.87,3.87,0,0,0,.93-.77.38.38,0,0,0,.09-.17.29.29,0,0,0,0-.19c-.08-.34-.06-.71-.14-1.06-.19-.79-.34-2.39-.43-3.23s-.07-1-.17-1.83c0-.11-.09-.73-.16-1.16A14.77,14.77,0,0,0,64.3,75c-.19-.51-.64-1.75-1.12-3.24s-.45-1.64-.74-2.35a7,7,0,0,1-.5-1.42,3.56,3.56,0,0,1-.12-1.35c0-.18.11-.43,0-.49s-.26.08-.32.13a7.46,7.46,0,0,1-1.79.7,6.36,6.36,0,0,1-1.72.27,16.33,16.33,0,0,1-5.13-.79,6.13,6.13,0,0,0-.56,1.91,8.48,8.48,0,0,0-.06.87c0,.36,0,.92,0,1.6,0,1,.09,1.32.17,2.59,0,.3,0,.32.1,2.51s.08,2,.08,2.19c0,1.56,0,2.63,0,3.62C52.65,83,52.67,84.81,52.73,87.16Z"/><path class="cls-14" d="M61,52.43l.34.54c0,.11,0,.29.07.52.08.59.15,1,.17,1.13.15,1,.19,1.82.47,4.3a2,2,0,0,0,0,.22q.83,3.47,1.67,7a1.23,1.23,0,0,1-.8,1,1.26,1.26,0,0,1-1.09-.16c0-.23,0-.46-.07-.69q-.53-6.77-1-13.52C60.78,52.62,60.88,52.53,61,52.43Z"/><path class="cls-15" d="M52.75,67c4.68.74,7.14.29,8.89-.76l.11-.06q-.12-5.62-.25-11.24A12.52,12.52,0,0,0,61.36,53,3.53,3.53,0,0,0,61,51.7a2.8,2.8,0,0,0-.79-1l-.12-.09c-.66-.46-4.41.12-4.69.17A14,14,0,0,0,53,52.4a14.33,14.33,0,0,0-1.52,1.43,1.38,1.38,0,0,0-.19.25,2,2,0,0,0,0,1.67c.28,1.32.55,2.64.83,4,.11,2.37.23,4.74.34,7.11Z"/><path class="cls-10" d="M53,67.17a9,9,0,0,1,1.14-1.51.82.82,0,0,1,.75.1,4.17,4.17,0,0,0,.43.1c.36,0,.4,0,.65,0a2.48,2.48,0,0,1,.52.2,4.44,4.44,0,0,1,.44.22,1.86,1.86,0,0,1,.63.48,1.63,1.63,0,0,1,.29.58,1.46,1.46,0,0,1,0,1.18.93.93,0,0,1-.32.32,1.08,1.08,0,0,1-.88,0c-.12-.08-.13-.15-.23-.24s-.25-.21-1.11-.21a8,8,0,0,1-.94,0,1.9,1.9,0,0,1-.69-.23,1.18,1.18,0,0,1-.47-.49A1.36,1.36,0,0,1,53,67.17Z"/><path class="cls-14" d="M52.16,67.29a.65.65,0,0,0,.43.15.79.79,0,0,0,.51-.24c.14-.13.12-.17.32-.46a3.73,3.73,0,0,1,.53-.67c.15-.13.21-.16.25-.27a.61.61,0,0,0-.13-.52l-3-2.86a.28.28,0,0,1-.17-.15.51.51,0,0,1,.15-.59c1.12-1.56,2.26-3.11,3.38-4.67a2.75,2.75,0,0,0-1.81-3.34c-.74-.14-1.26-.14-1.94,1.52-1.14,2.06-2.26,4.12-3.4,6.19a3.11,3.11,0,0,0,.14,2.09,2.62,2.62,0,0,0,.41.6A26.76,26.76,0,0,0,52.16,67.29Z"/><path class="cls-12" d="M58.43,61.54l1.08,2,.6-2.75c-.48-2.09-1-4.17-1.45-6.25.08-.28.16-.57.23-.85-.28-.27-.56-.56-.83-.84,0,.48-.09,1-.12,1.44a5.14,5.14,0,0,0,.42.38Q58.39,58.13,58.43,61.54Z"/><path class="cls-14" d="M56.89,53.85a3.66,3.66,0,0,0,.42.32c.19.13.29.19.34.18.21-.05.21-.64.22-1a5.57,5.57,0,0,0,0-.77.34.34,0,0,0,0-.09c0-.12-.21-.16-.31-.19A3.23,3.23,0,0,1,57,52a3,3,0,0,1-.54-.39,5.46,5.46,0,0,1-.76-.83.87.87,0,0,1-.22-.43v-.27c0-.28,0-.37,0-.39s-.17.11-.25.22a1.69,1.69,0,0,0-.23.63,2.31,2.31,0,0,0-.08.77,1.39,1.39,0,0,0,0,.28,2.59,2.59,0,0,0,.75,1.29,5.2,5.2,0,0,0,.65.57C56.59,53.63,56.6,53.62,56.89,53.85Z"/><path class="cls-14" d="M58.86,53.52s.06,0,.09,0,0-.07,0-.1c0-.19,0-1.83,0-2.14l-.54-.13L58,52.34a.24.24,0,0,0,0,.1C58,52.74,58.63,53.36,58.86,53.52Z"/><path class="cls-10" d="M55.44,49.63a2.67,2.67,0,0,0,0,.82,2,2,0,0,0,.45.73,4.3,4.3,0,0,0,.69.65,4.36,4.36,0,0,0,.78.52.72.72,0,0,0,.45.1.64.64,0,0,0,.4-.35,1.52,1.52,0,0,0,.24-.82,2.33,2.33,0,0,0,.61,0,1.15,1.15,0,0,0,.56-.08,1.07,1.07,0,0,0,.38-.43,2.63,2.63,0,0,0,.27-.66c.15-.52.25-.91.26-1,.13-.54.19-.8.26-1.14.16-.74.24-1.12.26-1.28a10.91,10.91,0,0,0,.08-1.37c0-.6,0-.7-.07-.8-.24-.37-.86-.37-1.27-.35-.87,0-4.48.21-5,2a1.92,1.92,0,0,0,0,1.16,7.35,7.35,0,0,0,.53,1,1.12,1.12,0,0,1,.14.26A2,2,0,0,1,55.44,49.63Z"/><path class="cls-8" d="M61.15,46.34c.18-.42.32-.78.42-1.06a2.65,2.65,0,0,0,.2-.94,2.16,2.16,0,0,0-.2-.71,2.76,2.76,0,0,0-.92-1c-.68-.52-1.2-.92-1.57-1.18,0,0,0,.27-.22.32a.29.29,0,0,1-.16,0c-.25-.08-.35-.3-.54-.47a1.11,1.11,0,0,0-.56-.22.71.71,0,0,1,.08.19.49.49,0,0,1,0,.3,1.06,1.06,0,0,1-.43.08,1.17,1.17,0,0,1-.33-.07,1.8,1.8,0,0,1-.31-.15l-.2.08a4.58,4.58,0,0,0-2.2,2.35c-.1.28-.15.49-.17.54a4.12,4.12,0,0,0,.09,2,5.65,5.65,0,0,0,.36,1,8.12,8.12,0,0,0,.84,1.46l.1,0a1.12,1.12,0,0,0,0-.36,1.68,1.68,0,0,0-.28-.62c-.34-.6-.36-.69-.37-.78a.81.81,0,0,1,.13-.53.64.64,0,0,1,.33-.28.59.59,0,0,1,.55.06c.16.1.21.27.31.59a3.13,3.13,0,0,1,.1.44c0,.11,0,.23.09.23s.26-.47.33-.69a8.84,8.84,0,0,1,.27-1,1.56,1.56,0,0,1,.67-.65.76.76,0,0,1,.67,0,.55.55,0,0,1,.24.29,2.07,2.07,0,0,0,.23-.32c.16-.27.2-.43.25-.43s.09.14.13.73l0,.08a1.93,1.93,0,0,1,.26-.42,1.63,1.63,0,0,1,.61-.52.88.88,0,0,1,.65-.1.84.84,0,0,1,.49.53C61.1,45.55,61.13,45.94,61.15,46.34Z"/><path class="cls-28" d="M137.37,29.3l-2.56,9.54,1.65,1.06S141.72,30,141.58,30,137.37,29.3,137.37,29.3Z"/><path class="cls-8" d="M146.27,57.43A1.27,1.27,0,0,1,145.06,56l6.94-4.1h.53s.8.12.89.31a11.16,11.16,0,0,1-.07,2.35c-.08.34-1,.66-1.07.73s-1.93,1-1.93,1a22.17,22.17,0,0,1-2.76,1.17A3.57,3.57,0,0,1,146.27,57.43Z"/><path class="cls-29" d="M136.94,26.91l-.29,1.6a.54.54,0,0,0,.15.71,2.79,2.79,0,0,0,1.08.72,60.34,60.34,0,0,0,9.41,1.49c1.15-.09,1.13,0,1.15-.29,0-.83,0-2.06,0-2.06s.51-13-.17-15.26a5,5,0,0,0-.61-1.25,8.94,8.94,0,0,0-2.15-2C144,9.53,143.14,9,143.14,9a.29.29,0,0,0-.2-.06l-5.74-.18a1.51,1.51,0,0,0-.92.74,3.51,3.51,0,0,0-.79,2.22,12.2,12.2,0,0,0,.14,1.9l.21,1.39.57,3.7.19.89.61,4.45,0,2Z"/><path class="cls-15" d="M139.5,10.42a8.53,8.53,0,0,0-.44.85,4.9,4.9,0,0,0-.24,1.65c0,1.2.07,9.56.24,10.11s3.4.3,3.4.3-.06-9.32.23-10.5c.06-.21.33-1.41.33-1.41V10.9Z"/><path class="cls-10" d="M138.68,16.86l2.81-.18s.34-.08.58.48a13.4,13.4,0,0,0,.89,1.57s.16.71-.39.38Z"/><path class="cls-17" d="M146.23,12.32s1-.12,1.42.35a2.87,2.87,0,0,1,.57,1.17,2.51,2.51,0,0,1,.07,1c-.07.56-.28,1.56-.28,1.56a4.93,4.93,0,0,1-.24,1c-.18.45-1.34,3.51-1.34,3.51s-.68,2.12-1.58,2.37a3.63,3.63,0,0,1-3.08-.87c-1.21-.87-3.06-2.5-3.06-2.5l-1.18.28-1.86.31a3.34,3.34,0,0,1-2.27-.28,1.54,1.54,0,0,1-.77-1.35,7.51,7.51,0,0,1,.24-1.42c.21-.7,2.35-6.84,2.35-6.84a3.22,3.22,0,0,1,1.06-1.27,3.21,3.21,0,0,1,.36-.18l-.58.78-.39.75-.16.69v1l.1,1,.22,1.51.06.43,1.25.89a8.88,8.88,0,0,1,.81.5c0,.05.21.1.21.1l.56.06,3.9,2.29s.63.32.7-.25.79-3.95.79-3.95.29-1.6,1-2.08S146.23,12.32,146.23,12.32Z"/><path class="cls-10" d="M133.71,17.12l0-.36,1.63-1.5s.84-.27,1.27.1,1.42,1.17,1.42,1.17l.28.26s-1.24-.22-1.34,1.41l-1.46-.57a3.37,3.37,0,0,0-1.7-.34C133.75,17.29,133.7,17.22,133.71,17.12Z"/><path class="cls-10" d="M139.77,11v.08a2.45,2.45,0,0,0-.05.64,1.4,1.4,0,0,0,.15.55.76.76,0,0,0,.6.41,2.27,2.27,0,0,0,1.51-.3,10.08,10.08,0,0,0,1-1,2.44,2.44,0,0,0,.33-.92,2.3,2.3,0,0,0-.16-.87l-.41-1.27-.35-1,.1-.37.18-.63,0-1.27s-.77-.61-.82-.63-2.08-.58-2.15-.58-3.35,1-3.35,1l.1,1.12s.28,1,.48,1.43a11.46,11.46,0,0,1,.47,1.06c.1.32.43,1.64,1,1.94a1.3,1.3,0,0,0,.91.18l.42,0Z"/><path class="cls-8" d="M141.15,6.68c0-.09,0-.82,0-1.1a.55.55,0,0,1,.47-.53c.24,0,.44,0,.62.18s.23.2.26.43a1.38,1.38,0,0,1,0,.64c-.06.23-.14.43-.14.45a1.58,1.58,0,0,0,0,.52,4,4,0,0,0,.28.5s0-.64,0-.68a7,7,0,0,1,.16-.84c.1-.34.51-1.4.51-1.4a4,4,0,0,0,0-2.27A3.06,3.06,0,0,0,142.46,1a2.51,2.51,0,0,0-1.15-.86,4.85,4.85,0,0,0-3.13.18c-1.06.51-2.92,1.36-3.28,2.61,0,0,.77-.83.89-.82s.1,0,.1,0a2.56,2.56,0,0,0-.65,1.34,2.66,2.66,0,0,0,.3,1.6l.75,1.29.9-.75,1.88-1.16s.3-.26.69.15a5.32,5.32,0,0,1,1.24,2s0,.07.06.06S141.15,6.75,141.15,6.68Z"/><path class="cls-30" d="M140,6.43h-1.13a1.06,1.06,0,0,0-.7.2c-.13.09-.21.41-.26.45a.43.43,0,0,1-.16,0c-.08,0-.17-.18-.26-.32-.19-.32-.85-.2-1.37-.2s-.27.34-.25.42.16.22.48.6a.79.79,0,0,0,.58.3,1.55,1.55,0,0,0,.53-.07.39.39,0,0,0,.26-.35.25.25,0,0,1,.14-.21.48.48,0,0,1,.31,0,4.91,4.91,0,0,1,.49.51A.51.51,0,0,0,139,8a5.09,5.09,0,0,0,.69,0,.78.78,0,0,0,.76-.66V6.63l.69-.56V5.68l-1,.75Zm-3.78.33h.18l-.24.21C136.11,6.89,136.06,6.77,136.22,6.76Zm1.22.8a1.5,1.5,0,0,1-.65,0,1.38,1.38,0,0,1-.41-.29l-.07-.1.45-.44h.29s.23,0,.36.34S137.51,7.53,137.44,7.56Zm2.72-.15a.65.65,0,0,1-.37.31,1.83,1.83,0,0,1-.74,0c-.23,0-.61-.52-.61-.52L138.27,7c-.16-.2.35-.31.65-.37a9.29,9.29,0,0,1,1,0c.17,0,.24.13.29.32A.73.73,0,0,1,140.16,7.41Z"/><path class="cls-30" d="M142.91,5.82l-.11-.09h-.29l0,.17v.17H143Z"/><path class="cls-31" d="M141.62,61.41s7.76-4,7.86-4,.52-.28.61-.55A5.62,5.62,0,0,0,150.2,55l-.72.21v1.25l-7.78,4Z"/><path class="cls-32" d="M158.21,59.83c-.17-1.39-1.4-9.17-1.4-9.17l-.25-.72-10.19,6.11,0,.89-1.55,10.41s0,1.25,1,.82,11.87-6.66,11.87-6.66S158.39,61.22,158.21,59.83Zm-.93,1-11.34,6.32c-.51.28-.31-.33-.31-.33l1.45-10.09,6.27-4.12,2.7-1.62s1.17,7.69,1.38,8.58A1.33,1.33,0,0,1,157.28,60.84Z"/><path class="cls-33" d="M153.28,52.81l3.84-2.42s.65-.24.56-1.37-1.41-11-1.41-11a8.3,8.3,0,0,1,.2-1.22c.17-.67-.12-.78-.12-.78l-1,1.37.56,10.85-2.58,2.9Z"/><path class="cls-34" d="M153.58,51.44l3.1-2a8.32,8.32,0,0,0,0-1.19c-.06-.55-.88-8.87-.88-8.87a10,10,0,0,1,.14-2.17,4.76,4.76,0,0,1,.61-1.17l-7.3-4.16,1.17,3.29,2.06,10-.63,4.41Z"/><path class="cls-33" d="M135,39s-.2-1.93-.2-1.93a23.26,23.26,0,0,1-.73-5.52,8.64,8.64,0,0,1,.31-2.1l-3.71-2.11-1.28,8.31Z"/><path class="cls-34" d="M134.13,38.18l-.51-5.63a5.14,5.14,0,0,1,0-2.19,5.28,5.28,0,0,1,.68-1.07l-3.52-1.89-.55,8.68Z"/><path class="cls-8" d="M133.51,71.6a1.41,1.41,0,0,1-1.38-1.45,1.22,1.22,0,0,1,.33-1.05c.46-.39,4.11-3.34,4.11-3.34L140,66s1.07,0,1.17.22a12,12,0,0,1-.32,2.44c-.08.34-1,.67-1.11.74s-2,1-2,1a24,24,0,0,1-2.88,1.16A3.9,3.9,0,0,1,133.51,71.6Z"/><path class="cls-8" d="M125.21,67a1.29,1.29,0,0,1-1.07-1.48,1.1,1.1,0,0,1,.43-.91c.46-.31,4.09-2.55,4.09-2.55l3.07.68s1,.16,1,.34a11.64,11.64,0,0,1-.59,2.17c-.11.3-1,.49-1.08.54s-1.92.63-1.92.63a21.62,21.62,0,0,1-2.72.71A3.73,3.73,0,0,1,125.21,67Z"/><path class="cls-35" d="M136.13,66.37a3.85,3.85,0,0,0,5,0l1.33-8.12L137.15,61Z"/><path class="cls-35" d="M130.1,58.21l-1.5,3.91s0,2.61,4,1.81l1.51-3.42Z"/><path class="cls-8" d="M114.69,54.17l-.9.83s-.3.42-.16.73a1.08,1.08,0,0,0,1.06.62,6.57,6.57,0,0,0,1.87-.45,14.13,14.13,0,0,0,1.36-.87c.09-.1,1.12-1,1.12-1l.19-1Z"/><path class="cls-10" d="M116,52.92c-.49.47-1.81,1.53-1.57,1.88a.73.73,0,0,0,.67.37,2.15,2.15,0,0,0,1.34-.23,8.09,8.09,0,0,0,1.72-1,7.71,7.71,0,0,0,.57-.55,3,3,0,0,0,.17-.69l-2.25-1.1A2.92,2.92,0,0,1,116,52.92Z"/><path class="cls-8" d="M116.74,56.23s-.54.5-.58.83,0,.69.45.81a2.74,2.74,0,0,0,1.26.11,10.94,10.94,0,0,0,1.45-.46,11.63,11.63,0,0,0,2.12-1.29,2.18,2.18,0,0,0,.41-1.66l-.4-.18Z"/><path class="cls-10" d="M116.8,56.21a.34.34,0,0,0,0,.45,1.21,1.21,0,0,0,.64.24,1.58,1.58,0,0,0,.81,0,4.71,4.71,0,0,0,1.07-.43A7.12,7.12,0,0,0,121,55.14l.56-.68S119,52.82,119,52.84s0,1.09-.31,1.39Z"/><path class="cls-36" d="M120.35,30.22l1.22-.67a19.13,19.13,0,0,1,.28-3.78,22.64,22.64,0,0,1,.75-2.59l.94-.84-.24,2.29-1,4.31L123.5,32Z"/><path class="cls-3" d="M128.06,23.42s-1.78-1.47-2.83-1.31a2.36,2.36,0,0,0-2.18,1.68c-.22,1-.73,3.12-.73,3.12s-.63,2-.17,2.84,1.49,2.6,1.49,2.6l5.85,3.28.78-10.28s-.72-.65-1.47-1.29Z"/><path class="cls-36" d="M127.57,34.69l1.43-.86-1.2-7s.06-1.07.73-1.42,1.41-.49,1.8.09A4.15,4.15,0,0,1,131,28c.14,1.66.28,6.25.28,6.25a.9.9,0,0,1-.06.26,6,6,0,0,1-1.2,1.55C129.69,36.18,127.57,34.69,127.57,34.69Z"/><path class="cls-8" d="M127.49,23.2l1.91-.86s-.89-.81-.86-1.07l1,.65.72-.29s-1.41-.21-1.83-2.36-.37-2.9-1.09-3.55-2.63-1.47-3.81-1a3.76,3.76,0,0,0-2.16,2.17c-.25.76-.64,3.29-.64,3.29s-.32,1.06-1,1.22a1.3,1.3,0,0,0,1.3-.22,3.29,3.29,0,0,1-.83,1.14L121.82,24l1.25-1Z"/><path class="cls-10" d="M124.19,23.14c0,.06-.19,1.15.37,1.42a1.47,1.47,0,0,0,1.13,0,6.38,6.38,0,0,0,1.51-1.91,14.63,14.63,0,0,0,.68-2.54c0-.12.38-1.65-.2-2.07s-.74-.51-1.6.16-2.22,1.54-2.22,1.54l-.53,2.31.06.29Z"/><path class="cls-30" d="M128.22,19.33a3.44,3.44,0,0,0-1.72.29c-.07,0-.12.19-.17.22a.31.31,0,0,1-.35,0,1.34,1.34,0,0,0-.61-.19,6.08,6.08,0,0,0-1.43.27c-.55.15-.24.67-.24.67L124,21c.17.22.6.25,1.12.2s.9-.94.9-.94h.34a1,1,0,0,0,.17.39c.15.24.7.26,1.09.16a1.44,1.44,0,0,0,.68-.5S128.7,19.4,128.22,19.33Zm-2.66,1a1,1,0,0,1-.71.65c-.33,0-.7.09-.86-.68,0,0,0-.24.38-.27s1.19-.19,1.19-.19A.42.42,0,0,1,125.56,20.34ZM128,20.1c-.26.28-.38.45-.66.48a.77.77,0,0,1-.69-.28.3.3,0,0,1,.14-.51c.4-.14.93-.43,1.21-.25S128.29,19.82,128,20.1Z"/><path class="cls-37" d="M138.47,61.79c2-.91,13.65-7.82,14.43-8.39s.76-1.26.79-2.67L99.45,39.6s-.49,1.62.3,2.31,34.36,20,34.36,20a6.55,6.55,0,0,0,4.36-.09c2-.91,14.28-8.13,14.44-8.27a5.38,5.38,0,0,0,.78-2.79Z"/><path id="стол" class="cls-22" d="M134.48,60.72a4.87,4.87,0,0,0,3.84-.14c2.36-1.2,14.45-8.2,14.45-8.2s2.78-2-1.34-4.41c-1.15-.67-21.16-12.1-21.16-12.1l-.49.37,0-.67-15.19-8.66L99.72,38.61s-1.17,1.49.79,2.61Z"/><path class="cls-38" d="M141,43.91l-6.45,3-.61.56-.28.49s-4.15-2.38-4.06-2.46.14-8.18.14-8.18Z"/><path class="cls-39" d="M134.53,47.12a1.22,1.22,0,0,1-.33.76c-.19.17-.69.26-.63-.25a1,1,0,0,1,.58-.77c.07,0,4.21-1.74,4.21-1.74Z"/><path class="cls-40" d="M138.28,50.29a.51.51,0,0,0,.23.67c.33.21.93.62,1,.62a.92.92,0,0,0,.82,0,7,7,0,0,0,1.09-.93,4.9,4.9,0,0,1,2.09-1.19c1.25-.31.77,0,.77,0a28.31,28.31,0,0,0-3.62,2.26,1.22,1.22,0,0,1-1.22.05,9,9,0,0,1-1.2-.81.73.73,0,0,1-.08-.66Z"/><path class="cls-7" d="M129.31,49.17l.82-.31.1-12.07a1.86,1.86,0,0,0-1.11-1.71C127.49,34.34,113.4,26,113.4,26s-.76-.09-.94.35Z"/><path class="cls-41" d="M112.24,26.78s-.09-.93.78-.39,16.07,9.29,16.07,9.29.67.15.62,1.69-.08,11.92-.08,11.92.08.56-1.43-.39-15.08-8.73-15.08-8.73-.89-.33-.88-2Z"/><path class="cls-42" d="M121.1,45.34,125,47.7l-3.07,1.87-.67.15-1.14-.85Z"/><path class="cls-7" d="M120.77,50l-3.66-2.25s-.52-.14-.26-1.88,1-8.63,1.08-9.34c0,0,0-.06,0,0l3.89,2.33-1.14,10.48Z"/><path class="cls-43" d="M121.6,39.08c.1-.33.46-.34.31.12,0,.26-.09.79-.09.79l-.9,9.16s-.1.61.59.32,3.27-1.77,3.27-1.77.23-.12.25.11c0,0,0,.19-.37.46S122,49.8,122,49.8a3.55,3.55,0,0,1-.66.28c-.18,0-.83.13-.83-.54s.17-2.06.17-2.06l.83-7.61A6.32,6.32,0,0,1,121.6,39.08Z"/><path class="cls-12" d="M144.23,44c3.24,1.85,5.79,3.31,7,4a2.6,2.6,0,0,0,2.47-3.24s-1.26-5.45-1.26-5.52-1.39-5-2.2-6.12a16.28,16.28,0,0,0-1.73-2l-8.83.69a9.17,9.17,0,0,0,2.12,6.17C142.31,39,143.53,42.12,144.23,44Z"/><path class="cls-11" d="M142.81,36.08a20.84,20.84,0,0,1,2.84-3.78,2.75,2.75,0,0,1,1.94-.82,2.52,2.52,0,0,1,1.82.59c.26.31,0-.89-.15-1.28a4.89,4.89,0,0,0-2.61-1.71,13.52,13.52,0,0,0-2.46-.23h-.3l-.87,5A4.37,4.37,0,0,0,142.81,36.08Z"/><path class="cls-44" d="M142.47,32.31s-1.7,1,0,3.26c.15.2.34.7-.12.24s-1.86-1.8-1.89-3,1.8-.91,1.8-.91S142.91,32,142.47,32.31Z"/><path class="cls-45" d="M150.91,47.78l.54.31a8.78,8.78,0,0,1,1.2.84,2.63,2.63,0,0,0,.48-1.3,6.47,6.47,0,0,1,0-.93Z"/><path class="cls-44" d="M139.31,41l2.08-3.92-1.81-5.19-3.18,7.44Z"/><path class="cls-11" d="M138.17,36.85a1.57,1.57,0,0,0,1.45-1.62s3.12,3.77,3.82,4.66c0,0,.3.13.53-.47s2-6.22,3-6.62,1.47-.24,1.71-.07a2.43,2.43,0,0,1,1.09,2.18,6.57,6.57,0,0,1-.58,2.45c-.38.76-2.81,6.29-3.73,6.84,0,0-1.08,1.13-2.14.57a9.7,9.7,0,0,1-2.84-3.14C140,40.75,138.17,36.85,138.17,36.85Z"/><path class="cls-10" d="M134.86,34a2.19,2.19,0,0,0-.8.35c-.22.22-.72,0-.39-.4a3.69,3.69,0,0,1,1.94-.9,2.55,2.55,0,0,1,1.85.48,13.24,13.24,0,0,0,1.63,1.24c.12.08.87.91.87.91l-1.39,1.28-.32-.4s-1,0-1.26-.37-.66,0-.93.23-.69,0-.91-.65A4.1,4.1,0,0,1,134.86,34Z"/><path class="cls-10" d="M143,34.06s1-2.93,2-3.68a5.52,5.52,0,0,0-.83-.8c-.53-.41-.52-.61-.52-.61l-.15-3.06-6.64.48L138,31.31s.3,1.6,1.5,1.59a2.52,2.52,0,0,0,1.76-.62s.56-.46.81,0a1.54,1.54,0,0,1,.11.65,1.08,1.08,0,0,0,.37.86C142.92,34.1,143,34.06,143,34.06Z"/><path class="cls-8" d="M135.92,25.82A3.35,3.35,0,0,1,137.36,27c.36.34,1.31,0,1.31,0a2.12,2.12,0,0,1,1.16-.45,1.27,1.27,0,0,1,1.32.8,8.76,8.76,0,0,1,.39,1.39c0,.26.22-.07.22-.1s0-.7.37-.93a.7.7,0,0,1,1.06.14c.2.41-.09.72.09,1a5.47,5.47,0,0,0,.73.76s.23.4.19-.2a8,8,0,0,1,0-1.66,7.29,7.29,0,0,0,0-2.61A3.52,3.52,0,0,0,142,22.76a15.4,15.4,0,0,0-1.81-.51l.1.27-1.47-.11.17.46-1.46,0,.59.51s-1.46.16-1.65.49l.75,0-.88.69.58,0-1.33,1.15Z"/></g></g></svg>