<svg xmlns="http://www.w3.org/2000/svg" viewBox="0 0 256.91 170.66">
  <defs/>
  <defs>
    <linearGradient id="Безымянный_градиент" x1="219.4" x2="241.62" y1="1116.04" y2="1085.52" gradientTransform="translate(0 -1030.16)" gradientUnits="userSpaceOnUse">
      <stop offset=".18" stop-color="#fff"/>
      <stop offset=".64" stop-color="#f2f2f2"/>
    </linearGradient>
    <linearGradient id="Безымянный_градиент_2" x1="215.67" x2="241.46" y1="1081.86" y2="1043.49" gradientTransform="translate(0 -1030.16)" gradientUnits="userSpaceOnUse">
      <stop offset=".18" stop-color="#fff"/>
      <stop offset=".47" stop-color="#f2f2f2"/>
    </linearGradient>
    <style>
      .cls-1{fill:#f6f5fb}.cls-2{fill:#004967}.cls-3{fill:#005a89}.cls-7{fill:#00b1dc}.cls-8{fill:#350d9a}.cls-9{fill:#231c64}.cls-10{fill:#ffc4a1}.cls-11{fill:#00cfef}.cls-12{fill:#00daf4}.cls-14{fill:#e3eff8}.cls-15{fill:#f3f7f9}.cls-16{fill:#d7e4ec}.cls-17{fill:#5812b7}.cls-22{fill:#fff}.cls-25{fill:#45108b}.cls-27{fill:#7540db}.cls-30{fill:#00bfed}.cls-33{fill:#f7f5ff}.cls-34{fill:#dad6ee}.cls-35{fill:#0ce}.cls-36{fill:#004a69}.cls-44{fill:#00c6e5}
    </style>
  </defs>
  <g id="Слой_2" data-name="Слой 2">
    <g id="Слой_1-2" data-name="Слой 1">
      <g id="Слой_3" data-name="Слой 3">
        <path d="M176.44 97.13a7.3 7.3 0 00-3.38-2.21 14.06 14.06 0 00-3.78-.83c-.62 0-1.23-.07-1.85-.06H165a11.41 11.41 0 01-1.65-.18 4.78 4.78 0 01-2.42-.86 1.52 1.52 0 01-.57-.71c-.16-.74.79-1.74 2.4-2.5l17.36-10.06-57.81-33.42-57.7 33.34.2.12Q39.5 94.27 14.28 109.1l-2 1.2a3 3 0 00-1.41 2.18 3.13 3.13 0 001 2.56Q39 130.63 65.93 146.28c10.5-6.14 18.11-10.59 19-11.14a1.63 1.63 0 00.87-1 1.24 1.24 0 00-.12-.66c-.1-.22-.31-.48-1.1-.88a4.81 4.81 0 00-2.53-.71 3.57 3.57 0 00-.72.1 15.43 15.43 0 01-4.7-.08 12.41 12.41 0 01-5.14-1.56A5.69 5.69 0 0169.2 128a4.74 4.74 0 01-.47-2.06 6 6 0 011-3.06 10.69 10.69 0 013-3.21 23.42 23.42 0 015.56-3.18 28.74 28.74 0 017.53-1.86 20.76 20.76 0 015.89 0 11 11 0 015.09 1.84 5.33 5.33 0 011.69 1.78 4.53 4.53 0 01.49 3 3.72 3.72 0 00-.17.75 2.46 2.46 0 00.13 1.26 2 2 0 00.63.75c1.32 1 3.3.48 4.17.24 2.5-.69 9.32-4.59 18.09-10.46l20.78-12.22c2-.86 3.91-.36 4.54.77a2.48 2.48 0 01.1 1.91 4.85 4.85 0 00-.08 2.11 4.75 4.75 0 00.34 1.09 5.48 5.48 0 001.09 1.55 7.11 7.11 0 002.85 1.59 18 18 0 004.53.92 26 26 0 008.41-.88 27.35 27.35 0 006-2.27 19.6 19.6 0 003.16-2.08 14.8 14.8 0 002.34-2.34 7.23 7.23 0 001.31-2.22 5.12 5.12 0 000-3.37 4.37 4.37 0 00-.76-1.22z" class="cls-1"/>
        <path d="M178.57 89.42v-7.88l-3.33 2.2z" class="cls-2"/>
        <path d="M181 62l-62.91 25.78 5.61 15 20-11.61c2-.85 3.9-.36 4.54.77a2.55 2.55 0 01.09 1.92 5.17 5.17 0 00-.07 2.11 4.75 4.75 0 00.34 1.03 5.35 5.35 0 001.08 1.51 7.34 7.34 0 002.86 1.59 19 19 0 004.53.92 25.66 25.66 0 008.41-.89 27.83 27.83 0 006-2.26 20.74 20.74 0 003.15-2.09 14.51 14.51 0 002.37-2.29 6.7 6.7 0 001.31-2.23 4.85 4.85 0 000-3.36 4.53 4.53 0 00-.75-1.27 7.31 7.31 0 00-3.39-2.2 13.19 13.19 0 00-3.77-.83 16.26 16.26 0 00-1.85-.07h-2.44a11.27 11.27 0 01-1.64-.18 4.77 4.77 0 01-2.42-.85 1.55 1.55 0 01-.57-.72c-.16-.73.79-1.74 2.4-2.49l17.32-10V62z" class="cls-2"/>
        <path d="M123.7 95.46l20-11.6c2-.86 3.9-.36 4.54.76a2.55 2.55 0 01.09 1.92 5.17 5.17 0 00-.07 2.11 4.75 4.75 0 00.34 1.09 5 5 0 001.08 1.51 7.22 7.22 0 002.86 1.59 18 18 0 004.53.92 26 26 0 008.41-.88 28.06 28.06 0 006-2.27 20 20 0 003.15-2.08 13.81 13.81 0 002.37-2.34 6.93 6.93 0 001.31-2.19 4.88 4.88 0 000-3.37 4.13 4.13 0 00-.75-1.26 7.27 7.27 0 00-3.39-2.21 13.9 13.9 0 00-3.77-.83c-.75-.07-1.38-.07-1.85-.07h-2.44a12.84 12.84 0 01-1.64-.17 4.78 4.78 0 01-2.42-.86 1.55 1.55 0 01-.57-.72c-.16-.73.79-1.73 2.4-2.49L181.2 62l-57.81-33.44L65.7 61.9z" class="cls-3"/>
        <path d="M252.84 119.39v7.3l-4.52-3.89 4.04-3.92.48.51z" class="cls-2"/>
        <path d="M256.91 137l-50.19-29-58.24 44.29a13.46 13.46 0 00-3.39 2.2 4.58 4.58 0 00-.76 4.64 7.14 7.14 0 001.32 2.22 13.64 13.64 0 002.34 2.34 20 20 0 003.15 2.08 26.83 26.83 0 006 2.26 25.66 25.66 0 008.41.89 18 18 0 004.53-.92 7.3 7.3 0 002.85-1.59 5.12 5.12 0 001.09-1.51 5.29 5.29 0 00.34-1.09 4.85 4.85 0 00-.07-2.11 2.46 2.46 0 01.09-1.92c.63-1.13 2.55-1.63 4.54-.77l20 11.61z" class="cls-1"/>
        <path d="M182.9 122.42s12.64-10.48 12.17-11.38a5.5 5.5 0 00-2.21-2.12 12.32 12.32 0 00-4.26-1.42 11.18 11.18 0 00-2.3-.39c-.68 0-1.36.06-2.68.16a16.43 16.43 0 01-2 .12 9.7 9.7 0 01-1.7-.17 3.86 3.86 0 01-.73-.23 1.41 1.41 0 01-.93-1.37v-.48c6.55-3.75 21.91-10.91 21.91-10.91l51 29.19c2 1.15 2.26 5.17.32 6.28-17.51 10-34.06 19.66-51.58 29.66a3 3 0 01-3 0l-18.5-10.63a3.55 3.55 0 00-.44-.21c-1.92-.71-3.72-.21-4.33.88a2.45 2.45 0 00-.11 1.86v.11a4.81 4.81 0 01-.28 3.15 5.15 5.15 0 01-1.1 1.51 7.21 7.21 0 01-2.89 1.59 18.74 18.74 0 01-4.57.93 29.48 29.48 0 01-14.55-3.16 19.54 19.54 0 01-3.18-2.08 14.17 14.17 0 01-2.3-2.28 6.88 6.88 0 01-1.33-2.22 5.1 5.1 0 01-.28-1.54v-7.42s14.86-3 14.79-3.08l-12.92-7.41a2.94 2.94 0 01-1.46-2.58l-.06-7.38 4 3.39z" class="cls-2"/>
        <path d="M190.65 105.35h-12.39l-.01-7.66 12.4-.26v7.92z" class="cls-2"/>
        <path d="M251.34 116.69L199.62 86.8a3 3 0 00-3 0c-6.12 3.54-11.27 6.42-17.4 10-1.95 1-.42 1.63-.36 1.67a3 3 0 001.3.59 5.62 5.62 0 001.53.12 24.89 24.89 0 002.6-.21 16.89 16.89 0 012.66-.16 21.63 21.63 0 016.5 1.81 5.42 5.42 0 012.18 2.12 4.82 4.82 0 01.49 2.94 6 6 0 01-1 2.46 11.59 11.59 0 01-2.3 2.59 21.7 21.7 0 01-4 2.72 26.28 26.28 0 01-4.39 1.8 29.8 29.8 0 01-4.48 1.07 28.48 28.48 0 01-4.7.31 17.73 17.73 0 01-3-.29 11.79 11.79 0 01-3.13-1 5.79 5.79 0 01-2.63-2 4.81 4.81 0 01-.66-1.65 5.26 5.26 0 010-1.77 2.41 2.41 0 000-1 2.5 2.5 0 00-1-1.36 3.45 3.45 0 00-3.91.06c-5.68 3.43-10.33 5.87-16.07 9.18a3 3 0 00-1.06 4.11 3.07 3.07 0 001.06 1.06l12.82 7.43.15.08c1.57.76 2.49 1.74 2.33 2.46a1.47 1.47 0 01-.57.71 4.69 4.69 0 01-2.42.86 11.41 11.41 0 01-1.65.18h-2.43a14.24 14.24 0 00-1.85.06 13.19 13.19 0 00-3.77.83 7.4 7.4 0 00-3.39 2.21 4.81 4.81 0 00-.76 1.27 5 5 0 000 3.36 7.14 7.14 0 001.32 2.22A13.64 13.64 0 00147 146a19.48 19.48 0 003 2.06 29.13 29.13 0 0014.4 3.16 19 19 0 004.53-.92 7.43 7.43 0 002.85-1.59 5.29 5.29 0 001.09-1.52 4.85 4.85 0 00.28-3.14v-.12a2.45 2.45 0 01.11-1.86c.6-1.08 2.39-1.59 4.29-.87a2.39 2.39 0 01.43.2l18.31 10.6a3 3 0 003 0l52-30.11a3 3 0 00.05-5.21z" class="cls-3"/>
        <path fill="url(#Безымянный_градиент)" d="M207.75 25.2L247 47.92a2.82 2.82 0 011.4 2.43v72.39l-.56.3-40.1-23.27V25.2z"/>
        <path fill="url(#Безымянный_градиент_2)" d="M241.64 56.26l-40.25-23a9.65 9.65 0 01.44-4.3 8.06 8.06 0 01.9-1.87 5.41 5.41 0 011.75-1.87 3.92 3.92 0 011.43-.56 3.35 3.35 0 011 0 8433.28 8433.28 0 0140.61 23.54l-.42.24a3.49 3.49 0 00-1.21-.38 2.49 2.49 0 00-1.4.43 3.55 3.55 0 00-1 .93 8 8 0 00-1.29 2 4.91 4.91 0 00-.52 1.68 19.42 19.42 0 010 2.42 6.12 6.12 0 01-.04.74z"/>
        <path fill="#c5d0d7" d="M242.22 53.65a5.75 5.75 0 01.1-.93 5.19 5.19 0 01.89-1.92 5.27 5.27 0 01.82-1 3 3 0 011.33-.93 1.69 1.69 0 012.41 1.28 1.82 1.82 0 010 .57v72.38l.56-.31v-73a2 2 0 00-.25-.92 1.61 1.61 0 00-.4-.5 2 2 0 00-1.08-.47 2.51 2.51 0 00-1.4.26 5.82 5.82 0 00-2.48 2.1 7.91 7.91 0 00-1 2.19 7.39 7.39 0 00-.15 1.15 2.41 2.41 0 000 .38v2.55h.6c.07-.05.01-1.97.05-2.88z"/>
        <path d="M237.94 65.88L213.48 52a2 2 0 01-1.21-2 .68.68 0 01.64-.73.63.63 0 01.36.07l24.6 14a2 2 0 011 1.53v.28a.67.67 0 01-.62.73.67.67 0 01-.31 0zM230.29 67.91l-17.14-9.65a1.82 1.82 0 01-1.07-1.93c0-.51.53-.95.89-.74l17.6 10a1.41 1.41 0 01.61 1.31v.26c-.03.52-.54.94-.89.75zM238 79l-24.68-14a2 2 0 01-1.22-2 .68.68 0 01.64-.73.63.63 0 01.36.07l24.79 14.13A2 2 0 01239 78v.27a.67.67 0 01-.53.8.69.69 0 01-.47-.07zM230.59 81L213 71.14c-.47-.26-.85-.58-.71-1.73 0-.51.53-.94.89-.73l17.73 10.11a1.39 1.39 0 01.62 1.3v.26c-.07.5-.53.93-.94.65zM235.84 90.32l-22.51-12.71a1.8 1.8 0 01-1.06-1.93.68.68 0 01.62-.75.63.63 0 01.38.07l22.63 12.9a1.81 1.81 0 01.9 1.48v.27a.68.68 0 01-.63.73.63.63 0 01-.33-.06zM238.1 97.91l-24.76-14a2 2 0 01-1.23-2 .69.69 0 01.66-.73.71.71 0 01.34.08L238 95.46a2 2 0 011 1.54v.28a.68.68 0 01-.91.63zM230.18 99.85L212.77 90c-.47-.26-.84-.58-.69-1.72 0-.51.54-.94.9-.74l17.49 10a1.36 1.36 0 01.6 1.3v.25c-.07.54-.54.91-.89.76zM235.76 109.3L213 96.46a1.85 1.85 0 01-1-1.94.68.68 0 01.62-.75.63.63 0 01.38.07l22.85 13a1.85 1.85 0 01.92 1.48v.27a.68.68 0 01-.55.79.67.67 0 01-.46-.08z" class="cls-7"/>
        <path d="M202.94 117c0 .09-.25.89.21 1.37a2.17 2.17 0 001 .59s6.24-.76 6.83-1.12 1.14-1.26.2-1.53zM201 115.1s-.14 1.08.19 1.39a1.28 1.28 0 001.17.48c.54-.08 1.14-.93 1.14-.93z" class="cls-8"/>
        <path d="M200.83 115.21a3.26 3.26 0 002 .76s-.18.88 0 1.16a2.51 2.51 0 00.81.56l3.87-5.24s1.31-18.17 1.22-18.17H201z" class="cls-9"/>
        <path d="M198.79 83a20 20 0 00.29 4.3c.37 1.12 1.75 4.86 1.75 4.86s.23-9.16.17-9.16h-2.21z" class="cls-10"/>
        <path d="M199.79 77.24s-.7.24-.95 1.79-.5 3.83-.5 3.83a1.74 1.74 0 001.82.7z" class="cls-11"/>
        <path d="M200 83.68a34.65 34.65 0 01.53 10.51s2.59 2.56 8.64.28c0 0 .19-14.63-3.24-15.37 0 0-3.24-2.94-6.24-1.94-.03 0-.75 1.41.31 6.52z" class="cls-12"/>
        <path d="M207.86 79.53A18 18 0 00210.8 78c.74-.62 2.3-5.58 3.11-8a5.1 5.1 0 001.18-2.58c.11-1.39 0-1.12-.34-1.61s-.67-.85-1-.6a11.74 11.74 0 00-1.12 2.1s.06-1.1-.28-1.17-.58.28-.57.82a3.62 3.62 0 00.36 2.35c.23.38-.39 1.53-.39 1.53l-2.63 5-1.7.76z" class="cls-10"/>
        <path d="M207.71 76s1 2.71.37 4.44c0 0-5.77 1.92-6.59-.46s4.5-3.5 4.56-3.51z" class="cls-11"/>
        <path d="M199.12 75l.65 2.2 3.88.2s-1.37-1.25-1.35-2.16c0 0-.33-.23 0-.24s1.52-.15 1.83-.84a2.73 2.73 0 000-1.65l-2.16-5z" class="cls-10"/>
        <path d="M201.88 71s.18-.07.37.29.35.65.49.3a.73.73 0 00-.07-.79 8.25 8.25 0 01-.62-2.22v-1.27a2.12 2.12 0 00-1-.87 6.33 6.33 0 00-1.48-.33s.75.74-.45.48-1.15 0-1.15 0 1.4.69-1.09.42c0 0 .57.37 0 .71a3.72 3.72 0 00-1.28 1.79 3.85 3.85 0 00.72 3.19c.65.68 2.57 2.32 2.57 2.32s.81.36 1.12.22a1.91 1.91 0 001.22-1.24 4.59 4.59 0 00.24-2.35c-.02-.71.41-.65.41-.65z" class="cls-8"/>
        <path fill="#edecf6" d="M213.82 158.11a12.81 12.81 0 013.21.25c1.64.34 3.48.32 4.18-.1a.64.64 0 00.24-.86.76.76 0 00-.11-.14s-2.83-1.21-4.15-1.7a7 7 0 00-3.62-.15c-1.29.15-1 1.64-1 1.64a1.25 1.25 0 001.25 1.06z"/>
        <path d="M207.47 160s-.18 1.59.32 1.94 4.49 2.29 4.63 2.35a4.79 4.79 0 001.84.28 4.26 4.26 0 001.4-.65.68.68 0 000-.83c-.22-.23-3.93-3.23-3.93-3.23zM212.73 152.4a3 3 0 00-.13 1.58.88.88 0 00.88.46s2 .13 2.54.13 2.62.39 2.79.39a8 8 0 001.95 0c.3-.17 1.29-.83 0-1.45s-4-1.64-4-1.64z" class="cls-8"/>
        <path d="M194.39 137a5 5 0 00.84 4.46 11.12 11.12 0 003.5 2.74l5.27 2.68s1 .47 1.56 4 1.71 9.07 1.71 9.07.7 1.12 3.74 1.22c1.25 0 1-.87 1.09-1s-2.1-13.44-2.1-13.44a2 2 0 00-1.68-2l2.73-.28 1.4 8s3.21 2.21 5.05-.31l-2.24-11.42-11.39-6.72z" class="cls-7"/>
        <path d="M206.72 128.36l3.09 4.63.19 3.46 3.34-1.9-.11-2.15-4.38-10.45-2.13 6.41z" class="cls-14"/>
        <path d="M208.49 123a19.91 19.91 0 01-1.61 6c-1.36 3-2.24 5.13-2.24 5.13a3.27 3.27 0 01-.32 2.74 6.57 6.57 0 01-3.49 2.42 8.58 8.58 0 01-4.91-.42c-1-.58-2.2-1.37-2.32-2.51s1.22-6.76 1.22-6.76 2-8.35 4.35-8.94 4.63-1.24 6.53-.58a5.49 5.49 0 012.79 2.92z" class="cls-15"/>
        <path d="M205.49 126.45s1.49-2.23.9-3.85c0 0-.25-.53.31-.4a4.93 4.93 0 011.19.79s-1 3.21-2.33 3.67c0 0-.31.19-.07-.21z" class="cls-16"/>
        <path d="M204.9 123.93c.08 0 1 .31 1.36-.25a2.37 2.37 0 00.15-1.39s.19-.18.44.12 1.34 1.14 2.28.58a3 3 0 001.17-1.85l.87-4.76h-6.46l-.43 3.26a2.37 2.37 0 00-1.05 1.68z" class="cls-10"/>
        <path d="M201.52 120l2.82-.09.16-1.1s-5.12.66-5.5 1.32z" class="cls-16"/>
        <path d="M205.32 126.86a5.57 5.57 0 00-.89-4.1c-1.37-2-1.81-2.54-2.3-2.89a3.9 3.9 0 00-3.36.38c-1.31.89-1.12 1.57-1.12 1.57a3.54 3.54 0 013-.15c2.91 1.58 3.53 2.8 4.67 5.19z" class="cls-14"/>
        <path d="M204.35 119.67c.24-.11.48-.22.71-.35 0 0-.51-.79-.21-1.2s.46-.58.71-.47a1.37 1.37 0 01.59 1.37 4.07 4.07 0 011-2.06c.71-.56 1.14-.65 1.69-.42a2.35 2.35 0 001.56.27 1.67 1.67 0 00.82-.5 2.41 2.41 0 01.48-.8 3.17 3.17 0 01.35-.29 3.46 3.46 0 00-.86-.66c-.4-.12.14-.36.34-.37s-.46-.33-.68-.28c0 0-.32-.41.55-.37a2 2 0 00-1.55-.32.71.71 0 01.48-.63 2.27 2.27 0 00-1.34.08s-.39-.22.1-.44a2.75 2.75 0 00-1.58.14.39.39 0 01.28-.46s-3.38.68-4.08 2.6a4 4 0 00-.09 3.07z" class="cls-17"/>
        <path d="M203.84 136.9a11.65 11.65 0 014.28-.35s.62.51-.21.64c0 0-.33.45.44.45v2.24l-4.95-1.4z" class="cls-10"/>
        <path d="M204.7 136.73s-.89.27-1 2.19c0 0-8.32-2.58-9-3.47a2.86 2.86 0 01-.7-2.45c.12-.56 1.74-9.13 3.26-10.34s2.08.21 2.2.51a4.05 4.05 0 01.26 2.72 23.21 23.21 0 01-1.36 4.84c-.54 1-.49 2.45.49 2.8s5.85 3.2 5.85 3.2z" class="cls-14"/>
        <path fill="#4ef1fe" d="M209.93 135.21c0 .07-9.66 5-9.66 5s-.51.51-.19.74 8.27 4.58 8.27 4.58L210 136z"/>
        <path fill="#0088e4" d="M200 141l8.11 4.75a1.2 1.2 0 001.08-.24c.63-.42 10.49-6.07 10.56-6.13a1.69 1.69 0 00.06-.65l-11.5 6.5-8.31-4.57s-.1.12 0 .34z"/>
        <path fill="#00c8ed" d="M208.24 144.68l-4.09-2.12s-.53-.4 0-.72 4.62-2.49 4.62-2.49z"/>
        <path fill="#00c4f5" d="M208.17 145.21v-7.58a.93.93 0 01.47-.85c.52-.3 10.41-5.93 10.61-6s.56-.08.58.44S209 144.94 209 144.94l-.65.39z"/>
        <path d="M208.47 145.26v-7.09a1.58 1.58 0 01.94-1.5c1.36-.67 9.66-5.6 9.66-5.6s.77-.44.77.34v7.41z" class="cls-22"/>
        <path fill="#d4d4d4" d="M10.86 95.63l.05 7.31a3.12 3.12 0 001 2.23L66 136.43a3560.53 3560.53 0 0019-11.14 1.63 1.63 0 00.87-1v-7.43h-.68l-7.81 5.36c-.23 0-.46-.05-.68-.09a12.41 12.41 0 01-5.14-1.56 5.69 5.69 0 01-2.29-2.27 4.77 4.77 0 01-.47-2.06 6 6 0 011-3.06 10.93 10.93 0 013-3.21 23.42 23.42 0 015.56-3.18 28.74 28.74 0 017.53-1.86 21.52 21.52 0 015.89 0 11 11 0 015.09 1.84 5.14 5.14 0 011.69 1.78 4.59 4.59 0 01.49 3 3.72 3.72 0 00-.17.75 2.4 2.4 0 00.12 1.2 2 2 0 00.63.74c1.32 1 3.3.48 4.17.24 2.67-.73 10.26-5.19 19.89-11.72v-7.3z"/>
        <path fill="#ecebec" d="M123.7 95.46c-9.62 6.54-17.29 10.82-20 11.56-.87.24-2.85.75-4.17-.24a2 2 0 01-.63-.75 2.5 2.5 0 01-.13-1.27A3.47 3.47 0 0199 104a4.59 4.59 0 00-.49-3 5.3 5.3 0 00-1.69-1.77 11.13 11.13 0 00-5.09-1.85 21.52 21.52 0 00-5.89 0 28.76 28.76 0 00-7.53 1.87 23.42 23.42 0 00-5.56 3.18 10.69 10.69 0 00-3 3.21 6 6 0 00-1 3.06 4.74 4.74 0 00.47 2.06 5.61 5.61 0 002.34 2.24 12.42 12.42 0 005.14 1.57 15.76 15.76 0 004.7.07 4.43 4.43 0 01.72-.09 4.92 4.92 0 012.53.7c.79.41 1 .67 1.1.89a1.24 1.24 0 01.12.66 1.66 1.66 0 01-.87 1c-.89.54-8.5 5-19 11.13l-54.13-31.2a3.13 3.13 0 01-1-2.56 3.05 3.05 0 011.4-2.17l2-1.2Q40 76.72 65.82 61.92l19.62 11.41a5.65 5.65 0 003.8-.64 2.46 2.46 0 001-1.35 2.41 2.41 0 000-1 4.79 4.79 0 010-1.77 4.63 4.63 0 01.65-1.65 5.69 5.69 0 012.62-2 11.48 11.48 0 013.12-1 16.77 16.77 0 013-.3 26.43 26.43 0 014.7.27 30 30 0 014.49 1 25 25 0 014.4 1.78 20.76 20.76 0 014 2.69 11.78 11.78 0 012.31 2.57 5.69 5.69 0 011 2.46 4.81 4.81 0 01-.47 3 5.55 5.55 0 01-2.06 2.08 12.34 12.34 0 01-4.21 1.46 12.39 12.39 0 01-2.27.39 18 18 0 01-2.65-.14c-.84-.07-1.52-.15-2.62-.19a5.25 5.25 0 00-1.53.11 2.65 2.65 0 00-1.3.61c-.09.1-.81.79-.56 1.46.13.35.72.65.73.65z"/>
        <path d="M77.36 118.34v.94l-.21.2-.18-.81a3.09 3.09 0 01.39-.33zM45.78 113.37v.91l.46.02-.12-.91-.34-.02z" class="cls-25"/>
        <path d="M64.66 125.65L46.2 115a.86.86 0 01-.34-1.16.9.9 0 01.34-.33L56.63 108a2.16 2.16 0 012.09 0l18.16 10.49a.9.9 0 01.34 1.24.92.92 0 01-.34.34l-10.59 5.62a1.71 1.71 0 01-1.63-.04z" class="cls-25"/>
        <path d="M64.66 124.73L46.2 114a.86.86 0 010-1.5l10.47-5.5a2.16 2.16 0 012.09 0l18.16 10.49a.9.9 0 01.34 1.24.92.92 0 01-.34.34l-10.59 5.62a1.66 1.66 0 01-1.67.04z" class="cls-22"/>
        <path fill="#a551f4" d="M63.85 123.59l-16.22-9.36a.79.79 0 01-.26-1.09.65.65 0 01.26-.26l9.37-5.09a1.85 1.85 0 011.85 0L74.77 117a.82.82 0 01.3 1.12.86.86 0 01-.3.3l-9.44 5.17a1.41 1.41 0 01-1.48 0z"/>
        <path d="M53.17 109.44l-1.51.82a.14.14 0 01-.17 0 .14.14 0 010-.17l1.51-.83a.14.14 0 01.17 0 .13.13 0 010 .18zM51.13 110.6H51a.14.14 0 01-.17 0 .12.12 0 010-.16l.1-.06a.14.14 0 01.17 0 .12.12 0 010 .22zM71.93 121.25l-1.43.75a.48.48 0 01-.64-.19.22.22 0 01.08-.3l1.42-.78a.46.46 0 01.62.18.23.23 0 01-.05.34z" class="cls-27"/>
        <path d="M55.58 51.8L3.32 82.73a2.19 2.19 0 01-3-.78A2.16 2.16 0 010 80.84V47.37a9.35 9.35 0 014.59-8l51.62-30.6A2.55 2.55 0 0160.07 11v33a9.16 9.16 0 01-4.49 7.8z" class="cls-1"/>
        <path d="M62.5 52.39L10.25 83.32a2.19 2.19 0 01-3-.78 2.13 2.13 0 01-.31-1.12V48a9.35 9.35 0 014.59-8.06l51.6-30.59a2.55 2.55 0 013.51.89 2.51 2.51 0 01.36 1.31v33a9.18 9.18 0 01-4.5 7.84z" class="cls-7"/>
        <path d="M46.92 45.33l-13.09-5.55v17.33l13.09-11.78z" class="cls-22"/>
        <path d="M53.13 88a11.27 11.27 0 00-.07 1.54 2.07 2.07 0 00.46 1.16 2.91 2.91 0 00.43.43 2.41 2.41 0 001.32.68 2.79 2.79 0 001.15 0 1.48 1.48 0 00.93-.67 2.19 2.19 0 00.15-1.49 6.43 6.43 0 00-.2-1.07c-.07-.43-.1-.57-.16-.84zM62.15 86.39a1.13 1.13 0 00.68 1.44 1.26 1.26 0 00.57.14 1.46 1.46 0 00.5-.12 2.32 2.32 0 011.11 0 4 4 0 01.9.25 11.37 11.37 0 001.4.33 9.71 9.71 0 001.2.1 2.21 2.21 0 00.85-.1 1.17 1.17 0 00.58-.4 1 1 0 000-1.21 1 1 0 00-.7-.37L68 86c-.5-.2-1-.41-1.43-.61a1 1 0 01-.51-.47.66.66 0 010-.28z" class="cls-8"/>
        <path d="M61.81 67a.11.11 0 01.11 0c.07 0 .1.06.18.1a.67.67 0 00.21.09 1.32 1.32 0 00.56 0 1.22 1.22 0 00.72-.83.14.14 0 010-.09s0-.06.08-.06.1.24.11.34v.89c0 .22.12.32.23.75a2.16 2.16 0 010 1.58 1 1 0 01-.57.49.82.82 0 01-.73-.08.89.89 0 01-.28-.41c-.39-1.1-.47-1.42-.47-1.42-.12-.61-.31-1.35-.15-1.35z" class="cls-10"/>
        <path d="M52.73 87.2a2.22 2.22 0 001.08 1.47 2 2 0 00.8.2 2.93 2.93 0 001.74-.34 2.85 2.85 0 00.92-.84.24.24 0 000-.12v-.09c0-.14.18-3.21.28-4.51.08-1.06.14-1.94.32-3.06.07-.53.17-1.09.23-1.93a9.35 9.35 0 01.08-1.34 4.31 4.31 0 01.1-1c.1-.46.13-.52.17-.52s.15.19.34.64c.11.26.24.53.33.8.25.65.38.82.7 1.54s.5 1.25.67 1.72a25.15 25.15 0 011.14 4.54c.07.56.22 1.1.28 1.65a.33.33 0 000 .14.76.76 0 00.35.38 2.36 2.36 0 001.34.11 4.69 4.69 0 001.4-.45 4.06 4.06 0 00.93-.77.4.4 0 00.09-.17.31.31 0 000-.19c-.08-.34-.06-.71-.14-1.06-.19-.79-.34-2.39-.43-3.23s-.07-1-.17-1.83c0-.11-.09-.73-.16-1.16A14.33 14.33 0 0064.3 75c-.19-.51-.64-1.75-1.12-3.24s-.45-1.64-.74-2.35a7.26 7.26 0 01-.5-1.42 3.43 3.43 0 01-.12-1.35c0-.18.11-.43 0-.49s-.26.08-.32.13a7.65 7.65 0 01-1.79.7 6.3 6.3 0 01-1.72.27 16.55 16.55 0 01-5.13-.79 6 6 0 00-.56 1.91q0 .44-.06.87v1.6c0 1 .09 1.32.17 2.59 0 .3 0 .32.1 2.51s.08 2 .08 2.19v3.62c.06 1.25.08 3.1.14 5.45z" class="cls-9"/>
        <path d="M61 52.47l.34.54a1.67 1.67 0 00.07.52l.17 1.13c.15 1 .19 1.82.47 4.3v.22l1.67 7a1.25 1.25 0 01-.8 1 1.27 1.27 0 01-1.09-.18 2.32 2.32 0 00-.07-.69q-.52-6.78-1-13.52a.54.54 0 01.24-.32z" class="cls-14"/>
        <path d="M52.75 67c4.68.74 7.14.29 8.89-.76l.11-.06L61.5 55a12.57 12.57 0 00-.14-2 3.65 3.65 0 00-.36-1.3 2.75 2.75 0 00-.79-1l-.12-.09c-.66-.46-4.41.12-4.69.17a13.84 13.84 0 00-2.4 1.66 13.69 13.69 0 00-1.52 1.43 1.18 1.18 0 00-.19.25 2 2 0 000 1.67l.83 4 .34 7.11z" class="cls-15"/>
        <path d="M53 67.21a9.35 9.35 0 011.14-1.51.81.81 0 01.75.1l.43.1H56a2.07 2.07 0 01.52.2 3.61 3.61 0 01.44.22 1.74 1.74 0 01.63.48 1.76 1.76 0 01.29.58 1.43 1.43 0 010 1.18 1 1 0 01-.32.32 1.12 1.12 0 01-.88 0c-.12-.08-.13-.15-.23-.24s-.25-.21-1.11-.21a7.37 7.37 0 01-.94 0 1.88 1.88 0 01-.69-.23 1.3 1.3 0 01-.47-.49 1.48 1.48 0 01-.24-.5z" class="cls-10"/>
        <path d="M52.16 67.33a.66.66 0 00.43.15.81.81 0 00.51-.24c.14-.13.12-.17.32-.46a3.48 3.48 0 01.53-.67c.15-.13.21-.16.25-.27a.6.6 0 00-.13-.52l-3-2.86a.28.28 0 01-.17-.15.51.51 0 01.15-.59l3.38-4.67a2.74 2.74 0 00-1.81-3.34c-.74-.14-1.26-.14-1.94 1.52l-3.4 6.19a3.07 3.07 0 00.14 2.09 2.77 2.77 0 00.41.6 27.33 27.33 0 004.33 3.22z" class="cls-14"/>
        <path d="M58.43 61.58l1.08 2 .6-2.75c-.48-2.09-1-4.17-1.45-6.25l.23-.85-.83-.84c0 .48-.09 1-.12 1.44a5.14 5.14 0 00.42.38l.07 6.87z" class="cls-12"/>
        <path d="M56.89 53.89a4.63 4.63 0 00.42.32c.19.13.29.19.34.18.21 0 .21-.64.22-1a5 5 0 000-.77v-.09c0-.12-.21-.16-.31-.19A3 3 0 0157 52a3 3 0 01-.54-.39 5.43 5.43 0 01-.76-.83.89.89 0 01-.22-.43v-.66a.75.75 0 00-.25.22 1.54 1.54 0 00-.23.63 2.22 2.22 0 00-.08.77 1.31 1.31 0 000 .28 2.64 2.64 0 00.75 1.29 5 5 0 00.65.57 5.48 5.48 0 01.57.44zM58.86 53.56H59v-2.24l-.54-.13-.46 1.19a.17.17 0 000 .1c0 .3.63.92.86 1.08z" class="cls-14"/>
        <path d="M55.44 49.67a2.82 2.82 0 000 .82 2.12 2.12 0 00.45.73 4.71 4.71 0 00.69.65 4.6 4.6 0 00.78.52.77.77 0 00.45.1.66.66 0 00.4-.35 1.51 1.51 0 00.24-.82 3.11 3.11 0 00.61 0 1.2 1.2 0 00.56-.08 1.21 1.21 0 00.38-.43 2.7 2.7 0 00.27-.66 31.91 31.91 0 00.78-3.42 10.49 10.49 0 00.08-1.37c0-.6 0-.7-.07-.8-.24-.37-.86-.37-1.27-.35-.87 0-4.48.21-5 2a1.91 1.91 0 000 1.16 8 8 0 00.53 1 .94.94 0 01.14.26 1.93 1.93 0 01-.02 1.04z" class="cls-10"/>
        <path d="M61.15 46.38c.18-.42.32-.78.42-1.06a2.78 2.78 0 00.2-.94 2.15 2.15 0 00-.2-.71 2.68 2.68 0 00-.92-1c-.68-.52-1.2-.92-1.57-1.18 0 0 0 .27-.22.32h-.16c-.25-.08-.35-.3-.54-.47a1.05 1.05 0 00-.56-.22.64.64 0 01.08.19.51.51 0 010 .3 1.26 1.26 0 01-.43.08 1.3 1.3 0 01-.33-.07 1.77 1.77 0 01-.31-.15l-.2.08a4.55 4.55 0 00-2.2 2.35c-.1.28-.15.49-.17.54a4.23 4.23 0 00.09 2 6 6 0 00.36 1 8.49 8.49 0 00.84 1.46h.1a1.09 1.09 0 000-.36 1.67 1.67 0 00-.28-.62c-.34-.6-.36-.69-.37-.78a.81.81 0 01.13-.53.61.61 0 01.33-.28.6.6 0 01.55.06c.16.1.21.27.31.59a3.13 3.13 0 01.1.44c0 .11 0 .23.09.23s.26-.47.33-.69a8.68 8.68 0 01.27-1 1.56 1.56 0 01.67-.65.72.72 0 01.67 0 .53.53 0 01.24.29 2.35 2.35 0 00.23-.32c.16-.27.2-.43.25-.43s.09.14.13.73v.08a2.26 2.26 0 01.26-.42 1.7 1.7 0 01.61-.52.87.87 0 01.65-.1.86.86 0 01.49.53c.01.44.04.85.06 1.23z" class="cls-8"/>
        <path fill="#4d85e2" d="M137.37 29.34l-2.56 9.54 1.65 1.06s5.26-9.9 5.12-9.9-4.21-.7-4.21-.7z"/>
        <path d="M146.27 57.47a1.27 1.27 0 01-1.22-1.32v-.11l6.94-4.1h.53s.8.12.89.31a10.87 10.87 0 01-.07 2.35c-.08.34-1 .66-1.07.73s-1.93 1-1.93 1a22.4 22.4 0 01-2.76 1.17 3.66 3.66 0 01-1.31-.03z" class="cls-8"/>
        <path fill="#7316d8" d="M136.94 27l-.29 1.6a.53.53 0 00.15.71 2.81 2.81 0 001.08.72 61 61 0 009.41 1.49c1.15-.09 1.13 0 1.15-.29v-2.11s.51-13-.17-15.26a4.68 4.68 0 00-.61-1.25 8.89 8.89 0 00-2.15-2A179.06 179.06 0 00143.14 9a.25.25 0 00-.2-.06l-5.74-.14a1.51 1.51 0 00-.92.74 3.5 3.5 0 00-.79 2.22 12.15 12.15 0 00.14 1.9l.21 1.39.57 3.7.19.89.61 4.45v2z"/>
        <path d="M139.5 10.46a8.53 8.53 0 00-.44.85 5.11 5.11 0 00-.24 1.65c0 1.2.07 9.56.24 10.11s3.4.3 3.4.3-.06-9.32.23-10.5c.06-.21.33-1.41.33-1.41v-.52z" class="cls-15"/>
        <path d="M138.68 16.9l2.81-.18s.34-.08.58.48a13.48 13.48 0 00.89 1.57s.16.71-.39.38z" class="cls-10"/>
        <path d="M146.23 12.36s1-.12 1.42.35a2.84 2.84 0 01.57 1.17 2.58 2.58 0 01.07 1 25.9 25.9 0 01-.28 1.56 5 5 0 01-.24 1l-1.34 3.51s-.68 2.12-1.58 2.37a3.64 3.64 0 01-3.08-.87c-1.21-.87-3.06-2.5-3.06-2.5l-1.18.28-1.86.31a3.36 3.36 0 01-2.27-.28 1.54 1.54 0 01-.77-1.35 6.8 6.8 0 01.24-1.42c.21-.7 2.35-6.84 2.35-6.84a3.19 3.19 0 011.06-1.27l.36-.18-.58.78-.39.75-.16.69v1l.1 1 .22 1.51.06.43 1.25.89a8.39 8.39 0 01.81.5c0 .05.21.1.21.1l.56.06 3.9 2.29s.63.32.7-.25.79-3.95.79-3.95.29-1.6 1-2.08a3.5 3.5 0 011.12-.56z" class="cls-17"/>
        <path d="M133.71 17.16v-.36l1.63-1.5s.84-.27 1.27.1l1.39 1.17.28.26s-1.24-.22-1.34 1.41l-1.46-.57a3.33 3.33 0 00-1.7-.34c-.03 0-.08-.07-.07-.17zM139.77 11v.08a2.72 2.72 0 00-.05.64 1.33 1.33 0 00.15.55.77.77 0 00.6.41 2.28 2.28 0 001.51-.3 10.49 10.49 0 001-1 2.54 2.54 0 00.33-.92 2.32 2.32 0 00-.16-.87l-.41-1.27-.35-1 .1-.37.18-.63V5.09s-.77-.61-.82-.63-2.08-.58-2.15-.58-3.35 1-3.35 1l.1 1.12a13.59 13.59 0 00.48 1.43c.17.34.33.7.47 1.06s.43 1.64 1 1.94a1.31 1.31 0 00.91.18h.42z" class="cls-10"/>
        <path d="M141.15 6.72v-1.1a.56.56 0 01.47-.53.77.77 0 01.62.18c.18.18.23.2.26.43a1.38 1.38 0 010 .64c-.06.23-.14.43-.14.45a1.51 1.51 0 000 .52 3.53 3.53 0 00.28.5v-.68a7.34 7.34 0 01.16-.84c.1-.34.51-1.4.51-1.4a4 4 0 000-2.27 3.1 3.1 0 00-.85-1.62 2.52 2.52 0 00-1.15-.86 4.8 4.8 0 00-3.13.18c-1.06.51-2.92 1.36-3.28 2.61 0 0 .77-.83.89-.82s.1 0 .1 0a2.6 2.6 0 00-.65 1.34 2.7 2.7 0 00.3 1.6l.75 1.29.9-.75 1.88-1.16s.3-.26.69.15a5.26 5.26 0 011.24 2s0 .07.06.06.09.15.09.08z" class="cls-8"/>
        <path d="M140 6.47h-1.13a1 1 0 00-.7.2c-.13.09-.21.41-.26.45h-.16c-.08 0-.17-.18-.26-.32-.19-.32-.85-.2-1.37-.2s-.27.34-.25.42a3.5 3.5 0 00.48.6.78.78 0 00.58.3 1.58 1.58 0 00.53-.07.39.39 0 00.26-.35.26.26 0 01.14-.21.42.42 0 01.31 0 4.7 4.7 0 01.49.51.53.53 0 00.34.2h.69a.79.79 0 00.76-.66v-.67l.69-.56v-.39l-1 .75zm-3.78.33h.18l-.24.21c-.05-.08-.1-.2.06-.21zm1.22.8a1.43 1.43 0 01-.65 0 1.46 1.46 0 01-.41-.29l-.07-.1.45-.44h.29s.23 0 .36.34.1.46.03.49zm2.72-.15a.67.67 0 01-.37.31 1.84 1.84 0 01-.74 0c-.23 0-.61-.52-.61-.52l-.17-.2c-.16-.2.35-.31.65-.37a8.34 8.34 0 011 0c.17 0 .24.13.29.32a.74.74 0 01-.05.46zM142.91 5.86l-.11-.09h-.29v.34h.49z" class="cls-30"/>
        <path fill="#e5e2f5" d="M141.62 61.45s7.76-4 7.86-4a1.1 1.1 0 00.61-.55 5.54 5.54 0 00.11-1.9l-.72.21v1.29l-7.78 4z"/>
        <path fill="#f5f3fe" d="M158.21 59.87c-.17-1.39-1.4-9.17-1.4-9.17l-.25-.72-10.19 6.11V57l-1.55 10.41s0 1.25 1 .82 11.87-6.66 11.87-6.66.7-.31.52-1.7zm-.93 1l-11.34 6.32c-.51.28-.31-.33-.31-.33l1.45-10.09 6.27-4.12 2.7-1.62s1.17 7.69 1.38 8.58a1.34 1.34 0 01-.15 1.27z"/>
        <path d="M153.28 52.85l3.84-2.42s.65-.24.56-1.37-1.41-11-1.41-11a8.39 8.39 0 01.2-1.22c.17-.67-.12-.78-.12-.78l-1 1.37.56 10.85-2.58 2.9z" class="cls-33"/>
        <path d="M153.58 51.48l3.1-2a7.88 7.88 0 000-1.19l-.88-8.87a9.82 9.82 0 01.14-2.17 4.66 4.66 0 01.61-1.17l-7.3-4.16 1.17 3.29 2.06 10-.63 4.41z" class="cls-34"/>
        <path d="M135 39l-.2-1.93a23.42 23.42 0 01-.73-5.52 8.74 8.74 0 01.31-2.1l-3.71-2.11-1.28 8.31z" class="cls-33"/>
        <path d="M134.13 38.22l-.51-5.63a5.06 5.06 0 010-2.19 5.23 5.23 0 01.68-1.07l-3.52-1.89-.55 8.68z" class="cls-34"/>
        <path d="M133.51 71.64a1.41 1.41 0 01-1.38-1.44 1.24 1.24 0 01.33-1c.46-.39 4.11-3.34 4.11-3.34L140 66s1.07 0 1.17.22a11.83 11.83 0 01-.32 2.44c-.08.34-1 .67-1.11.74s-2 1-2 1a24.74 24.74 0 01-2.88 1.16 4.08 4.08 0 01-1.35.08zM125.21 67a1.3 1.3 0 01-1.07-1.48 1.1 1.1 0 01.43-.91c.46-.31 4.09-2.55 4.09-2.55l3.07.68s1 .16 1 .34a11.61 11.61 0 01-.59 2.17c-.11.3-1 .49-1.08.54s-1.92.63-1.92.63a23.13 23.13 0 01-2.72.71 3.78 3.78 0 01-1.21-.13z" class="cls-8"/>
        <path d="M136.13 66.41a3.85 3.85 0 005 0l1.33-8.12-5.31 2.71zM130.1 58.25l-1.5 3.91s0 2.61 4 1.81l1.51-3.42z" class="cls-35"/>
        <path d="M114.69 54.21l-.9.83s-.3.42-.16.73a1.09 1.09 0 001.06.62 6.72 6.72 0 001.87-.45c.47-.27.92-.56 1.36-.87.09-.1 1.12-1 1.12-1l.19-1z" class="cls-8"/>
        <path d="M116 53c-.49.47-1.81 1.53-1.57 1.88a.74.74 0 00.67.37 2.15 2.15 0 001.34-.23 8.21 8.21 0 001.72-1c.2-.18.39-.36.57-.55a3.31 3.31 0 00.17-.69l-2.25-1.1A2.88 2.88 0 01116 53z" class="cls-10"/>
        <path d="M116.74 56.27s-.54.5-.58.83 0 .69.45.81a2.84 2.84 0 001.26.11 12.21 12.21 0 001.45-.46 12.37 12.37 0 002.12-1.29 2.16 2.16 0 00.41-1.66l-.4-.18z" class="cls-8"/>
        <path d="M116.8 56.25a.35.35 0 000 .45 1.26 1.26 0 00.64.24 1.59 1.59 0 00.81 0 5.21 5.21 0 001.07-.43 7.46 7.46 0 001.68-1.33l.56-.68S119 52.86 119 52.88s0 1.09-.31 1.39z" class="cls-10"/>
        <path d="M120.35 30.26l1.22-.67a19.14 19.14 0 01.28-3.78 23.23 23.23 0 01.75-2.59l.94-.84-.24 2.29-1 4.31 1.2 3.02z" class="cls-36"/>
        <path d="M128.06 23.46s-1.78-1.47-2.83-1.31a2.35 2.35 0 00-2.18 1.68c-.22 1-.73 3.12-.73 3.12s-.63 2-.17 2.84 1.49 2.6 1.49 2.6l5.85 3.28.78-10.28s-.72-.65-1.47-1.29z" class="cls-3"/>
        <path d="M127.57 34.73l1.43-.86-1.2-7s.06-1.07.73-1.42 1.41-.49 1.8.09A4.16 4.16 0 01131 28c.14 1.66.28 6.25.28 6.25a1.22 1.22 0 01-.06.26A6 6 0 01130 36.1c-.31.12-2.43-1.37-2.43-1.37z" class="cls-36"/>
        <path d="M127.49 23.24l1.91-.86s-.89-.81-.86-1.07l1 .65.72-.29s-1.41-.21-1.83-2.36-.37-2.9-1.09-3.55-2.63-1.47-3.81-1a3.73 3.73 0 00-2.16 2.17c-.25.76-.64 3.29-.64 3.29s-.32 1.06-1 1.22a1.3 1.3 0 001.3-.22 3.32 3.32 0 01-.83 1.14l1.62 1.64 1.25-1z" class="cls-8"/>
        <path d="M124.19 23.18c0 .06-.19 1.15.37 1.42a1.48 1.48 0 001.13 0 6.51 6.51 0 001.51-1.91 15.13 15.13 0 00.68-2.54c0-.12.38-1.65-.2-2.07s-.74-.51-1.6.16-2.22 1.54-2.22 1.54l-.53 2.31.06.29z" class="cls-10"/>
        <path d="M128.22 19.37a3.5 3.5 0 00-1.72.29c-.07 0-.12.19-.17.22a.32.32 0 01-.35 0 1.32 1.32 0 00-.61-.19 5.74 5.74 0 00-1.43.27c-.55.15-.24.67-.24.67l.3.41c.17.22.6.25 1.12.2s.9-.94.9-.94h.34a1.13 1.13 0 00.17.39c.15.24.7.26 1.09.16a1.48 1.48 0 00.68-.5s.4-.91-.08-.98zm-2.66 1a1 1 0 01-.71.65c-.33 0-.7.09-.86-.68 0 0 0-.24.38-.27s1.19-.19 1.19-.19a.42.42 0 010 .5zm2.44-.23c-.26.28-.38.45-.66.48a.79.79 0 01-.69-.28.31.31 0 010-.43.28.28 0 01.15-.08c.4-.14.93-.43 1.21-.25s.28.28-.01.56z" class="cls-30"/>
        <path fill="#0082b5" d="M138.47 61.83c2-.91 13.65-7.82 14.43-8.39s.76-1.26.79-2.67L99.45 39.64s-.49 1.62.3 2.31 34.36 20 34.36 20a6.53 6.53 0 004.36-.09c2-.91 14.28-8.13 14.44-8.27a5.39 5.39 0 00.78-2.79z"/>
        <path id="стол" d="M134.48 60.76a4.88 4.88 0 003.84-.14c2.36-1.2 14.45-8.2 14.45-8.2s2.78-2-1.34-4.41c-1.15-.67-21.16-12.1-21.16-12.1l-.49.37v-.67L114.59 27 99.72 38.65s-1.17 1.49.79 2.61z" class="cls-22"/>
        <path fill="#00d5f9" d="M141 44l-6.45 3-.61.56-.28.49s-4.15-2.38-4.06-2.46.14-8.18.14-8.18z"/>
        <path fill="#537ae0" d="M134.53 47.16a1.22 1.22 0 01-.33.76c-.19.17-.69.26-.63-.25a1 1 0 01.58-.77c.07 0 4.21-1.74 4.21-1.74z"/>
        <path fill="#00c6ed" d="M138.28 50.33a.51.51 0 00.23.67 10.64 10.64 0 001 .62.91.91 0 00.82 0 7.44 7.44 0 001.09-.93 4.82 4.82 0 012.09-1.19c1.25-.31.77 0 .77 0a27.71 27.71 0 00-3.62 2.26 1.24 1.24 0 01-1.22.05 9.7 9.7 0 01-1.2-.81.74.74 0 01-.08-.66z"/>
        <path d="M129.31 49.21l.82-.31.1-12.07a1.86 1.86 0 00-1.11-1.71C127.49 34.38 113.4 26 113.4 26s-.76-.09-.94.35z" class="cls-7"/>
        <path fill="#edefef" d="M112.24 26.82s-.09-.93.78-.39 16.07 9.29 16.07 9.29.67.15.62 1.69-.08 11.92-.08 11.92.08.56-1.43-.39-15.08-8.73-15.08-8.73-.89-.33-.88-2z"/>
        <path fill="#0096b5" d="M121.1 45.38l3.9 2.36-3.07 1.87-.67.15-1.14-.85z"/>
        <path d="M120.77 50l-3.66-2.25s-.52-.14-.26-1.88 1-8.63 1.08-9.34l3.89 2.33-1.14 10.48z" class="cls-7"/>
        <path fill="#007e93" d="M121.6 39.12c.1-.33.46-.34.31.12a6.74 6.74 0 01-.09.79l-.9 9.16s-.1.61.59.32 3.27-1.77 3.27-1.77.23-.12.25.11c0 0 0 .19-.37.46S122 49.84 122 49.84a3.85 3.85 0 01-.66.28c-.18 0-.83.13-.83-.54s.17-2.06.17-2.06l.83-7.61a5.16 5.16 0 01.09-.79z"/>
        <path d="M144.23 44l7 4a2.6 2.6 0 002.55-2.65 2.33 2.33 0 00-.08-.59s-1.26-5.45-1.26-5.52-1.39-5-2.2-6.12a16.43 16.43 0 00-1.73-2l-8.83.69A9.2 9.2 0 00141.8 38c.51 1 1.73 4.16 2.43 6z" class="cls-12"/>
        <path d="M142.81 36.12a20.54 20.54 0 012.84-3.78 2.72 2.72 0 011.94-.82 2.52 2.52 0 011.82.59c.26.31 0-.89-.15-1.28a4.9 4.9 0 00-2.61-1.71 13.49 13.49 0 00-2.46-.23h-.3l-.87 5a4.45 4.45 0 00-.21 2.23z" class="cls-11"/>
        <path d="M142.47 32.35s-1.7 1 0 3.26c.15.2.34.7-.12.24s-1.86-1.8-1.89-3 1.8-.91 1.8-.91.65.06.21.41z" class="cls-44"/>
        <path fill="#596cdd" d="M150.91 47.82l.54.31a8.1 8.1 0 011.2.84 2.64 2.64 0 00.48-1.3 7.22 7.22 0 010-.93z"/>
        <path d="M139.31 41l2.08-3.92-1.81-5.19-3.18 7.44z" class="cls-44"/>
        <path d="M138.17 36.89a1.57 1.57 0 001.45-1.62s3.12 3.77 3.82 4.66c0 0 .3.13.53-.47s2-6.22 3-6.62 1.47-.24 1.71-.07a2.43 2.43 0 011.09 2.23 6.51 6.51 0 01-.58 2.45c-.38.76-2.81 6.29-3.73 6.84 0 0-1.08 1.13-2.14.57a9.7 9.7 0 01-2.84-3.14c-.48-.93-2.31-4.83-2.31-4.83z" class="cls-11"/>
        <path d="M134.86 34a2.13 2.13 0 00-.8.35c-.22.22-.72 0-.39-.4a3.63 3.63 0 011.94-.9 2.5 2.5 0 011.85.48 14 14 0 001.63 1.24c.12.08.87.91.87.91L138.57 37l-.32-.4s-1 0-1.26-.37-.66 0-.93.23-.69 0-.91-.65a4 4 0 01-.29-1.81zM143 34.1s1-2.93 2-3.68a5.22 5.22 0 00-.83-.8c-.53-.41-.52-.61-.52-.61L143.5 26l-6.64.48 1.14 4.87s.3 1.6 1.5 1.59a2.58 2.58 0 001.76-.62s.56-.46.81 0a1.59 1.59 0 01.11.65 1.09 1.09 0 00.37.86c.37.31.45.27.45.27z" class="cls-10"/>
        <path d="M135.92 25.86a3.38 3.38 0 011.44 1.14c.36.34 1.31 0 1.31 0a2.14 2.14 0 011.16-.45 1.27 1.27 0 011.32.8 8.18 8.18 0 01.39 1.39c0 .26.22-.07.22-.1s0-.7.37-.93a.7.7 0 011 .05.31.31 0 01.07.09c.2.41-.09.72.09 1a5.82 5.82 0 00.73.76s.23.4.19-.2a7.68 7.68 0 010-1.66 7.16 7.16 0 000-2.61A3.5 3.5 0 00142 22.8a14.32 14.32 0 00-1.81-.51l.1.27-1.47-.11.17.46h-1.46l.59.51s-1.46.16-1.65.49h.75l-.88.69h.58l-1.33 1.15z" class="cls-8"/>
      </g>
    </g>
  </g>
</svg>
