<svg xmlns="http://www.w3.org/2000/svg" viewBox="0 0 64 72.98"><defs><style>.cls-1{fill:#1e1e1c;}.cls-2{fill:#ffea00;}.cls-3{fill:#ffd610;}.cls-4{fill:#fff;}.cls-5{fill:#383837;}.cls-6{fill:#1b1b1a;}.cls-7{fill:#ffe900;}</style></defs><title>Ресурс 2</title><g id="Слой_2" data-name="Слой 2"><g id="Слой_1-2" data-name="Слой 1"><circle class="cls-1" cx="31.91" cy="65.69" r="7.28"/><path class="cls-2" d="M53,32.86C53,44.53,41.7,59.5,31.91,59.5c-10.17,0-21.13-15-21.13-26.64a21.13,21.13,0,0,1,42.26,0Z"/><path class="cls-3" d="M11.62,38.81c2.14,8,8.13,16.13,14.71,19.3l7.23-1.33L31.41,41.36l2.15-13.91Z"/><path class="cls-4" d="M24.73,45.81s-.59,1.31.7,1l6.3-1.45.05,10.3h1.89l5.24-17.45s.5-1.14-.79-.87-5.85,1.31-5.85,1.31l1.87-10.59c.08-.46-.4-1-.63-.56S24.73,45.81,24.73,45.81Z"/><path class="cls-5" d="M22.11,56H41.33a0,0,0,0,1,0,0v4.67a9.61,9.61,0,0,1-9.61,9.61h0a9.61,9.61,0,0,1-9.61-9.61V56A0,0,0,0,1,22.11,56Z"/><path class="cls-5" d="M22.11,56H41.33a0,0,0,0,1,0,0v9.88a4.4,4.4,0,0,1-4.4,4.4H26.51a4.4,4.4,0,0,1-4.4-4.4V56a0,0,0,0,1,0,0Z"/><rect class="cls-6" x="21.6" y="55.5" width="20.23" height="2.07" rx="1.03"/><rect class="cls-6" x="21.69" y="59.01" width="20.23" height="2.07" rx="1.03"/><rect class="cls-6" x="21.6" y="62.51" width="20.23" height="2.07" rx="1.03"/><rect class="cls-6" x="21.6" y="66.09" width="20.23" height="2.07" rx="1.03"/><rect class="cls-7" y="32.52" width="7.73" height="3.09"/><rect class="cls-7" x="2.56" y="19" width="7.73" height="3.09" transform="translate(11.13 -0.46) rotate(30)"/><rect class="cls-7" x="11.15" y="8.29" width="7.71" height="3.09" transform="translate(16.02 -8.07) rotate(60)"/><rect class="cls-7" x="28.07" y="2.3" width="7.69" height="3.09" transform="translate(35.75 -28.07) rotate(90)"/><rect class="cls-7" x="45.4" y="8.64" width="7.73" height="3.09" transform="translate(86.8 -23.31) rotate(126.57)"/><rect class="cls-7" x="53.63" y="18.92" width="7.73" height="3.09" transform="translate(118.46 17.41) rotate(157.53)"/><rect class="cls-7" x="56.27" y="32.82" width="7.73" height="3.09" transform="translate(120.27 68.73) rotate(180)"/></g></g></svg>