<?xml version="1.0" encoding="utf-8"?>
<!-- Generator: Adobe Illustrator 23.0.2, SVG Export Plug-In . SVG Version: 6.00 Build 0)  -->
<svg version="1.1" id="Слой_1" xmlns="http://www.w3.org/2000/svg" xmlns:xlink="http://www.w3.org/1999/xlink" x="0px" y="0px"
	 viewBox="0 0 325 89" style="enable-background:new 0 0 325 89;" xml:space="preserve">
<style type="text/css">
	.st0{fill:#102239;}
	.st1{fill:#0A5A86;}
	.st2{fill:#FFFFFF;}
</style>
<title>graphicLogo_1</title>
<g>
	<g id="Слой_1-2">
		<path class="st0" d="M119.4,46.3h7.1V60c-1.9,1.4-4,2.5-6.3,3.2c-2.3,0.7-4.8,1.1-7.2,1.1c-3.3,0.1-6.5-0.7-9.5-2.2
			c-2.7-1.4-5-3.6-6.5-6.2c-1.6-2.7-2.4-5.8-2.4-9c-0.1-3.2,0.8-6.3,2.4-9c1.6-2.6,3.9-4.8,6.6-6.2c2.9-1.5,6.2-2.3,9.5-2.2
			c2.7,0,5.5,0.5,8,1.5c2.3,0.9,4.4,2.4,6,4.3l-5,4.6c-2.2-2.5-5.4-3.8-8.7-3.8c-2,0-4,0.4-5.7,1.3c-1.6,0.9-3,2.2-3.9,3.8
			c-1.8,3.5-1.8,7.7,0,11.2c0.9,1.6,2.2,2.9,3.9,3.8c1.7,0.9,3.7,1.4,5.6,1.4c2.1,0,4.2-0.5,6.1-1.4L119.4,46.3z"/>
		<path class="st0" d="M155.1,63.7l-6.5-9.4h-7.2v9.4h-7.8V30h14.6c2.6-0.1,5.3,0.5,7.7,1.5c2.1,0.9,3.8,2.4,5.1,4.2
			c1.2,1.9,1.8,4.2,1.8,6.5c0.2,4.6-2.5,8.9-6.9,10.6l7.5,10.8H155.1z M153.1,37.9c-1.5-1.1-3.4-1.6-5.3-1.5h-6.3v11.7h6.3
			c1.9,0.1,3.8-0.4,5.3-1.5c1.3-1.1,1.9-2.7,1.9-4.3C155.1,40.6,154.4,39,153.1,37.9L153.1,37.9z"/>
		<path class="st0" d="M191.1,56.5h-15.6l-3,7.2h-8l15-33.6h7.7l15,33.6h-8.2L191.1,56.5z M188.7,50.5l-5.3-12.9L178,50.5H188.7z"/>
		<path class="st0" d="M228.1,31.5c2.1,0.9,3.8,2.4,5.1,4.2c1.2,1.9,1.8,4.2,1.8,6.5c0,2.3-0.6,4.5-1.8,6.5c-1.2,1.9-3,3.4-5.1,4.2
			c-2.5,1-5.1,1.5-7.8,1.5h-6.8v9.3h-7.8V30h14.5C223,30,225.6,30.5,228.1,31.5z M225.2,46.5c1.2-1.1,1.9-2.7,1.8-4.3
			c0.1-1.7-0.6-3.3-1.8-4.3c-1.5-1.1-3.4-1.6-5.3-1.5h-6.3v11.7h6.3C221.8,48.2,223.7,47.7,225.2,46.5L225.2,46.5z"/>
		<path class="st0" d="M271.3,30v33.6h-7.8V49.9h-15.3v13.8h-7.8V30h7.8v13.3h15.3V30H271.3z"/>
		<path class="st0" d="M279.3,30h7.8v33.6h-7.8L279.3,30z"/>
		<path class="st0" d="M301.8,62c-2.7-1.4-5-3.6-6.5-6.2c-1.6-2.7-2.4-5.8-2.4-9c-0.1-3.2,0.8-6.3,2.4-9c1.6-2.6,3.8-4.8,6.5-6.2
			c5.4-2.7,11.7-2.9,17.2-0.6c2.3,1,4.4,2.5,6,4.4l-5,4.6c-2.1-2.5-5.2-4-8.5-3.9c-1.9,0-3.9,0.4-5.6,1.4c-1.6,0.9-2.9,2.2-3.8,3.8
			c-1.8,3.5-1.8,7.6,0,11.1c0.9,1.6,2.2,2.9,3.8,3.8c1.7,0.9,3.6,1.4,5.6,1.4c3.3,0,6.4-1.4,8.5-4l5,4.6c-1.6,2-3.7,3.5-6,4.5
			c-2.5,1.1-5.2,1.6-7.9,1.5C307.8,64.3,304.7,63.5,301.8,62z"/>
		
			<ellipse transform="matrix(0.6148 -0.7887 0.7887 0.6148 -19.0665 49.9811)" class="st1" cx="41.6" cy="44.5" rx="48.6" ry="36.8"/>
		<path class="st2" d="M60.2,53.9l16,0.1l-0.1,26.5c-3.9,2.7-8.1,4.7-12.7,6c-4.6,1.3-9.5,2-14.3,2c-6.3,0.1-12.5-1.4-18.1-4.3
			c-5.2-2.7-9.6-6.8-12.6-11.9C15.4,67,13.9,61.1,14,55c-0.1-6.1,1.5-12,4.7-17.2c3.1-5.1,7.5-9.1,12.8-11.8
			c5.7-2.9,12-4.3,18.4-4.2c5.5-0.1,11,1,16.2,3.2c4.6,1.9,8.6,4.9,11.8,8.7L66.2,44.1c-3.9-4.6-9.5-7.2-15.5-7.2
			c-5.5,0-9.9,1.6-13.3,4.9c-3.4,3.3-5.1,7.7-5.1,13.3c-0.1,3.3,0.7,6.6,2.2,9.5c1.5,2.7,3.7,5,6.4,6.5c2.9,1.6,6.1,2.4,9.4,2.4
			c3.4,0,6.7-0.7,9.8-2.1L60.2,53.9z"/>
	</g>
</g>
</svg>
