<svg xmlns="http://www.w3.org/2000/svg" viewBox="0 0 59.54 59.82"><defs><style>.cls-1{fill:#666;opacity:0.1;isolation:isolate;}.cls-2{fill:#ffa200;}.cls-2,.cls-3,.cls-4,.cls-7{stroke:#242021;stroke-miterlimit:10;stroke-width:2px;}.cls-3{fill:#fc3;}.cls-4,.cls-7{fill:none;}.cls-4{stroke-linecap:round;}.cls-5{fill:#9a9d9f;}.cls-6{fill:#c7cad0;}</style></defs><title>Ресурс 1</title><g id="Слой_2" data-name="Слой 2"><g id="Слой_1-2" data-name="Слой 1"><path class="cls-1" d="M46.5,6.2A16.57,16.57,0,0,1,19.22,24.48,18.11,18.11,0,1,0,46.5,6.2Z"/><rect class="cls-2" x="15.83" y="37.5" width="8.58" height="4.39" transform="translate(-22.18 25.86) rotate(-45)"/><path class="cls-3" d="M37.21,1A21.33,21.33,0,1,0,58.54,22.33,21.33,21.33,0,0,0,37.21,1Zm0,37.06A15.51,15.51,0,1,1,52.72,22.55,15.52,15.52,0,0,1,37.21,38.06Z"/><path class="cls-4" d="M37.21,12.5q8.92.84,10.12,10.05"/><path class="cls-5" d="M15.47,40.61l3.79,3.79a1.4,1.4,0,0,1,0,2h0L8,57.67a4.07,4.07,0,0,1-5.76,0h0a4.07,4.07,0,0,1,0-5.76h0l11.3-11.3A1.4,1.4,0,0,1,15.47,40.61Z"/><path class="cls-6" d="M17.51,42.65l-2-2a1.4,1.4,0,0,0-2,0L2.2,51.91A4.08,4.08,0,0,0,1.09,54,31.39,31.39,0,0,0,17.51,42.65Z"/><path class="cls-7" d="M2.1,52,13.94,40.14a.91.91,0,0,1,1.29,0l4.45,4.45a.91.91,0,0,1,0,1.29L7.85,57.71a3.75,3.75,0,0,1-5.33,0L2.1,57.3A3.77,3.77,0,0,1,2.1,52Z"/></g></g></svg>