<svg xmlns="http://www.w3.org/2000/svg" viewBox="0 0 399.85 577.46">
  <defs/>
  <g data-name="Слой 2">
    <path fill="#f3ddd0" d="M186.54 238.21c.21 0 10.8-1.73 11.08 0s-.83 4.85-.83 4.85a8.17 8.17 0 00-4.69 7.2c0 5.2-4.42 1.75-6.46 1.25l-19-4.64-6.51-5 8.66-9.83s12.19 3.46 13.92 5a5.11 5.11 0 003.83 1.17z"/>
    <path fill="#321e0f" d="M111.58 357.15s2.25-14.65-10.43-19l-3.94 4.15s10 9.35 10.28 14.86z"/>
    <path fill="#4f2b15" stroke="#291307" stroke-miterlimit="10" stroke-width="2" d="M140.18 355.28s6.92-.56 7.2 9.42 2.62 44.8 2.62 44.8.85 7.82-6.49 8.52c-9.39.88-69.92 4.17-69.92 4.17l-.44-66.92z"/>
    <path fill="#e9dccf" d="M103.24 330.13c.16 0 5.24 6.71 3.06 12.48-1.54 4.05-2.7 7-14.27 3.67"/>
    <path fill="#023256" d="M24.18 338.52L40.25 559s-2.56 10.33 2.06 12.1 25 3.63 35.37 3.69 10.75 0 11-.26 2.39-2.65-4.21-5.61-15.06-6.7-15.11-12.47S74 529.37 74 529.37s3.88-28.26 3.74-45S80 427 81.38 421.06s10-75.75 10-75.75z"/>
    <path fill="#134675" d="M32.22 343.78l15.65 213.56A15.71 15.71 0 0046 561.5c-.83 2.7-2.29 7.37 3 7.58s23.37 0 23.37 0l9.35-1h.69c-6.19-2.82-13.06-6.37-13.1-11.56 0-5.76 4.72-27.09 4.72-27.09s3.88-28.26 3.74-45S80 427 81.38 421.06s10-75.75 10-75.75l-67.18-6.79.16 2.09c2.49.96 7.86 3.17 7.86 3.17z"/>
    <path fill="#d7dce0" d="M54.9 87.18s38.36 9.42 46.1 25.07c0 0 1.76 3.71-1.25 5.33l-5.13 3.53a70.37 70.37 0 006 3.88c4.16 2.5 13.3 111.63.28 142.65 0 0 3 41.55-2.5 55.13z"/>
    <path fill="#292e2d" d="M92.43 128.21s6.13-3.22 8.31 2.08 2.49 7.06 1.66 9.24 3.85 15.69 3.85 15.69 4 28.86 2.59 42.28c-1.2 11.77 1.38 38.32-5.4 69.73-1.08 1.1-2.12 1.21-3.1 0 0 0 .61-112.11-.85-119.18a12.9 12.9 0 00-8-9.24z"/>
    <path fill="#f2ddcf" d="M83.7 107.54s37.3-31.71 38.51-62.6L86.05 24.72S60.71 63.78 60.71 64.19V93"/>
    <path fill="#453732" d="M60 80.64c.4-.24 13.4-16.1 13.55-18s-1.55-8-1.55-8-.85-7.89 9.28-6a4.21 4.21 0 004.12-2.86c1.24-3.11 1.24-7.53 7.84-7.43s3.06-1.87 4.78-2.49 5 .21 7.42 3 9.87 6.34 19.53 3.33 14.23-8.11 14.34-8.73 4.81-6.68 1.55-8.27a7.8 7.8 0 00-6.44 0s-2.92.06-4.58-4.09-17.33-10.6-17.33-10.6-21.97-7.04-31.26-1.64-16.56 18.6-16.56 18.6L53 52.49a15.74 15.74 0 000 12.05A60.29 60.29 0 0156.59 78s1.25 3.89 3.41 2.64z"/>
    <path fill="#01325d" d="M7.11 337.17c.42.14 17.32 13 51.8 13.71s41.14-2.35 43.21-11.91-1.66-46.54-1.66-46.54l-3-58.86s50.69 8.59 58.17 11.36 14.27-5.68 14.55-6.65 4.29-11.77 0-17.86-4.3-5.54-7.21-6.93-13.29-1.11-13.29-1.11l-47.14-14.68-7.9-71.32s-3.87-3.74-4.08-4.23 2.49-6.23 10.94-6.51c0 0-33.86-33.58-50.2-29.29 0 0-7.07 2.63-16.07 25.62s-18.7 41-24.79 101.94l-1.52 46.74s-.84 29.29-7.07 53 5.26 23.52 5.26 23.52z"/>
    <path fill="#dedddd" d="M309.31 314.46s-9.55-13.92-9.34-28.88-3.4-55.61-3.4-55.61S298 117 316.24 112.53l16.9-5-5.54 210.25z"/>
    <path fill="#101010" d="M321.5 311.41s66.48 4.15 69 5 1.67 8 1.67 11.92 2.77 125.2 3 135.17 2.5 96.12 2.5 96.12 3.87 9.24 1.28 10.9-32.72 7-32.72 7H360s-6.23-1.76 4.06-7.17 15.27-8.72 13.4-14.95-9.52-32.78-10.08-35.53c-.83-4-2.8-21.5-2.8-21.5s-4-3.84-3.9 6-4 52.36-4 52.36l-.1 4s2.28 9.14.2 10.9-11.53 1.56-12.36 2-28.35 1.66-28.35 1.66-6.55-1.87 1.76-6.23 13.82-7 13.82-7 5.71-3.12 3.53-12.57-5.4-29-5.4-29-3.53-31.16-2.5-37.5-1.24-38.6-1.24-38.6-15.34-125.28-22-133c0 0-1-2.7 5.89-1.59s11.57 1.61 11.57 1.61z"/>
    <path fill="#3a241d" d="M302 266.47s-3.74-117.59 1.67-121.33 8.51-15.58 8.51-15.58-5.81-3.94-8.93-3.53-4.78 11.84-4.78 11.84a9.54 9.54 0 010 7.48c-1.66 4.36-5.1 56.24-3.95 69 1.25 13.71 3.12 50.28 4.58 52.15s2.42.75 2.9-.03z"/>
    <path fill="#938579" d="M315.76 102.87s-6.55-2.08-13.3-12.57S274 28.7 274 28.7h62l11 57.65z"/>
    <path fill="#e9e2dd" d="M350.59 97.71c0-1-2.77-14.27-2.77-14.27a113.21 113.21 0 01-37.91 17.73l2.31 28.39z"/>
    <path fill="#e4c98c" d="M260.91 41.69s3.22 15.58 15.17 13.71 14.12-2.6 18.07-10.18 9.45-10.29 14.85-8.83 2.7 12.67 5.2 15.68 7.27 9.46 14.33 5.61 3 7.07 3 7.07-1.86 10.59 3.47 14.64c0 0 8.42 10.29 13.82 3.33s12-24.21 12-24.21l2.49-20.46s5.61-5.71-1.66-14.85S346.19 13 346.19 13 331.11-6.27 311.81 2.11c-7.9 3.43-16.62.62-16.62.62s-9-1.45-10.91 4.89-1.56 9.66-1.56 9.66c-4.94 1.33-25.04 9.2-21.81 24.41z"/>
    <path fill="#928276" d="M227.74 238.56c-1.8-.36-21.33-.69-21.33-.69s-.69 3 0 3.6-8.31 1.1-8.31 1.1-11.91 5.68-3.18 7.9 24 1 26 0 6-2.22 6-2.22z"/>
    <path fill="#3c4446" d="M323.23 239.88s-.41 32.61 2.7 54.84c0 0-2.71 25.14-1.36 30.33s8.43 11.84 15.28 12.88 44.67 3.53 50.9-11.84 3.12-69.6 3.12-69.6 2.49-48.61-3.74-71.67-17.87-62.11-38-88.29c0 0-4.78-2.49-7.89 2.91 0 0-24.52 5-31.79 26.38s-15.58 49.86-16.2 76.87c5 16.62-69.81 33-69.81 33s-4.57 19.53 3.74 21.81 18.7 2.08 27.84-.62 53.18-11.43 61.08-18.7c4.54-2.77 4.13 1.7 4.13 1.7z"/>
  </g>
</svg>
