<svg xmlns="http://www.w3.org/2000/svg" viewBox="0 0 399.85 577.46"><defs><style>.cls-1{fill:#f3ddd0;}.cls-2{fill:#321e0f;}.cls-3{fill:#4f2b15;stroke:#291307;stroke-miterlimit:10;stroke-width:2px;}.cls-4{fill:#e9dccf;}.cls-5{fill:#023256;}.cls-6{fill:#134675;}.cls-7{fill:#d7dce0;}.cls-8{fill:#292e2d;}.cls-9{fill:#f2ddcf;}.cls-10{fill:#453732;}.cls-11{fill:#01325d;}.cls-12{fill:#dedddd;}.cls-13{fill:#101010;}.cls-14{fill:#3a241d;}.cls-15{fill:#938579;}.cls-16{fill:#e9e2dd;}.cls-17{fill:#e4c98c;}.cls-18{fill:#928276;}.cls-19{fill:#3c4446;}</style></defs><title>Ресурс 2</title><g id="Слой_2" data-name="Слой 2"><path class="cls-1" d="M186.54,238.21c.21,0,10.8-1.73,11.08,0s-.83,4.85-.83,4.85a8.17,8.17,0,0,0-4.69,7.2c0,5.2-4.42,1.75-6.46,1.25l-19-4.64-6.51-5,8.66-9.83s12.19,3.46,13.92,5A5.11,5.11,0,0,0,186.54,238.21Z"/><path class="cls-2" d="M111.58,357.15s2.25-14.65-10.43-19l-3.94,4.15s10,9.35,10.28,14.86Z"/><path class="cls-3" d="M140.18,355.28s6.92-.56,7.2,9.42S150,409.5,150,409.5s.85,7.82-6.49,8.52c-9.39.88-69.92,4.17-69.92,4.17l-.44-66.92Z"/><path class="cls-4" d="M103.24,330.13c.16,0,5.24,6.71,3.06,12.48-1.54,4.05-2.7,7-14.27,3.67"/><path class="cls-5" d="M24.18,338.52,40.25,559s-2.56,10.33,2.06,12.1,25,3.63,35.37,3.69,10.75,0,11-.26,2.39-2.65-4.21-5.61-15.06-6.7-15.11-12.47S74,529.37,74,529.37s3.88-28.26,3.74-45S80,427,81.38,421.06s10-75.75,10-75.75Z"/><path class="cls-6" d="M32.22,343.78,47.87,557.34A15.71,15.71,0,0,0,46,561.5c-.83,2.7-2.29,7.37,3,7.58s23.37,0,23.37,0l9.35-1,.69,0c-6.19-2.82-13.06-6.37-13.1-11.56,0-5.76,4.72-27.09,4.72-27.09s3.88-28.26,3.74-45S80,427,81.38,421.06s10-75.75,10-75.75l-67.18-6.79.16,2.09C26.85,341.57,32.22,343.78,32.22,343.78Z"/><path class="cls-7" d="M54.9,87.18S93.26,96.6,101,112.25c0,0,1.76,3.71-1.25,5.33l-5.13,3.53a70.37,70.37,0,0,0,6,3.88c4.16,2.5,13.3,111.63.28,142.65,0,0,3,41.55-2.5,55.13Z"/><path class="cls-8" d="M92.43,128.21s6.13-3.22,8.31,2.08,2.49,7.06,1.66,9.24,3.85,15.69,3.85,15.69,4,28.86,2.59,42.28c-1.2,11.77,1.38,38.32-5.4,69.73-1.08,1.1-2.12,1.21-3.1,0,0,0,.61-112.11-.85-119.18a12.9,12.9,0,0,0-8-9.24Z"/><path class="cls-9" d="M83.7,107.54S121,75.83,122.21,44.94L86.05,24.72S60.71,63.78,60.71,64.19V93"/><path class="cls-10" d="M60,80.64c.4-.24,13.4-16.1,13.55-18s-1.55-8-1.55-8-.85-7.89,9.28-6a4.21,4.21,0,0,0,4.12-2.86c1.24-3.11,1.24-7.53,7.84-7.43s3.06-1.87,4.78-2.49,5,.21,7.42,3,9.87,6.34,19.53,3.33,14.23-8.11,14.34-8.73,4.81-6.68,1.55-8.27a7.8,7.8,0,0,0-6.44,0s-2.92.06-4.58-4.09-17.33-10.6-17.33-10.6S90.54,3.46,81.25,8.86s-16.56,18.6-16.56,18.6L53,52.49a15.74,15.74,0,0,0,0,12.05A60.29,60.29,0,0,1,56.59,78S57.84,81.89,60,80.64Z"/><path class="cls-11" d="M7.11,337.17c.42.14,17.32,13,51.8,13.71s41.14-2.35,43.21-11.91-1.66-46.54-1.66-46.54l-3-58.86s50.69,8.59,58.17,11.36,14.27-5.68,14.55-6.65,4.29-11.77,0-17.86-4.3-5.54-7.21-6.93-13.29-1.11-13.29-1.11L102.54,197.7l-7.9-71.32s-3.87-3.74-4.08-4.23,2.49-6.23,10.94-6.51c0,0-33.86-33.58-50.2-29.29,0,0-7.07,2.63-16.07,25.62s-18.7,41-24.79,101.94L8.92,260.65s-.84,29.29-7.07,53S7.11,337.17,7.11,337.17Z"/><path class="cls-12" d="M309.31,314.46s-9.55-13.92-9.34-28.88-3.4-55.61-3.4-55.61S298,117,316.24,112.53l16.9-5L327.6,317.78Z"/><path class="cls-13" d="M321.5,311.41s66.48,4.15,69,5,1.67,8,1.67,11.92,2.77,125.2,3,135.17,2.5,96.12,2.5,96.12,3.87,9.24,1.28,10.9-32.72,7-32.72,7H360s-6.23-1.76,4.06-7.17,15.27-8.72,13.4-14.95-9.52-32.78-10.08-35.53c-.83-4-2.8-21.5-2.8-21.5s-4-3.84-3.9,6-4,52.36-4,52.36l-.1,4s2.28,9.14.2,10.9-11.53,1.56-12.36,2-28.35,1.66-28.35,1.66-6.55-1.87,1.76-6.23,13.82-7,13.82-7,5.71-3.12,3.53-12.57-5.4-29-5.4-29-3.53-31.16-2.5-37.5-1.24-38.6-1.24-38.6-15.34-125.28-22-133c0,0-1-2.7,5.89-1.59S321.5,311.41,321.5,311.41Z"/><path class="cls-14" d="M302,266.47s-3.74-117.59,1.67-121.33,8.51-15.58,8.51-15.58-5.81-3.94-8.93-3.53-4.78,11.84-4.78,11.84a9.54,9.54,0,0,1,0,7.48c-1.66,4.36-5.1,56.24-3.95,69,1.25,13.71,3.12,50.28,4.58,52.15S301.52,267.25,302,266.47Z"/><path class="cls-15" d="M315.76,102.87s-6.55-2.08-13.3-12.57S274,28.7,274,28.7h62l11,57.65Z"/><path class="cls-16" d="M350.59,97.71c0-1-2.77-14.27-2.77-14.27a113.21,113.21,0,0,1-37.91,17.73l2.31,28.39Z"/><path class="cls-17" d="M260.91,41.69s3.22,15.58,15.17,13.71,14.12-2.6,18.07-10.18S303.6,34.93,309,36.39s2.7,12.67,5.2,15.68,7.27,9.46,14.33,5.61,3,7.07,3,7.07S329.67,75.34,335,79.39c0,0,8.42,10.29,13.82,3.33s12-24.21,12-24.21l2.49-20.46s5.61-5.71-1.66-14.85S346.19,13,346.19,13,331.11-6.27,311.81,2.11c-7.9,3.43-16.62.62-16.62.62s-9-1.45-10.91,4.89-1.56,9.66-1.56,9.66C277.78,18.61,257.68,26.48,260.91,41.69Z"/><path class="cls-18" d="M227.74,238.56c-1.8-.36-21.33-.69-21.33-.69s-.69,3,0,3.6-8.31,1.1-8.31,1.1-11.91,5.68-3.18,7.9,24,1,26,0,6-2.22,6-2.22Z"/><path class="cls-19" d="M323.23,239.88s-.41,32.61,2.7,54.84c0,0-2.71,25.14-1.36,30.33s8.43,11.84,15.28,12.88,44.67,3.53,50.9-11.84,3.12-69.6,3.12-69.6,2.49-48.61-3.74-71.67-17.87-62.11-38-88.29c0,0-4.78-2.49-7.89,2.91,0,0-24.52,5-31.79,26.38s-15.58,49.86-16.2,76.87c5,16.62-69.81,33-69.81,33s-4.57,19.53,3.74,21.81,18.7,2.08,27.84-.62,53.18-11.43,61.08-18.7C323.64,235.41,323.23,239.88,323.23,239.88Z"/></g></svg>