<svg xmlns="http://www.w3.org/2000/svg" viewBox="0 0 998.52 1002.19">
  <defs/>
  <defs>
    <style>
      .cls-7{fill:#c05c10}.cls-9{fill:#5a4722}.cls-19{fill:#06a0d4}.cls-21{fill:#0088bc}.cls-28{fill:none;stroke-linecap:round;stroke:#e7a902;stroke-miterlimit:10;stroke-width:3px}
    </style>
  </defs>
  <g id="Слой_2" data-name="Слой 2">
    <path fill="#442c25" d="M660.93 942.88s-18.7 22.24-32.29 22.94-22.94 1.59-20.64 10.59 15.18 7.41 15.18 7.41 44.11-.17 60.7-7.76c0 0 1.24 0 1.41 7.87H713s7.76-17.58 4.76-27.64z"/>
    <path fill="#462d28" d="M792.93 959.12c-.53 0-15.53 18.35-22.41 21.35s.71 17.82 3.71 17.29 11.29 7.42 32.11 3.18 34.41-8.29 34.94-12.7 5.47-24.36 12.36-31.24c0 0-3.53-11.82-9.71-14.12z"/>
    <path fill="#628d12" d="M634.64 595.41L641 792.35l17.65 159.53s34.11 23.53 63.29 3.06c0-1.18-1.65-4.23-2.82-11.29s-9.88-303.53-9.88-303.53 18.35 62.59 20.23 80.47 35.29 144 35.29 144 22.59 52.2 23.06 92.69c0 0 13.24 13.57 44.83 6 0 0 13.76-4.72 15.88-15.13l-12.71-105s-3.54-44.15-16.24-62.65l-16-43.91s-8-23.77-9.41-66.59-3.53-85.18-3.53-85.18z"/>
    <path fill="#f6ba12" d="M644.05 369.53s-24.24-8.12-31.65 7.06l-12.35 35.65s-12.71 76.94 0 87.52 32.47 6.36 32.47 6.36l2.12.83-1.06 38.34-7.06 60.36s39.53 6 65.65-1.77l4.94-11.47 8.82 10.94 99.18-20.29-42-103.53s9.64-122.24-13.41-151.41c0 0-9.89-12-48.47-8.71l-13.65-.57-38.35 49.51z"/>
    <path fill="#f1c1a0" d="M681.7 289.29s4 22.83 6.82 24.71l-25.41 45.41-17.41-6.12z"/>
    <path fill="#f4c8a3" d="M640.52 402.24c.47-.71 4-21.89 4-21.89l7.06-10.82V350s11.53-5.65 15.53-22.12 8.47-27.06 9.17-27.76 9.36-12.36 9.36-12.36l-7.77-20.41L594 286.76l11 14.77s-2.12 16.23 2.35 19.53a13.08 13.08 0 015.06 8.23l9.53 10.86-8.23 7.26 9.64 29.41-3.53 9.65z"/>
    <path d="M683.17 292c-.15.57 12.88-8.21 12.17-18.79s-.32-18.36-6.07-24-19.52-16.77-29.93-18.36c0 0-.7-4.94-7.41-4.94s-24.88-1.59-37.06 8.65-24.87 25.2-24.35 36.32 3.35 22.77 8.65 24.53l.17-8.47s8.3 5.65 33.18 3.88 31.41-1.23 38.29-9.7 11.3.53 11.3.53 1.76 7.59 1.06 10.35z" class="cls-7"/>
    <path fill="#fdffeb" d="M671.58 422.71l29.88-103.77-13.65-7.76-26.82 44.47-11.76-7.06 1.64 21.41 20.71 52.71z"/>
    <path d="M661.58 356.94l-8.35 7.77 8.35 14 .1 19.63 9.83 25.15 6.77-23.61s-11.53-22.23-11.41-22.94 5.18-13.53 5.18-13.53z" class="cls-9"/>
    <path fill="#f9c082" d="M471.58 266.47v47.29l53.17 1.42-1.88-33.65-51.29-15.06z"/>
    <path fill="#f8d6a3" d="M471.7 269.41s9.53 29.77 26.23 32.83 23.3-4.71 23.3-4.71 10-15.06 11.41-29.65 0-46.35 0-46.35l-8.12-25.29-54.59 10.35-5.53 37.76s-6.7-2.82-6 4.12 3.18 17.88 6.83 18.71a31.83 31.83 0 016.47 2.23z"/>
    <path fill="#462d2a" d="M468.75 256.94s-3.88-12.35-8.47-14.12-2.47-32.11 0-36.7 6.18-18.71 24.36-21.36 29.82-2.29 36.17 2.12 14.83 30.18 12.36 44.3c0 0-6.18-25.42-11.83-29.12s-37.23 4.76-37.23 4.76-12.18 12.36-14.3 20.65-1.06 29.47-1.06 29.47z"/>
    <path d="M441.93 947.41c.22 5.35 3.67 20.37 3.77 25.88 0 0 .23 8.74-1.95 9.24s-22.29-.56-22.29-.56-.46-1.97-3.46-1.06-15.79 3.18-15.79 3.18l-38.42-9.85s20.42-12 30.65-25.71z" class="cls-9"/>
    <path fill="#5b4721" d="M487.55 953.65s-6.44 9.79-5.74 16.14a112.49 112.49 0 01.62 12.45h23.74s2.47-2.74 10.58 0 38.12 10.32 43.06 10.58 18.62-.53 22-5.11 1.86-11-4.41-11.56-17.47-2.83-24.88-9.27-20.52-19.5-20.52-19.5z"/>
    <path fill="#361e19" d="M272.28 963.18s2 9.88 15.42 10.23 30 3.53 31.05 7.18-2.35 11.29-10.7 12.12-97.65 0-97.65 0-5.76-16.47 2.94-25.65"/>
    <path fill="#492c28" d="M346.28 955.24s19.24 16.23 20 16.41 35.82 1.76 36.88 7.94 1.23 12.44-13.41 13.28-91.06 0-91.06 0-7.94-11.52 1.59-32.87z"/>
    <path fill="#002937" d="M258.87 671.18s-51.12 280.6-50.34 292v5.53s44.41 5.58 56.23 1.17 13.42-12 13.06-16.94-2.11-34.06 4.59-44.12z"/>
    <path fill="#32192f" d="M391.46 930.35c1.51 2.49-3.29 16-1.88 17.3s39.17 7.17 49.76 1.29c0 0 11.37-28.48 6-15.53-1.37 3.32-7.15-138.13 10-218.47l15.3-80.94S489.7 711.41 489 738.47s0 170.82 0 170.82-1.43 17.65-4.49 23.06-.71 24 0 24 48 4.24 50.59-5.41c0 0-3.06-23.29-6.59-32.23 0 0 15.06-111.53 13.65-126.36l30-221.29-20.46-45.53-59.65-11.29s-12.35-2.83-32.47-2.48-57.88 2.48-57.88 2.48l-15.89 56.82L382.64 894s2.82 26.47 8.82 36.35z"/>
    <path fill="#01354a" d="M288.05 958.94s48.94 8.47 49.65 8.47 11.76 1.41 9.41-9.41-13.88-72.71-15.06-93.18-.24-54.58 1.18-63.06 22.58-250.11 22.58-250.11h-108.7l-9.18 28.23s-3.53 14.12 0 33.53 14.82 59.65 14.82 59.65z"/>
    <path d="M309.4 332.82l8.65-8.29 13.59 4.15s7.06 3.44 7.23-2.56a54.88 54.88 0 000-7.06l4.41-3.71v-5.64h5.47l2.12-6.89h7.06s4.59 1.24 2.65-3.88-6.35-16.06-6.35-16.06-1.77-4.76 3.52-8.12c0 0 .53 2.48 1.24-6.35s3.35-29.29 3.35-29.29l-97.41 31.06 4.41 21-2.82 18.53z" class="cls-7"/>
    <path d="M312.28 330.35l13 34.94-71.89-43.88 7.48-17.41z" class="cls-19"/>
    <path fill="#ffffec" d="M400.28 513.18s-15.88 8.47-17.64-16.94-2.12-144.71 16.23-157.06 73.06-48.36 73.06-48.36l33.88 22.94 18-11.29s4.24 16.94 24.71 22.24 36.71 14.82 40.94 25.05 22.94 94.59 22.94 94.59-5.29 38.83-16.23 45.18-43.77 36.35-43.77 36.35l-70.59-13.76z"/>
    <path d="M243.81 559.65h90.59s15.06 3.76 23.06 12.94 11.06-16.24 11.06-16.24l-7.29-51.76s24.7-5.88 14.82-42.83l19.53 5.42 19.53-45.65-26.59-6.35-66.12-54.59-19.29-26.35-49.41-14.36-28.95 43.77s19.3 128.7 28 147.06c0 0-8.7 42.82-8.94 48.94z" class="cls-21"/>
    <path fill="#c25a14" d="M359.87 493.68s23.83-23.47 5.47-40.24l-31.06-14.2s-9.28-7.24-12.17 2.55c0 0-12.26-1.67-4.15 12 3.09 5.21 34.24 21.09 34.24 21.09s5.55 16.86 7.67 18.8z"/>
    <path fill="#301931" d="M506.52 314.35l-9.29 8.59 6.35 12.47-7.65 165.77 6.18 11.11 10.41-9 2.47-168.88 2.29-11.47-10.76-8.59z"/>
    <path fill="#063756" d="M530.17 435.18l-14.47 32.64 29.11 18.36 24.18-33.36-38.82-17.64z"/>
    <path fill="#f6c27b" d="M556.81 439.59s11.3 10.94 11.83 10.76 6.88-3 6.88-3 11.12-4.59 6.35 5.3l-1.82 2.76.94.71s11.06-3.41 6.12 4.94l-5.06 3.88s-1.53 3.88 1.06 3.18 7.06.23 3.64 4.35-17.87 16.2-28.7 16.47c0 0-5.17-1.64-6.47-9.29-1.18-6.94-7.3-29.06 5.23-40.06z"/>
    <path fill="#fad5a0" d="M477.05 462.35c.49-.4 15 0 15 0s6.18-7.59 12.35-8.29 9.35 1.59 9.88 1.59 7.42-1.73 7.42-1.73l6.17 4.22-7.94 6.51a9.19 9.19 0 002.47 1.35c1.24.38 13.06 1.09 13.06 1.09l18.88-10.77s7.94 1.77 2.12 5.65-22.41 14.47-22.41 14.47 8.65 3.35 13.76 0 10.24-10.94 12.36-12.53 2.82 1.59 2.47 6.18-3.71 11.29-7.59 14.64-15 9.18-33.18 7.42-24.17-4.24-24.17-4.24l-22.42 2.47s-18.36-11.48 1.77-28.03z"/>
    <path fill="#bd5c13" d="M429.4 463.59c1.41-.35 63.88-21.53 63.88-21.53s10.77 12.88 23 9l17.11 14.47s11.12.71 5.47-7.41-8.86-10.41-8.86-10.41-.18-6.71 11.65 1.23l2.64 13.77s4.77 7.58 6.53-.18v-13.24s3 3.71 5.3-.35 4.06-12.7 4.06-13.23-2.12-4.24-9.18-5.65-39.71-3.71-49.06-5.65-58.94 2.3-58.94 2.3z"/>
    <path d="M415.46 414.71l-21.53 51.35 7.94 8.29 24.36-1.06 25.5-47.91-36.27-10.67z" class="cls-19"/>
    <path d="M649.93 410.94s-5.65 82.35-14.59 93.65M656.75 464.35l39.77 13.18s8.23 3.53 15.76-6.59 41.65-70.82 41.65-70.82M656.75 422.71s33 8.12 45 16.41M714.17 347.65l-28.94 83.26M685.23 486l11.05 101.18" class="cls-28"/>
    <path fill="#ff5103" d="M949.46 347.65h33.88v115.7h-33.88z"/>
    <path fill="#faae02" d="M895.81 390.22h33.53v76.02h-33.53z"/>
    <path fill="#33caa2" d="M842.17 428.23h33.18v35.89h-33.18z"/>
    <path fill="#d1d9de" d="M823.81 461.29h174.71v14.47H823.81z"/>
    <path fill="none" stroke="#068bbd" stroke-linecap="round" stroke-linejoin="round" stroke-width="11" d="M541.46 123.65l54.35-48.24 66.36 48.24 61.64-56.24"/>
    <path fill="none" stroke="#0d2e40" stroke-linecap="round" stroke-linejoin="round" stroke-width="11" d="M697.46 65.06h27.53l.94 28.23"/>
    <path fill="#452e28" d="M267.59 292.59l28.06-7.24s4.23-1.41 3.7-5.29-2.29-16.77 8.47-16.06 11.83 8.65 11.83 8.65l6.53-18s14.82-11.83 20.29-9.53 12.53 8.29 12.53 8.29a31.47 31.47 0 014.24-2.12 25.4 25.4 0 013.17.89v-5.12l5.12-4.24-5.29-.88-12.89-17.65-35.11-9h-18l-1.59-1.76-13.59 10.76-6 2.12-18.53 30z"/>
    <path fill="#35c9a2" d="M123.71 249V145.48L197.39 219c-19.5 19.85-44.39 29.15-73.68 30z"/>
    <path fill="#fbae00" d="M103.12 0h-.94v102.7l73.51-72.84A102.79 102.79 0 00103.12 0z"/>
    <path fill="#ff5100" d="M175.69 29.87l-73.51 72.84 73.58 73.58a103.08 103.08 0 00-.07-146.42z"/>
    <path d="M102.18 102.71V0A103.1 103.1 0 000 102.71z" class="cls-21"/>
    <path fill="#79d6e6" d="M0 103.12a103.11 103.11 0 00102.18 103.1V102.71H0v.41z"/>
  </g>
</svg>
