<svg xmlns="http://www.w3.org/2000/svg" viewBox="0 0 926.65 648.98">
  <defs/>
  <defs>
    <style>
      .cls-2{fill:#d34e4e}.cls-3{fill:#ccd2d9}.cls-5{fill:#3b455a}.cls-6{fill:#fff}.cls-7{fill:#ccc}.cls-8{fill:#7fc5a3}.cls-9{fill:#eac5b0}.cls-10{fill:#e5e5e5}.cls-11{fill:#b97262}.cls-12{fill:#ebb044}.cls-14{fill:#474ebb}.cls-15{fill:#939598}.cls-16{opacity:.22}
    </style>
  </defs>
  <g id="Слой_2" data-name="Слой 2">
    <g id="object">
      <path fill="#f1f2f2" d="M448.14 546.28c-84.62 1.5-170.91-13-254.82 5-56.58 12.11-118.32-2.13-171.71 28.64-57.09 32.89 13.92 46.49 41.39 54.46 74.3 21.61 145.51 13.09 220.94 12.19 50.74-.61 101.49-1.47 152.08-5.92 47.54-4.19 95.26-3.67 142.95-4.36 48.91-.7 97.49-1 146.14 5.46 21.2 2.81 42.77 3.59 64.06 5.46 19.07 1.68 37.34-.57 56.27-2.65a125.05 125.05 0 0046-14.28c11.37-6.18 31.51-25.16 34.82-39.57 9.26-40.39-139.32-37.29-162.14-36.87-25.52.47-51.23 1.77-76.75 1.06-10.74-.29-21.34-2.44-31.85-4.82s-21-1.57-31.55-2.48c-44.17-3.77-88.36-2.49-132.61-1.85-14.36.25-28.82.25-43.22.53z"/>
      <path d="M402.86 85.73c2.62-1.85 5.73-2.36 8.75-2.8q22.93-3.39 46-5.05c23.55-1.69 47.88-1.89 69.84 8.35 3.62 1.69 7.81 5.12 6.93 9.62-.73 3.76-4.5 5.21-7.68 5.93-31.12 7-63.07 5.88-94.72 4.76-5.72-.2-47.98-7.49-29.12-20.81z" class="cls-2"/>
      <path d="M494.63 569.04l-108.8-1.21 10.76-83.15 89.13.99 8.91 83.37z" class="cls-3"/>
      <path d="M393.49 507.69l94.16-4.01 2.61 24.49-96.77-20.48z" opacity=".14"/>
      <path d="M154.15 97.9V500a7.68 7.68 0 007.68 7.68h557.73a7.68 7.68 0 007.68-7.68V97.9a7.37 7.37 0 00-7.37-7.37H161.52a7.37 7.37 0 00-7.37 7.37z" class="cls-3"/>
      <path d="M154.15 96.74v359.35h573.09V96.74a6.84 6.84 0 00-6.84-6.84H161a6.84 6.84 0 00-6.85 6.84z" class="cls-5"/>
      <path d="M169.26 106.64h542.87v329.97H169.26z" class="cls-6"/>
      <path d="M354.71 557.59h171.96v29.99H354.71zM168.82 106.64h542.83v28.03H168.82z" class="cls-3"/>
      <path d="M528.33 113.79h170.59v13.72H528.33z" class="cls-6"/>
      <path d="M684.94 119.3h8.6l-4.3 3.64-4.3-3.64zM678.39 114.79h.82v11.47h-.82z" class="cls-7"/>
      <path d="M202 121.12a9.17 9.17 0 11-9.17-9.17 9.16 9.16 0 019.17 9.17z" class="cls-8"/>
      <path d="M163.01 554.72l6.25 5.46-5.48 20.98h-6.6l-3.88-15.36 5.14-12.09 4.57 1.01z" class="cls-5"/>
      <path d="M85.06 365.91l45.48 8.51-26.09 91.43 55.13 88.73-6.28 11.22-79.16-84.11-7.15-20.87 4.96-84.35 13.11-10.56z" class="cls-3"/>
      <path d="M165 365.9l-12.01 84.58-14.79 127.86-15.3-1.24-7.57-129.11 4.7-81.61 44.97-.48z" class="cls-3"/>
      <path d="M54.07 389.16a462 462 0 01-3.09 11.2 3.59 3.59 0 00-.15 2.43 3.42 3.42 0 001.5 1.41 30.7 30.7 0 0025.22 2.67c4.07-1.38 7.82-3.62 12-4.81 6.93-2 14.19-.92 21.25-.53s13.11-1.39 19.83-1.94c16.49-1.36 20.9-2.18 36.59 2.75 0-29.69 6.07-52.53 1.55-80.46l-13.37-82.74c-.76-4.65-1.54-9.4-3.46-13.49-8.69-18.52-29.13-22.06-47.28-16.76C95.37 211.58 88 222 83.48 230.1c-5.8 10.35-9 22-11.29 33.57-7.18 36.2-7.42 73.5-14.55 109.71q-1.56 7.94-3.57 15.78z" class="cls-8"/>
      <path d="M115.57 212.77a3.7 3.7 0 00.68 1.07 8.59 8.59 0 004.66 2.58 21.26 21.26 0 007 0c3.17-.37 3.19-2.2 3.84-5a82.89 82.89 0 001.45-9.28c4.53-.37 9.91-1.36 11.87-6a16.36 16.36 0 00.94-4.69l2-19.79a19.74 19.74 0 00-.13-6.82c-1-3.84-4.21-6.37-7.43-8.07-8.22-4.35-18.19-5.12-26.54-.78a14.64 14.64 0 00-5.79 4.94c-2.2 3.46-2.37 8-2.47 12.17l-.26 11.66c-.1 4.47.09 9.64 3.25 12.3 1.68 1.41 4 1.85 5.37 3.61 1.76 2.19 1.41 5.28 1.3 7.89-.07 1.53-.31 2.93.26 4.21z" class="cls-9"/>
      <path d="M140.94 163.9a6.76 6.76 0 01.44 1.16c.56 2.11-.09 4.39.46 6.5.86 3.35 4.53 5.58 4.86 9 .27 2.81-1.82 5.32-2.18 8.12-.4 3.06 1.36 6.11.83 9.12a20.11 20.11 0 01-4.11 8.2c.53-.62 4.92-.07 6.12-.68 1.83-1 2.08-1.61 2.73-3.4s.38-3.59 1.32-5.39c1.15-2.21 3.31-3.74 4.2-6.12 1.21-3.24-.3-6.87.08-10.32.59-5.21 5.46-9.81 4.18-14.9-.75-3-3.45-5.05-4.85-7.79-1.06-2.08-1.34-4.46-2-6.7s-2-4.51-4.16-5.33a37.15 37.15 0 00-3.81-.74c-2.18-.56-3.89-2.21-6-3.08-3-1.25-8.54 1.43-10.49 3.87s-1.21 4.66.42 7.05c2.74 3.99 9.8 6.97 11.96 11.43z" class="cls-5"/>
      <path d="M98.76 145.7c-1.92 1.21-4.23 2-6 3.45-3.46 2.8-4.43 7.62-4.86 12-.39 3.94-2.37 7.33-2.24 11.48a10.07 10.07 0 003.19 7.46c2.66 2.24 7 2.89 8.05 6.21 1.11 3.6-2.85 7.76-.86 11 1.1 1.76 3.46 2.18 5.12 3.44 1.85 1.4 2.69 3.72 3.73 5.8s2.68 4.19 5 4.41c.35-3.52.66-6.3-.61-9.63-.74-1.94-3.07-5.58-1-7.47 1.37-1.6 4.36-1.94 4.59-4a4.9 4.9 0 00-1-2.74 12.11 12.11 0 01-.1-11 15.74 15.74 0 018.38-7.47c4.16-1.66 3.59-2.69 5-6.46 1.34-3.47 3.41-4.16 6.7-5.22 3-1 3.92-1.61 5.17-4.22.92-1.91 2-4.19 1.08-6.47a13.27 13.27 0 00-3.76-4.46c-3.07-2.72-6.53-5.59-10.63-5.59-2.28 0-4.49.91-6.76.88-1.52 0-3-.47-4.51-.63a12.14 12.14 0 00-7.56 1.7c-2.22 1.4-2.27 3-3.6 5.14a8 8 0 01-2.52 2.39z" class="cls-5"/>
      <path d="M108.93 131.89c.58-2.43.55-5.64-1.73-6.64-1.25-.55-2.73-.15-4-.52-2.8-.79-3.52-4.3-4.83-6.9a2.28 2.28 0 00-.82-1 3.56 3.56 0 00-1.84-.08c-2.85.14-4.8-2.81-7.39-4a6.71 6.71 0 00-8.75 3.58c-.51 1.36-.54 2.86-1 4.23-2 5.56-10.43 7.37-11.06 13.22-.43 4 3.18 8 1.4 11.6-1.13 2.28-4.27 3.66-4.1 6.2a3.51 3.51 0 003.38 3 7.14 7.14 0 004.51-1.68c2.07-1.57 3.7-3.65 5.69-5.32s4.58-2.95 7.12-2.45 4.59 2.6 7.09 2.36c2-.19 3.6-1.85 5.59-2.21s3.69.52 5.56.77 4.24-.56 4.42-2.44a4.66 4.66 0 01.13-1.35c.49-1.19 2.55-1 3-2.15-.87-1.58-2.29-1.14-2.85-3.16-.45-1.61.12-3.54.48-5.06z" class="cls-5"/>
      <path d="M862.34 549.52l-5.88 6.91a159 159 0 01-21.22-19.77c3.93-1.9 6.67-7.41 11.78-3.16 1.65 1.38 14.98 16.5 15.32 16.02z" class="cls-9"/>
      <path d="M851.86 553.61a6.53 6.53 0 00-1.24 4.62 17.23 17.23 0 01.29 3 6.44 6.44 0 01-.95 2.55c-2.27 4.12-10.18 14.91.84 15.11 10 .19 16.41-16.39 19.8-24.61a3.27 3.27 0 00.36-1.75 4.25 4.25 0 00-.93-1.86c-2.33-3.12-5.82-7.95-9.13-4.66-1.41 1.4-1.86 3.79-3.46 5.19-1.31 1.16-4.73 1.33-5.58 2.41z" class="cls-5"/>
      <path d="M830.35 367.66c1.91 13-.48 25.76-1.77 38.51-1.44 14.33 0 26.51 2.82 40.75 3.12 15.57 6.53 31.11 10.89 46.4 4.54 15.93 11.25 28.58 18.9 43a8.21 8.21 0 011.26 3.93c-.17 5-21.68 18.57-23.08 15.73-11.83-24.14-30.82-48.39-41-73.35a1209.21 1209.21 0 01-45.65-133.31c-1.8-6.47-3.46-13.88-.25-19.37 2.46-4.21 7.13-6.06 11.56-7.45 11.84-3.72 33.2-11.85 45-4 12.97 8.71 19.18 34.58 21.32 49.16z" class="cls-10"/>
      <path d="M765.86 576.57l-8.71-.18a180.84 180.84 0 01-.61-30.2c4 1.91 9.59.48 10.08 7.42.17 2.24-1.34 22.95-.76 22.96z" class="cls-9"/>
      <path d="M756 570.81a5.56 5.56 0 00-4 2.05 15.22 15.22 0 01-1.87 2.23 5.41 5.41 0 01-2.4.92c-4.36.9-17.1 1.65-9.86 10.67 6.59 8.2 22.31 2.41 30.26-.29a2.82 2.82 0 001.45-.87 4.38 4.38 0 00.65-2c.59-3.95 1.58-9.95-2.91-10.45-1.91-.22-3.86 1-5.9.64-1.68-.28-4.09-2.92-5.42-2.9z" class="cls-5"/>
      <path d="M809.92 384.58c-3.52 19-15 33.66-20.27 52.14-10.28 35.72-12.46 76.64-17.47 113.7-.38 2.84-.33 13-.33 13s-13.64 2.74-21.87 1.07a1239.38 1239.38 0 01-6.98-223.3c.4-6.76 1.25-14.37 6-18.52 3.66-3.18 8.64-3.38 13.24-3.23 12.29.42 34.94-.17 43.49 11.31 9.43 12.54 6.89 39.25 4.19 53.83z" class="cls-10"/>
      <path d="M759.87 223.19l13.72-1.78a69.56 69.56 0 00-1.08-11c3.79-1.46 8.14-3.61 8.69-7.62a11.36 11.36 0 00-.34-3.8l-3.15-15.51a13.92 13.92 0 00-1.78-5.14c-1.79-2.66-5.16-3.74-8.33-4.19-8.09-1.16-16.81.84-22.9 6.3a12.43 12.43 0 00-3.74 5.25c-1 3.19-.09 6.65.86 9.87l2.63 8.91c1 3.41 2.42 7.29 5.78 8.48 1.78.63 3.85.37 5.48 1.34 2.86 1.7 2.61 5.93 4.16 8.89z" class="cls-11"/>
      <path d="M711.87 172.72a35.83 35.83 0 00-2.7-3.65c-2.14-2.48-4.75-4.59-6.5-7.36s-2.44-6.59-.52-9.25c1.23-1.72 3.29-2.62 5.31-3.27a39.22 39.22 0 0120.64-1c6.48 1.45 12.31 4 18.72 1.38 6-2.45 10.43-1.66 16.86.42 7 2.25 16.21 2.56 22.54 5.84a18.38 18.38 0 016.47 6 27.68 27.68 0 01.95 29.27 39.4 39.4 0 01-4.15 5.56c-3.14 3.62-6.89 8.08-11.32 9.52-.22-4 3-16.7-.12-19.88-5-5-16-2.91-22-1.46-6.55 1.6-12.28 6.43-18.78 7.63-4.68.85-10.75-1.27-14.82-3.59-5-2.83-7.55-11.51-10.58-16.16z" class="cls-5"/>
      <path d="M788.9 217.66c9.21 4.88 16.35 13.75 21.08 23.08 18.92 37.35 28.13 78.73 37 119.64 2.88 13.28 6.3 27.52 16.54 36.44-9.07 1.69-18.59 2.94-27.38.15-5.75-1.82-10.82-5.27-16.25-7.87-13.61-6.53-29.32-7.64-44.3-5.76s-29.44 6.59-43.79 11.27a167.81 167.81 0 01-1.19-32.07C732.39 331 745 301 745.09 269.32c0-11.19-1.52-22.54 1-33.44a27.75 27.75 0 0128.57-22.1 32.65 32.65 0 0114.24 3.88z" class="cls-12"/>
      <path fill="#8ec3cb" d="M486.12 167.78h185.89v242.39H486.12z"/>
      <path d="M112.34 336.77a12.3 12.3 0 002.39.6 65.92 65.92 0 008.42.81c2 .09 4.07.13 6.11.13 9.41 0 17.09-.91 17.67-2.06v-.33.08a1.94 1.94 0 000-.24v-40a2.36 2.36 0 00-.1-1.07.78.78 0 00-.33-.35 3.87 3.87 0 00-.59-.25 25.8 25.8 0 00-6.31-1.09c-3.44-.31-6.89-.42-10.34-.42s-6.91.11-10.35.42a26 26 0 00-6.37 1.06c-.58.21-1.24.49-1.2 1.18v39.83c0 .55-.07 1 .38 1.34a2.33 2.33 0 00.62.36z" class="cls-2"/>
      <path d="M123.52 583.87l-2.27 10.38 10.8 1.12 5.57-9.81.58-7.22-15.06-3.05.38 8.58z" class="cls-5"/>
      <path d="M146.68 295c0 1.18-7.84 2.13-17.51 2.13s-17.51-.95-17.51-2.13 7.84-2.14 17.51-2.14 17.51 1 17.51 2.14z" class="cls-2"/>
      <path d="M128.58 293.7c-8.19 0-14.89.88-15.41 2.21 2 .66 8.22 1.26 15.87 1.26 6.61 0 12.34-.26 15-1 0-.07.7-.09.7-.15-.05-1.4-7.64-2.32-16.16-2.32z" class="cls-6"/>
      <path d="M116.87 305.33c-3.77-3.52-8.67-5.85-13.53-3.92a12.11 12.11 0 00-7.17 9.71c-1.17 8.93 9.47 16.28 16.66 12.88 2.08-1 .61-4.29-1.49-3.28-5.32 2.56-12.44-4.05-10.7-9.77 2.06-6.73 8.69-7 13.47-2.61 1.89 1.75 4.69-1.2 2.76-3.01z" class="cls-2"/>
      <path d="M127.31 265.69c1.58.09 1.57-2.37 0-2.46-3.8-.22-7.27 2-7.71 6a7.47 7.47 0 001.49 5.17c2 2.86 7.11 6.14 2.17 9.63-1.28.9-.05 3 1.24 2.12a6.77 6.77 0 003.06-7.1 8.12 8.12 0 00-2.15-3.6c-.92-1-2.41-2-2.85-3.31-1.18-3.53.94-6.68 4.75-6.45zM139 268.16c1.58.09 1.58-2.36 0-2.45-3.8-.23-7.26 2-7.71 6a7.39 7.39 0 001.5 5.16c2 2.87 7.1 6.15 2.17 9.64-1.29.9-.06 3 1.24 2.12a6.77 6.77 0 003-7.1 7.94 7.94 0 00-2.15-3.6c-.92-1-2.4-2-2.85-3.31-1.15-3.53.97-6.68 4.8-6.46z" class="cls-6"/>
      <path d="M108.78 311.42a4.36 4.36 0 00-.2-.73c-.86-2.19-3.21-2.28-4.48-3.9-.57-.72-.42-3.59-1.92-3-.55.21-2.46.74-4.35 1.4-1.62 0-3.25 0-4.85-.24-4-.53-11.59-6.55-15.09-1.77a10.08 10.08 0 00-1.7 3 8.35 8.35 0 00-.28 2.72c0 .71-.12 1.84.37 2.28s2.31.48 3 .63l6 1.25c2 .41 4.25 1.08 4.82 3a11.27 11.27 0 00.34 1.3 3.3 3.3 0 001 1.1 22.16 22.16 0 004.58 2.93c3 1.34 7.54-1.53 10.21-3a5.34 5.34 0 001.81-1.34 5.7 5.7 0 00.83-3.51 10.65 10.65 0 00-.09-2.12z" class="cls-9"/>
      <path d="M37 273.9a26 26 0 00-1.79 10.84c.23 4.05 2.48 7.78 5.43 10.57a42 42 0 0010.19 6.59 214.28 214.28 0 0033.64 13.56l5.79-11.8a3.09 3.09 0 00-1.56-5l-12.59-6.85c-3.94-2.14-8.13-4.53-10.08-8.56-3.75-7.73 4.83-11.06 9.12-15.45 5.84-6 11.87-11.78 17.53-17.91 5.35-5.47 10.86-11.18 13.2-18.31 4.66-14.18-.15-24.08-13.51-18.21-8.47 3.72-14.81 10.28-23.73 18.43C56.57 242.84 42.9 258.41 37 273.9z" class="cls-8"/>
      <path d="M334.79 184.85a94.83 94.83 0 00-71.86 32.82l71.86 62.27 71.86-62.27a94.83 94.83 0 00-71.86-32.82z" class="cls-14"/>
      <path d="M263 218a95 95 0 0011.42 134 96.57 96.57 0 0011 8l50.31-80.68z" class="cls-12"/>
      <path d="M335.6 374.48a94.62 94.62 0 01-51.4-15.1l51.41-80z" class="cls-8"/>
      <path d="M453.7 258.19a94.64 94.64 0 00-22.25-48.73l-71.86 62.26z" class="cls-2"/>
      <path d="M439.62 272.64l-94.12 13.53v95.08a95 95 0 0095.09-95.08 97.27 97.27 0 00-.97-13.53z" class="cls-3"/>
      <path d="M394.6 546.86c-10.31-5.7-20.43 1.3-27.77 7.91-14.56 13.09-30.39 24.71-45.92 36.66a965 965 0 00-13.32-7.39c-15.72-8.24-31.77-16-46.58-25.61-7.23-4.72-17.13-9.11-26.82-.73-7.94 6.87-10.82 19.21-8.29 26.7s9 11.26 15.4 14.38c16.17 7.87 35.11 17.78 53.22 19.76 7.89.87 16.77.33 24.74.12 12.53-.32 26.4-.91 37.24-7.49a440.7 440.7 0 0032-21.71c6.55-4.82 13.12-10.27 15.51-18.38s-1.01-19.55-9.41-24.22z" class="cls-15"/>
      <path d="M380.91 588.49c-1.2-10.37-6.39-18.61-16-23.11-7.79-3.66-16.54-4.52-25.08-5.62-19-2.43-37.15-4.87-56.34-4.12-15.35.61-24.81 13.7-32 26.61-4.53 8.14-3.27 12 2.43 18.78a69 69 0 0018.75 15.68c14.11 8 35.78 6 51.31 4.3a120 120 0 0042.09-12.84c8.43-4.4 16.01-9.58 14.84-19.68z" class="cls-15"/>
      <path d="M322.8 427.69l16.91 1.65a105.71 105.71 0 001.53-15.08c4.91-.86 10.69-2.47 12.37-7.71a17.82 17.82 0 00.57-5.21l.19-21.83a21.3 21.3 0 00-.8-7.44c-1.48-4.1-5.24-6.55-8.92-8.09-9.41-3.94-20.38-3.8-29.08 1.76a16 16 0 00-5.84 6c-2.06 4-1.81 8.92-1.5 13.53l.86 12.77c.33 4.9 1 10.53 4.76 13.12 2 1.38 4.53 1.64 6.23 3.42 3 3.11 1.62 8.68 2.72 13.11z" class="cls-9"/>
      <path d="M334.25 409.89a13 13 0 004.61-.77c3.17-1.16 5.55-3.6 7.81-5.95a70.16 70.16 0 0011.18-14.93c3.26-6.09 1.59-13.15 3.91-19.5 2.05-5.62 7-10.27 7.74-16.16a24.2 24.2 0 01-7.62 1.72 9.51 9.51 0 002.88-6.91 38.69 38.69 0 01-10 5.57 4.54 4.54 0 001.12-4.38c-2.31 3.38-7 4.74-11.28 4.82s-8.59-.86-12.9-.93a31.54 31.54 0 00-23.57 10.32c-4.69 5.23-6 9.55-6.1 16.46-.08 4.34-.14 8.81 1.54 12.86 3.2 7.73 11.85 12.17 20.11 15.32 3.32 1.28 7.01 2.46 10.57 2.46z" class="cls-5"/>
      <path d="M331.88 422.81c7.23-1 14.57-2.27 20.63.37 5.12 2.23 5 8.71 6.18 13.61a519.49 519.49 0 018.88 49.07c1.07 7.88 2.91 16.32 2.87 24.28 0 6.39-1.64 12.59-1.15 19.1.38 5 2.51 10.4 7.09 12.45 2.3 1 4.95 1.07 7.26 2.09s4.28 3.74 3.12 6a6.21 6.21 0 01-2.71 2.29l-17.13 9.55a90.89 90.89 0 01-13.45 6.57c-6.66 2.39-13.78 3.21-20.85 3.56a171.68 171.68 0 01-54.27-6c-9.49-2.62-18.65-7.26-16.35-18 2.37-11 6.95-22.07 11.89-32.18 6-12.25 7.75-27 12-39.92 4.29-13.1 8.83-26.11 13.4-39.11l.06-.15c1.67-4.75 2.35-9.45 6-13.3 5-5.28 7.47-1.08 13.19 0 4.18.81 8.74.34 13.34-.28z" class="cls-14"/>
      <path d="M401 360.33a2.33 2.33 0 001.59-1.22c1-1.7 1.17-4.3 2.06-6.16 1.45-.71 3.3.22 4.1 1.63a8 8 0 01.64 4.73 31.19 31.19 0 01-2.1 8.78 3.15 3.15 0 01-.59 1c-.79.81-2.22.62-3.05 1.38s-.78 1.7-1.47 2.31-2 .53-3.09.26c-2.5-.64-6.65-1.2-5.57-4.77.56-1.85 4-5.7 5.46-7a4.14 4.14 0 012.02-.94z" class="cls-9"/>
      <path d="M391 368.4a29.9 29.9 0 0115.38 2.87c-5.11 27.2-15.34 53.14-25.51 78.88a5.61 5.61 0 01-1.52 2.48 5.46 5.46 0 01-2.48.9 105.07 105.07 0 01-28.05 1.36c-4.56-.39-3.43-24.74-2.36-27.59 3.66-9.75 11.65.31 18.19-1.13 5.47-1.21 11.71-21.92 14.11-27.52q6.45-15 12.24-30.25z" class="cls-14"/>
      <path d="M272.21 350.39a2.32 2.32 0 01-1.33-1.52c-.64-1.86-.28-4.43-.79-6.43-1.28-1-3.27-.45-4.33.77a8 8 0 00-1.58 4.51 31.71 31.71 0 00.31 9 3.18 3.18 0 00.37 1.14c.62.95 2.05 1.05 2.72 2 .54.74.43 1.82 1 2.56s1.9.92 3 .86c2.58-.12 6.76.15 6.41-3.56-.18-1.92-2.81-6.38-4-7.95a4 4 0 00-1.78-1.38z" class="cls-9"/>
      <path d="M280.42 360.29a30.1 30.1 0 00-15.65-.25c-.42 27.68 4.44 55.13 9.28 82.39a5.67 5.67 0 001 2.73 5.6 5.6 0 002.25 1.38 105.32 105.32 0 0027.22 6.92c4.55.52 8.29-23.56 7.81-26.57-1.64-10.29-11.48-2-17.59-4.73-5.13-2.27-7.11-23.82-8.35-29.79q-3.34-15.96-5.97-32.08z" class="cls-14"/>
      <path d="M468.66 90.87a4.61 4.61 0 001.77-1.35 1.34 1.34 0 00.25-.49 1.42 1.42 0 00-.08-.64c-.22-.79-2.49-7-2-7.27a23.43 23.43 0 009.14-9.55c3.59-7 3.78-15 3.08-22.58-1-10.85-4.77-22.73-14.82-26.71-7.71-3-17.38.27-23.6 6-8 7.42-6.76 19.65-5.07 29.07a36.12 36.12 0 008.84 18.44 23.69 23.69 0 008.48 5.85c1.58.62 3 .49 3.51 2 .58 1.94.29 4.81.48 6.87a1.27 1.27 0 00.35.93 1.23 1.23 0 00.71.17c1.68.07 3.37 0 5.05 0a11.07 11.07 0 003.91-.74z" class="cls-9"/>
      <path d="M470.74 37.14c3.92 2.31 7.77 6.22 7.05 10.71 2-1 4.61 1 4.91 3.26s-1 4.47-2.44 6.23c2.29.39 4.55-1.27 5.6-3.35a15.73 15.73 0 001.19-6.82c.12-6.91-.18-14-2.84-20.38s-8.11-12-14.94-13.07a24.18 24.18 0 00-6.36 0 12.46 12.46 0 00-5 1.34c-12.17 7.05 7.76 19.1 12.83 22.08z" class="cls-5"/>
      <path d="M442.55 50.75c-2 5.38 2.82 11.29 1.57 16.9-.78 3.48-3.84 6.33-3.83 9.9 0 4.61 5.12 8 5.18 12.6-2.93-3.67-8.53-4.56-11.07-8.51-1-1.63-1.44-3.59-2.17-5.38-3-7.38-11.12-11-18-15a5.62 5.62 0 01-2.09-1.8c-1-1.77 0-4 .92-5.81a31.38 31.38 0 002.69-18.16c-.89-5.85-3.46-11.67-2.29-17.47a14.3 14.3 0 0110.38-10.85c4.6-1.15 9.54.1 14.15-1 3.06-.74 5.78-2.46 8.63-3.79 6.59-3.09 15.29-3.72 20.38 1.45 4.54 4.56 4.57 12.26 1.6 18-1.84 3.52-4.46 6.56-6.32 10.08-1.43 2.7-2.44 5.66-4.78 7.76-4.5 4.01-12.59 4.8-14.95 11.08z" class="cls-5"/>
      <path d="M482.55 116.75a2.9 2.9 0 011.18.43c1 .74.69 2.26.95 3.47a6.72 6.72 0 001 2.13l2.15 3.45a1.46 1.46 0 00.44.51 1.26 1.26 0 00.6.14 8.16 8.16 0 006.13-1.78 8.52 8.52 0 002.4-5.7 15.65 15.65 0 00-.21-4 2.7 2.7 0 00-.42-1.17 2.79 2.79 0 00-.8-.65 15.22 15.22 0 00-6.11-2.09 13.27 13.27 0 01-3.62-.62 10.56 10.56 0 01-2.16-1.41 31.69 31.69 0 00-4.38-2.77c-.31-.16-1.63 6.73-1.66 7.36-.2 2.85 2.15 2.23 4.51 2.7z" class="cls-9"/>
      <path d="M410.78 76a91.39 91.39 0 00-5.13-.4 16.26 16.26 0 00-5.53.41 13.29 13.29 0 00-4.49 2.72c-5.83 5-12.11 14.72-5.35 21.17 2 1.93 4.8 2.85 7.49 3.63 7.43 2.13 15.05 3.53 22.65 4.94l61 11.25 3.9-12.72c1.07-3.46-27.65-16.93-31-18.36-13.16-5.7-28.88-11.04-43.54-12.64z" class="cls-2"/>
      <path d="M629.02 222.33h19.28v51.05h-19.28z" class="cls-6" transform="rotate(180 638.66 247.85)"/>
      <path d="M569.12 236.17h19.28v37.2h-19.28z" class="cls-6" transform="rotate(180 578.76 254.78)"/>
      <path d="M509.21 221.55h19.28v51.83h-19.28z" class="cls-6" transform="rotate(180 518.86 247.46)"/>
      <path d="M539.17 201.39h19.28v71.98h-19.28z" class="cls-6" transform="rotate(180 548.81 237.39)"/>
      <path d="M599.07 182.01h19.28v91.37h-19.28z" class="cls-6" transform="rotate(180 608.71 227.69)"/>
      <g class="cls-16">
        <path d="M505.59 292.61h146.96v6.23H505.59z" class="cls-6"/>
      </g>
      <g class="cls-16">
        <path d="M505.59 314.14h146.96v6.23H505.59z" class="cls-6"/>
      </g>
      <g class="cls-16">
        <path d="M505.59 335.67h146.96v6.23H505.59z" class="cls-6"/>
      </g>
      <g class="cls-16">
        <path d="M505.59 357.2h146.96v6.23H505.59z" class="cls-6"/>
      </g>
      <g class="cls-16">
        <path d="M505.59 378.74h146.96v6.23H505.59z" class="cls-6"/>
      </g>
      <path d="M643.73 320.27l6.6-7.34c.68-.76 2.18-3.24 3.37-2.3.58.46 2.65 1.84 4.65 3.35 2 .58 4 1.25 6 1.64 5.18 1 17.27-3.06 19.26 3.9a11.64 11.64 0 01.67 4.12 10.18 10.18 0 01-1 3.27c-.36.82-.74 2.2-1.55 2.52s-3-.36-4-.46l-8-.93c-2.6-.31-5.7-.42-7.34 1.63a11.51 11.51 0 01-1 1.38 4.49 4.49 0 01-1.7.9 30.47 30.47 0 01-7 1.6c-2.16.21-3.12-1.21-4.66-2.52-1.79-1.53-4.08-1.63-5.88-3.1a3.8 3.8 0 01-1.53-3.43 5.62 5.62 0 011.62-2.69z" class="cls-11"/>
      <path d="M739.88 329.33a41.65 41.65 0 01-17.11 6 160.55 160.55 0 01-49.7-.79 59.34 59.34 0 011.43-23.28 257 257 0 0040.57-5.65c6.54-1.44 12.09-3.82 15-10.23a314.5 314.5 0 0016.51-44.14c1-3.34 1.92-6.77 3.92-9.61 3.68-5.21 10.59-7.59 16.9-6.71s12 4.65 16.1 9.52c3 3.48 5.26 7.73 5.46 12.29.2 4.73-1.83 9.23-4 13.45a219.92 219.92 0 01-36.18 51.6 46.73 46.73 0 01-8.9 7.55z" class="cls-12"/>
    </g>
  </g>
</svg>
