<svg xmlns="http://www.w3.org/2000/svg" viewBox="0 0 998.52 1002.19"><defs><style>.cls-1{fill:#442c25;}.cls-2{fill:#462d28;}.cls-3{fill:#628d12;}.cls-4{fill:#f6ba12;}.cls-5{fill:#f1c1a0;}.cls-6{fill:#f4c8a3;}.cls-7{fill:#c05c10;}.cls-8{fill:#fdffeb;}.cls-9{fill:#5a4722;}.cls-10{fill:#f9c082;}.cls-11{fill:#f8d6a3;}.cls-12{fill:#462d2a;}.cls-13{fill:#5b4721;}.cls-14{fill:#361e19;}.cls-15{fill:#492c28;}.cls-16{fill:#002937;}.cls-17{fill:#32192f;}.cls-18{fill:#01354a;}.cls-19{fill:#06a0d4;}.cls-20{fill:#ffffec;}.cls-21{fill:#0088bc;}.cls-22{fill:#c25a14;}.cls-23{fill:#301931;}.cls-24{fill:#063756;}.cls-25{fill:#f6c27b;}.cls-26{fill:#fad5a0;}.cls-27{fill:#bd5c13;}.cls-28,.cls-33,.cls-34{fill:none;stroke-linecap:round;}.cls-28{stroke:#e7a902;stroke-miterlimit:10;stroke-width:3px;}.cls-29{fill:#ff5103;}.cls-30{fill:#faae02;}.cls-31{fill:#33caa2;}.cls-32{fill:#d1d9de;}.cls-33{stroke:#068bbd;}.cls-33,.cls-34{stroke-linejoin:round;stroke-width:11px;}.cls-34{stroke:#0d2e40;}.cls-35{fill:#452e28;}.cls-36{fill:#35c9a2;}.cls-37{fill:#fbae00;}.cls-38{fill:#ff5100;}.cls-39{fill:#79d6e6;}</style></defs><title>Ресурс 2</title><g id="Слой_2" data-name="Слой 2"><path class="cls-1" d="M660.93,942.88s-18.7,22.24-32.29,22.94S605.7,967.41,608,976.41s15.18,7.41,15.18,7.41,44.11-.17,60.7-7.76c0,0,1.24,0,1.41,7.87H713s7.76-17.58,4.76-27.64Z"/><path class="cls-2" d="M792.93,959.12c-.53,0-15.53,18.35-22.41,21.35s.71,17.82,3.71,17.29,11.29,7.42,32.11,3.18,34.41-8.29,34.94-12.7,5.47-24.36,12.36-31.24c0,0-3.53-11.82-9.71-14.12Z"/><path class="cls-3" d="M634.64,595.41,641,792.35l17.65,159.53s34.11,23.53,63.29,3.06c0-1.18-1.65-4.23-2.82-11.29s-9.88-303.53-9.88-303.53,18.35,62.59,20.23,80.47,35.29,144,35.29,144,22.59,52.2,23.06,92.69c0,0,13.24,13.57,44.83,6,0,0,13.76-4.72,15.88-15.13l-12.71-105S832.28,799,819.58,780.5l-16-43.91s-8-23.77-9.41-66.59-3.53-85.18-3.53-85.18Z"/><path class="cls-4" d="M644.05,369.53s-24.24-8.12-31.65,7.06l-12.35,35.65s-12.71,76.94,0,87.52,32.47,6.36,32.47,6.36l2.12.83-1.06,38.34-7.06,60.36s39.53,6,65.65-1.77l4.94-11.47,8.82,10.94,99.18-20.29-42-103.53s9.64-122.24-13.41-151.41c0,0-9.89-12-48.47-8.71l-13.65-.57-38.35,49.51Z"/><path class="cls-5" d="M681.7,289.29s4,22.83,6.82,24.71l-25.41,45.41-17.41-6.12Z"/><path class="cls-6" d="M640.52,402.24c.47-.71,4-21.89,4-21.89l7.06-10.82V350s11.53-5.65,15.53-22.12,8.47-27.06,9.17-27.76,9.36-12.36,9.36-12.36l-7.77-20.41L594,286.76l11,14.77s-2.12,16.23,2.35,19.53a13.08,13.08,0,0,1,5.06,8.23l9.53,10.86-8.23,7.26,9.64,29.41-3.53,9.65Z"/><path class="cls-7" d="M683.17,292c-.15.57,12.88-8.21,12.17-18.79s-.32-18.36-6.07-24-19.52-16.77-29.93-18.36c0,0-.7-4.94-7.41-4.94s-24.88-1.59-37.06,8.65S590,259.76,590.52,270.88s3.35,22.77,8.65,24.53l.17-8.47s8.3,5.65,33.18,3.88,31.41-1.23,38.29-9.7,11.3.53,11.3.53S683.87,289.24,683.17,292Z"/><polygon class="cls-8" points="671.58 422.71 701.46 318.94 687.81 311.18 660.99 355.65 649.23 348.59 650.87 370 671.58 422.71"/><path class="cls-9" d="M661.58,356.94l-8.35,7.77,8.35,14,.1,19.63,9.83,25.15,6.77-23.61s-11.53-22.23-11.41-22.94,5.18-13.53,5.18-13.53Z"/><polygon class="cls-10" points="471.58 266.47 471.58 313.76 524.75 315.18 522.87 281.53 471.58 266.47"/><path class="cls-11" d="M471.7,269.41s9.53,29.77,26.23,32.83,23.3-4.71,23.3-4.71,10-15.06,11.41-29.65,0-46.35,0-46.35l-8.12-25.29-54.59,10.35-5.53,37.76s-6.7-2.82-6,4.12,3.18,17.88,6.83,18.71A31.83,31.83,0,0,1,471.7,269.41Z"/><path class="cls-12" d="M468.75,256.94s-3.88-12.35-8.47-14.12-2.47-32.11,0-36.7,6.18-18.71,24.36-21.36,29.82-2.29,36.17,2.12,14.83,30.18,12.36,44.3c0,0-6.18-25.42-11.83-29.12s-37.23,4.76-37.23,4.76-12.18,12.36-14.3,20.65S468.75,256.94,468.75,256.94Z"/><path class="cls-9" d="M441.93,947.41c.22,5.35,3.67,20.37,3.77,25.88,0,0,.23,8.74-1.95,9.24s-22.29-.56-22.29-.56S421,980,418,980.91s-15.79,3.18-15.79,3.18l-38.42-9.85s20.42-12,30.65-25.71Z"/><path class="cls-13" d="M487.55,953.65s-6.44,9.79-5.74,16.14a112.49,112.49,0,0,1,.62,12.45h23.74s2.47-2.74,10.58,0,38.12,10.32,43.06,10.58,18.62-.53,22-5.11,1.86-11-4.41-11.56-17.47-2.83-24.88-9.27S532,947.38,532,947.38Z"/><path class="cls-14" d="M272.28,963.18s2,9.88,15.42,10.23,30,3.53,31.05,7.18-2.35,11.29-10.7,12.12-97.65,0-97.65,0-5.76-16.47,2.94-25.65"/><path class="cls-15" d="M346.28,955.24s19.24,16.23,20,16.41,35.82,1.76,36.88,7.94,1.23,12.44-13.41,13.28-91.06,0-91.06,0-7.94-11.52,1.59-32.87Z"/><path class="cls-16" d="M258.87,671.18s-51.12,280.6-50.34,292v5.53s44.41,5.58,56.23,1.17,13.42-12,13.06-16.94-2.11-34.06,4.59-44.12Z"/><path class="cls-17" d="M391.46,930.35c1.51,2.49-3.29,16-1.88,17.3s39.17,7.17,49.76,1.29c0,0,11.37-28.48,6-15.53-1.37,3.32-7.15-138.13,10-218.47L470.64,634S489.7,711.41,489,738.47s0,170.82,0,170.82-1.43,17.65-4.49,23.06-.71,24,0,24,48,4.24,50.59-5.41c0,0-3.06-23.29-6.59-32.23,0,0,15.06-111.53,13.65-126.36l30-221.29L551.7,525.53l-59.65-11.29s-12.35-2.83-32.47-2.48-57.88,2.48-57.88,2.48l-15.89,56.82L382.64,894S385.46,920.47,391.46,930.35Z"/><path class="cls-18" d="M288.05,958.94s48.94,8.47,49.65,8.47,11.76,1.41,9.41-9.41-13.88-72.71-15.06-93.18-.24-54.58,1.18-63.06,22.58-250.11,22.58-250.11H247.11l-9.18,28.23s-3.53,14.12,0,33.53,14.82,59.65,14.82,59.65Z"/><path class="cls-7" d="M309.4,332.82l8.65-8.29,13.59,4.15s7.06,3.44,7.23-2.56a54.88,54.88,0,0,0,0-7.06l4.41-3.71v-5.64h5.47l2.12-6.89h7.06s4.59,1.24,2.65-3.88-6.35-16.06-6.35-16.06-1.77-4.76,3.52-8.12c0,0,.53,2.48,1.24-6.35s3.35-29.29,3.35-29.29l-97.41,31.06,4.41,21-2.82,18.53Z"/><path class="cls-19" d="M312.28,330.35c.36.94,13,34.94,13,34.94l-71.89-43.88L260.87,304Z"/><path class="cls-20" d="M400.28,513.18s-15.88,8.47-17.64-16.94-2.12-144.71,16.23-157.06,73.06-48.36,73.06-48.36l33.88,22.94,18-11.29s4.24,16.94,24.71,22.24,36.71,14.82,40.94,25.05,22.94,94.59,22.94,94.59-5.29,38.83-16.23,45.18-43.77,36.35-43.77,36.35l-70.59-13.76Z"/><path class="cls-21" d="M243.81,559.65H334.4s15.06,3.76,23.06,12.94,11.06-16.24,11.06-16.24l-7.29-51.76s24.7-5.88,14.82-42.83l19.53,5.42,19.53-45.65-26.59-6.35L322.4,360.59l-19.29-26.35L253.7,319.88l-28.95,43.77s19.3,128.7,28,147.06C252.75,510.71,244.05,553.53,243.81,559.65Z"/><path class="cls-22" d="M359.87,493.68s23.83-23.47,5.47-40.24l-31.06-14.2S325,432,322.11,441.79c0,0-12.26-1.67-4.15,12,3.09,5.21,34.24,21.09,34.24,21.09S357.75,491.74,359.87,493.68Z"/><polygon class="cls-23" points="506.52 314.35 497.23 322.94 503.58 335.41 495.93 501.18 502.11 512.29 512.52 503.29 514.99 334.41 517.28 322.94 506.52 314.35"/><polygon class="cls-24" points="530.17 435.18 515.7 467.82 544.81 486.18 568.99 452.82 530.17 435.18"/><path class="cls-25" d="M556.81,439.59s11.3,10.94,11.83,10.76,6.88-3,6.88-3,11.12-4.59,6.35,5.3l-1.82,2.76.94.71s11.06-3.41,6.12,4.94l-5.06,3.88s-1.53,3.88,1.06,3.18,7.06.23,3.64,4.35-17.87,16.2-28.7,16.47c0,0-5.17-1.64-6.47-9.29C550.4,472.71,544.28,450.59,556.81,439.59Z"/><path class="cls-26" d="M477.05,462.35c.49-.4,15,0,15,0s6.18-7.59,12.35-8.29,9.35,1.59,9.88,1.59,7.42-1.73,7.42-1.73l6.17,4.22-7.94,6.51A9.19,9.19,0,0,0,522.4,466c1.24.38,13.06,1.09,13.06,1.09l18.88-10.77s7.94,1.77,2.12,5.65-22.41,14.47-22.41,14.47,8.65,3.35,13.76,0,10.24-10.94,12.36-12.53,2.82,1.59,2.47,6.18-3.71,11.29-7.59,14.64-15,9.18-33.18,7.42-24.17-4.24-24.17-4.24l-22.42,2.47S456.92,478.9,477.05,462.35Z"/><path class="cls-27" d="M429.4,463.59c1.41-.35,63.88-21.53,63.88-21.53s10.77,12.88,23,9l17.11,14.47s11.12.71,5.47-7.41S530,447.71,530,447.71s-.18-6.71,11.65,1.23l2.64,13.77s4.77,7.58,6.53-.18V449.29s3,3.71,5.3-.35,4.06-12.7,4.06-13.23-2.12-4.24-9.18-5.65-39.71-3.71-49.06-5.65-58.94,2.3-58.94,2.3Z"/><polygon class="cls-19" points="415.46 414.71 393.93 466.06 401.87 474.35 426.23 473.29 451.73 425.38 415.46 414.71"/><path class="cls-28" d="M649.93,410.94s-5.65,82.35-14.59,93.65"/><path class="cls-28" d="M656.75,464.35l39.77,13.18s8.23,3.53,15.76-6.59,41.65-70.82,41.65-70.82"/><path class="cls-28" d="M656.75,422.71s33,8.12,45,16.41"/><line class="cls-28" x1="714.17" y1="347.65" x2="685.23" y2="430.91"/><line class="cls-28" x1="685.23" y1="486" x2="696.28" y2="587.18"/><rect class="cls-29" x="949.46" y="347.65" width="33.88" height="115.7"/><rect class="cls-30" x="895.81" y="390.22" width="33.53" height="76.02"/><rect class="cls-31" x="842.17" y="428.23" width="33.18" height="35.89"/><rect class="cls-32" x="823.81" y="461.29" width="174.71" height="14.47"/><polyline class="cls-33" points="541.46 123.65 595.81 75.41 662.17 123.65 723.81 67.41"/><polyline class="cls-34" points="697.46 65.06 724.99 65.06 725.93 93.29"/><path class="cls-35" d="M267.59,292.59l28.06-7.24s4.23-1.41,3.7-5.29-2.29-16.77,8.47-16.06,11.83,8.65,11.83,8.65l6.53-18s14.82-11.83,20.29-9.53S359,253.41,359,253.41a31.47,31.47,0,0,1,4.24-2.12,25.4,25.4,0,0,1,3.17.89v-5.12l5.12-4.24-5.29-.88-12.89-17.65-35.11-9h-18l-1.59-1.76-13.59,10.76-6,2.12-18.53,30Z"/><path class="cls-36" d="M123.71,249V145.48L197.39,219C177.89,238.85,153,248.15,123.71,249Z"/><path class="cls-37" d="M103.12,0h-.94v102.7l73.51-72.84A102.79,102.79,0,0,0,103.12,0Z"/><path class="cls-38" d="M175.69,29.87l-73.51,72.84,73.58,73.58a103.08,103.08,0,0,0-.07-146.42Z"/><path class="cls-21" d="M102.18,102.71V0A103.1,103.1,0,0,0,0,102.71Z"/><path class="cls-39" d="M0,103.12a103.11,103.11,0,0,0,102.18,103.1V102.71H0C0,102.84,0,103,0,103.12Z"/></g></svg>