<svg xmlns="http://www.w3.org/2000/svg" viewBox="0 0 786.35 737.75"><defs><style>.cls-1{fill:#e5e5e5;}.cls-2{fill:#4a4a4a;}.cls-3{fill:#2d2d2d;}.cls-4{fill:#fdd9c2;}.cls-5{fill:#2e2e2e;}.cls-6{fill:#3d6178;}.cls-7{fill:#d2a592;}.cls-8{fill:#ffcf8d;}.cls-9{fill:#ffd8c1;}.cls-10{fill:#101010;}.cls-11{fill:#ffd8bf;}.cls-12{fill:#f1f1f1;}.cls-13{fill:#eaeaea;}.cls-14{fill:#c24f42;}.cls-15{fill:#fdd9c1;}.cls-16{fill:#715144;}</style></defs><title>Ресурс 2</title><g id="Слой_2" data-name="Слой 2"><ellipse class="cls-1" cx="155.29" cy="712.23" rx="155.29" ry="25.51"/><ellipse class="cls-1" cx="631.06" cy="701.3" rx="155.29" ry="28.45"/><path class="cls-2" d="M213.41,687.15h24.18s4.23,2.47,5.29,10.06c0,0,7.89,7.24,26.3,7.24,7.94,0,7.58,9,7.58,9H214.29S207.41,702,213.41,687.15Z"/><path class="cls-2" d="M73.54,667.5l19,12.37s2,4.24-1.32,11.14c0,0,2.25,10.1,16.73,19.52C114.22,714.59,109,722,109,722L59.9,690S60.74,676.85,73.54,667.5Z"/><path class="cls-3" d="M74.06,668.39c1.06-1.06,11.23-25.89,14.06-43.89s19.06-48.7,19.06-48.7,13.06-27.53,14.11-48.35,5.65-130.59,5.65-130.59-10.94-21.18-10.59-30,140.47-8.12,140.47-8.12.36,80.82-7.76,152.47c0,0-.41,6.65-4.24,11.59,0,0-3.41,73.35-7.41,85.35,0,0-2.79,68.18.27,80.41l-24.44,1.59L189.06,458.27,178.47,522.5s-4.29,22.36-15.76,40.36S91.65,680.41,91.65,680.41Z"/><path class="cls-4" d="M78,346.8s-.29,11,5.71,16.41a62.17,62.17,0,0,0,9.41,7.35s3.7,1.18,3-4.06S92,355.27,92,355.27a10.72,10.72,0,0,1,5,2.29c2.65,2.06,3.18-1,1.94-2.35s-6-7.12-6.35-10.23Z"/><path class="cls-4" d="M360.18,22.86s.67-8.71.35-10.68,2.47-2.26,2.76-1.32a11.65,11.65,0,0,1,.24,2.85s1.53,1.65,1.79-.73a4.46,4.46,0,0,1,2.12-3.36L368.88,26l-9.2-.79Z"/><path class="cls-5" d="M357.18,23.8s1.53-4.12,5.41-.71a32,32,0,0,0,9.76,5.3L347.88,87.15s-28.06,45.18-45.53,56.12-26.29,17.82-56.64,24.18c0,0,7.94,30.58,16.41,186.35,0,0,.53,6-6.71,8s-69.7,13.32-139.41,9.79c0,0-7.06.71-9.18-8.29s-7.06-54.47.47-95.41l9.06-47S97.65,241,95.71,295,95,340.39,95,340.39s-1.24,5.82-5.65,6.17-13.06.89-13.06.89l-12.7-58.06S53.53,246.33,65,218.09s41.12-60.17,41.12-60.17,15.35-20.65,26.29-21.89c0,0-3.17-8.29,41.3-16s48.88-5.3,48.88-5.3,2.29-9.35,32.82-14.12,51.76-15.42,59.65-24.88C329.41,61.21,335.06,54.74,357.18,23.8Z"/><path class="cls-6" d="M207.06,133.48c.23-1.22-8.07.39-9.53.7s-7.94,3.8-2.47,7.59,5.58,7.59,5,12-2.22,10.85,7,37.44,10.47,29.88,11.06,38,2.94,11.65,3.53,12,2.7,4.24,10.82,3.77,11.18,4.35,11.18,4.35l1.17-24.24-17.17-20.94s-3.3-1.88-10.83-24.82-10.23-31.41-10.23-31.41S204.94,144.56,207.06,133.48Z"/><path class="cls-7" d="M156,62.74s4.94,33.88,26.59,44.24,39.53-5,41.17-18.12,6.59-48,1.18-53.65c0,0-21.18-19.53-21.88-19.53S149.88,34.5,149.88,34.5Z"/><path class="cls-8" d="M183.06,32l22.59,2,2.47-5.17,4.82.82S220,37,220.35,37s9.65,5.41,10.47-4.06a17.31,17.31,0,0,0-2.7-8.18s.6-8.71-5.53-14.35c-7.41-6.83-19.53-8.83-30.47-6.12,0,0-1.77-5.06-10.83-2.24s-28,6.71-28,6.71-9.76,4.59-9.53,14.59.36,21.76-5.29,27.41c0,0-3.65,1.06,1.53,6a17.07,17.07,0,0,1,1.41,7.88s5.41,1.94,10.83,9,7.23,3.3,7.23,3.3c-.06-.42-3.59-10.18-.88-17.36S160,42.8,160,42.8s-.41-5.59,10.62-6S183.06,32,183.06,32Z"/><path class="cls-9" d="M367.78,37.34c.2.2,16.1-5.38,16.1-5.38s-3.44-7.1-2-13.46c0,0-2.64-1.76-4,3.71,0,0-3.17-.88-3.79-8.21s-1-8.2-1-8.2S372.24,0,368,6.24c0,0-3.12,4.58-3.35,7.41C364.45,16.09,362.34,31.87,367.78,37.34Z"/><path class="cls-10" d="M488.12,702.39l6.35.59s12.35-5.18,23.65-4.83c0,0,.23-6.35,3.64-8.47l15.06,1.06a7.69,7.69,0,0,0,.71,3.88C538.47,696.5,542,703,542,703s1.06,1.41-5.29,8.11c0,0,3.17,1.06-10.36.94,0,0-3.17.47-2.94-3.17s-22.47,3.19-22.47,3.19a32.44,32.44,0,0,1-16-2.37,5.6,5.6,0,0,1-.7-5.88C485,701.92,488.12,702.39,488.12,702.39Z"/><path class="cls-10" d="M627.34,705l6.6-2.43s10-10.78,21.41-15.78c0,0-2.64-6.19-.19-9.82l14.22-7.5s2,3.43,3.74,4.78,8.24,5.88,8.24,5.88,1.69.85-1.61,10.27c0,0,3.65-.49-9.9,5.78,0,0-3,1.95-4.37-1.65s-21,13.67-21,13.67a37.23,37.23,0,0,1-17,5.28,5.75,5.75,0,0,1-3.37-5.29C624,706,627.34,705,627.34,705Z"/><path class="cls-2" d="M520.21,691.83c0,.61,16.76,1.06,16.76,1.06l7-252.5H490.35c-1.72.44,5.36,101.57,9.89,128.94C505.86,603.38,517,643,520.21,691.83Z"/><path class="cls-2" d="M554.18,444.86,569.88,538s10.94,40.42,24.18,57.89,57.18,85.41,57.18,85.41,9.88-7.77,19.58-11.47l-45.35-79.94s-9.88-15.53-13-44.3-12.44-102.17-12.44-102.17Z"/><path class="cls-11" d="M673.41,344.62s-.23,10-2.59,12.94c0,0,2,2.71,4.36-2.23,0,0,2.23-.83,2.11,5.53s2,8.12,2,8.12,2,4.94,4.71,0,7.76-11.53,7.06-17.42a52.71,52.71,0,0,0-2.82-11.29Z"/><path class="cls-12" d="M672.41,345.92c.19.52,10.12,1.53,16.94-2.06,0,0-12.41-75.47-15-83.94s-9.17-34.12-21.88-46.59-40.94-35.06-40.94-35.06l10.89,70.54S645.18,270,672.41,345.92Z"/><path class="cls-13" d="M612.24,451.21l13.64-121.88c3.53-41.3-6.24-141-6.82-151.06s3.41-64.47-66.24-55.06-56.7,22.35-56.7,22.35l4.23,36L467.53,417.33s-7.41,22.23,6,24.35S612.24,451.21,612.24,451.21Z"/><path class="cls-14" d="M504.24,188.86s0,57.41-26.83,75.53l-15.53,1.17v-7.29s-.82-3.18,8.24-8.94,25.29-50.35,25.17-62.47Z"/><path class="cls-12" d="M383.88,30.68s39.18,56.53,55.41,69.24,34.36,28.47,48.95,32,49.64,18.82,55,21.88,19.3,13.41,17.18,22.35a83.7,83.7,0,0,1-6.82,17.65s-8.24,13.41-25.41,7.06S468,175.45,468,175.45s-38.35-23.3-47.29-34.83S377.13,72.67,367.23,36Z"/><path class="cls-15" d="M511.47,41.62s-.35,28.77-2.82,42.71.88,28.77,5.11,32.29,11,14.3,33.53,4.06,17.83-25.76,17.83-25.76l16.23-24.36L546.41,27.15Z"/><path class="cls-16" d="M569.35,123.5s11.83-18.88,23.83-24.7,7.06-20.47,7.06-20.47.17-4.77,6.35-14.3S591.76,36.5,591.76,36.5s-12.88-12.7-21-17.64S562.79,13,560.69,4c0,0,1.56-1.45-6.69-2.42S524.35.11,518.26,3.68s-13.38-1.94-13.38-1.94S493.94-3.55,489,4.33s-6.88,9.23-5.53,21.76l10.12,4.83s-4.35,11-.65,15.58,27.94-5.76,27.94-5.76,9.41-3.35,15.77,3.59,8.94,9.94,16.23,6.35c0,0,6.06,15.35,3.83,27.94,0,0,5.64-8.7,11.88-3.29s-3.3,12.82-3.88,15.41S559.06,104,569.35,123.5Z"/></g></svg>