<svg xmlns="http://www.w3.org/2000/svg" viewBox="0 0 535.15 556.51">
  <defs/>
  <defs>
    <style>
      .cls-5{fill:#005a84}.cls-6{fill:#fff}.cls-7{fill:#004263}.cls-9{fill:#f8f9fc}.cls-10{fill:#f7c3b1}.cls-12{fill:#0c1319}
    </style>
  </defs>
  <g id="Слой_2" data-name="Слой 2">
    <g id="Слой_1-2" data-name="Слой 1">
      <path fill="#f2f2f2" d="M244.22 319.81c6.8-.25 226.52-41.75 279.92 74.45C585 526.62 375.33 549.9 343.87 554.21 260.44 565.67 5.78 534.2.17 462.92S130 426.05 86.54 391.38s108.13-69.78 157.68-71.57z"/>
      <path fill="#00b1dc" d="M373.87 72.31s81.52-1.23 101.45 116.43c0 0 167 270.68-172.37 278 0 0-261.42-19.53-163.68-229.08 0 0 26.06-51.86 69.54-66.41 0 .05 44.19-106.56 165.06-98.94z"/>
      <path fill="#35bbdc" d="M482.93 290.67c-2.76-18.05-34.82-65.21-34.82-65.21s-28.92-42.74-35-54.9-4.79-15.29 4.24-30.21 6.45-19.71 7.55-29.11c.67-5.66-7.95-19.06-15-29-19.76-10.19-36-9.94-36-9.94q-6-.33-11.68-.33c-7.65 1.72-17.93 1.09-19.67 1.55-2.76.74 0 152.72 0 152.72s32.24 32.56 45.84 48.76-.93 27.27-.93 27.27-22.29 19-40.71 29.11-34.26 8.84-42.55 8.29-17.32 18.79-17.32 18.79-27.82 60.24-27.82 60.79c0 0-4.24 2.76 18.61 8.84s49.19-9.21 50.84-8.84 109.43-66.14 133-79.77 24.19-30.75 21.42-48.81z"/>
      <path fill="#00203f" d="M355.82 258.25s9.88 41.56-9.58 58.58c-8.84 7.74-71.11 30.17-71.11 30.17s-1.11 14.25-17.07 12.78-66.57-10.56-82.25-23.71c0 0-10.5-25.1 16.66-41.75C220.72 277 256.71 253.6 267.94 253a3.38 3.38 0 013.35-2.85s27.97 18.6 84.53 8.1z"/>
      <path d="M272.67 339.55l56-31.56s5.77-2.58 0-6L254 257.53l-6.61 2.56z" class="cls-5"/>
      <path d="M271.44 244.25l-28.92 24.32s-29.29-16.4-28.13-16.77 37-41.63 37-41.63L254.5 166c.18-3.95 5.86-15.42 3-26.94-3.55-14.33 2.48-29.51 12-32.49l4.42 105.86z" class="cls-6"/>
      <path d="M331 304.09s2.06 6.85-.78 8.32-61.62 34.73-61.62 34.73l-.58-6.05z" class="cls-7"/>
      <path fill="#e9f2f6" d="M271.29 250.1c.55-.92-.77-35.33-7.58-51.35s-17.14-37.4-8.66-57.11 11.79-30.95 11.79-30.95 2.39-6.45 9-5.9 20.63.74 20.63.74l48.08 21.74L356 259l-55.85.72c-11.76-1.62-22.1-4.28-28.86-9.62z"/>
      <path d="M311.51 310.11l-6.26 4.24-13.19-8.41 6.01-4.01 13.44 8.18zM313.72 309.1l6.73-3.97-6.73-4.6-6.81 3.56 6.81 5.01zM312.07 299.7l-6.82 4.39-5.9-3.93 6.36-4.33 6.36 3.87zM302.85 316c-.36-.46-8.19-5.89-8.65-5.8s-14.28 8.57-14.28 8.57l7.54 6.11zM285.63 325.62c-.28 0-7 3.92-7 3.92l-4.7-3.31 6-4.88zM277.8 279.71l-5.62 4.24 6.82 4.79 6.17-4.98-7.37-4.05zM271.63 275.29l4.7 3.41-2.4 2.12-4.6-3.14 2.3-2.39z" class="cls-9"/>
      <path d="M278 285l18.12 21 64-53.18s7.61-6.39 7.86-24.08 4.91-80.32 4.91-80.32 2.7-11.3-4.91-15.47l-36.54 21.62L327 229z" class="cls-6"/>
      <path d="M295.85 304.21S276.7 327.89 272.39 329l-.93-37 7.83-6.26z" class="cls-10"/>
      <path d="M273.1 343.73l.88-63.74a11.55 11.55 0 00-4.56-7.65c-4.1-2.9-94.17-56.34-94.91-56.46a8.52 8.52 0 00-8.15 5l99.56 58.91 1.47 68.57z" class="cls-7"/>
      <path d="M166.16 221.5c.09-.6 1.11-4.61 5.16-2.21l93.77 55.36s4.33 1.75 4.05 7.46-.73 64.2-.73 64.2-.19 4.6-5.44 1.38-93.68-55.45-93.68-55.45-3.59-2.21-3.59-9.12.37-61.02.46-61.62z" class="cls-5"/>
      <path fill="#cb8c75" d="M178.6 337.47s19 36.1 37 59.32 25.79 38.68 25.79 38.68 11.42 29.35 10.56 43.11l.61 6.75 14.49-2.08 6.14-3.32-4.19-36.11-9.09-17.19s-6.88-26.77-13.51-34.14-29-47.9-29-47.9z"/>
      <path d="M251.93 478.73s-3.19 10.44-.44 15.55c0 0 20.78-3.54 24.24-9.48-.07-.19-.37-22.93-.92-26.12l5.12 7.93 2.8-2.4s-12.16-23-14.42-22l.56 36.2-14.33 5.85zM197 504.25s-9 7.49-10.56 10-6.86 11.42-7.1 12.28l29.08 4 3.5-1.59 11.45-18.31 5 2.4 3.31-27.45-21.31 30.83-18-2.16z" class="cls-12"/>
      <path fill="#eeb19e" d="M215.44 348.7l-4.24 102.8-20.2 65.19 20.36 3.52L231.65 488l-1.47-26.16L256.39 371s1.47-12 0-17.31z"/>
      <path fill="#f0b39e" d="M289.81 102.77s.5 34 4.17 40.16c2.4 4 24.62-11.05 24.62-11.05l9.71-32.43z"/>
      <path d="M276.39 42.89s-.25 27.82 1.53 35.56 5.29 26.16 15.42 29.29 20.08 1.66 27.08-2.21A40.7 40.7 0 00332.21 95l17.18-31.69z" class="cls-10"/>
      <path fill="#531f00" d="M318.6 121.19s-1.9 21.67 2.46 28.86 7.56 6 12.1 5 26.71-13.44 26.71-13.44a22 22 0 0010.32-10c3.38-7.06 5.28-24.44 4.91-36.72s-2.58-41.39-8-53.8-16.19-34.37-28.84-37.31S306.08-4 292.94 6.11 269.11 31.78 268.25 40s-1.32 56.56 1.26 66.51c0 0 6.87-2.06 20.78-.31 0 0-9.91-10.24-12.21-28.62-2.38-19-1.66-29.69-1.23-31.69 0 0 22.87 26.75 49.31 30.15 0 0-.46-11.69 6.26-14.09s8.85 1.84 8.85 1.84 2.11 4.52-1.11 11.61-14.55 27.08-14.55 27.08a55.88 55.88 0 00-7.01 18.71z"/>
    </g>
  </g>
</svg>
