<svg xmlns="http://www.w3.org/2000/svg" viewBox="0 0 399 530.49"><defs><style>.cls-1{fill:#00b1dc;}.cls-2{fill:#35bbdc;}.cls-3{fill:#00203f;}.cls-4{fill:#005a84;}.cls-5{fill:#fff;}.cls-6{fill:#004263;}.cls-7{fill:#e9f2f6;}.cls-8{fill:#f8f9fc;}.cls-9{fill:#f7c3b1;}.cls-10{fill:#cb8c75;}.cls-11{fill:#0c1319;}.cls-12{fill:#eeb19e;}.cls-13{fill:#f0b39e;}.cls-14{fill:#531f00;}</style></defs><title>Ресурс 1</title><g id="Слой_2" data-name="Слой 2"><path class="cls-1" d="M256.48,72.34S338,71.11,357.93,188.77c0,0,167,270.68-172.37,278,0,0-261.42-19.53-163.68-229.08,0,0,26.06-51.86,69.54-66.41C91.42,171.33,135.63,64.72,256.48,72.34Z"/><path class="cls-2" d="M365.54,290.7c-2.76-18.05-34.82-65.21-34.82-65.21s-28.92-42.74-35-54.9-4.79-15.29,4.24-30.21,6.45-19.71,7.55-29.11c.67-5.66-7.95-19.06-15-29-19.76-10.19-36-9.94-36-9.94Q250.54,72,244.83,72c-7.65,1.72-17.93,1.09-19.67,1.55-2.76.74,0,152.72,0,152.72S257.4,258.83,271,275s-.93,27.27-.93,27.27-22.29,19-40.71,29.11-34.26,8.84-42.55,8.29-17.32,18.79-17.32,18.79-27.82,60.24-27.82,60.79c0,0-4.24,2.76,18.61,8.84s49.19-9.21,50.84-8.84,109.43-66.14,133-79.77S368.31,308.76,365.54,290.7Z"/><path class="cls-3" d="M238.43,258.28s9.88,41.56-9.58,58.58c-8.84,7.74-71.11,30.21-71.11,30.21s-1.11,14.25-17.07,12.78S74.1,349.29,58.42,336.14c0,0-10.5-25.1,16.66-41.75,28.25-17.32,64.24-40.76,75.47-41.41a3.37,3.37,0,0,1,3.35-2.85S181.87,268.78,238.43,258.28Z"/><path class="cls-4" d="M155.28,339.58l56-31.56s5.77-2.58,0-6l-74.67-44.46L130,260.12Z"/><path class="cls-5" d="M154.05,244.28,125.13,268.6S95.84,252.2,97,251.83s37-41.63,37-41.63L137.11,166c.18-3.95,5.86-15.42,3-26.94-3.55-14.33,2.48-29.51,12-32.49l4.42,105.86Z"/><path class="cls-6" d="M213.6,304.12s2.06,6.85-.78,8.32-61.62,34.73-61.62,34.73l-.58-6.05Z"/><path class="cls-7" d="M153.9,250.13c.55-.92-.77-35.33-7.58-51.35s-17.14-37.4-8.66-57.11,11.79-30.95,11.79-30.95,2.39-6.45,9-5.9,20.63.74,20.63.74l48.08,21.74L238.59,259l-55.85.72C171,258.13,160.66,255.47,153.9,250.13Z"/><polygon class="cls-8" points="194.12 310.14 187.86 314.38 174.67 305.97 180.68 301.96 194.12 310.14"/><polygon class="cls-8" points="196.33 309.13 203.06 305.16 196.33 300.56 189.52 304.12 196.33 309.13"/><polygon class="cls-8" points="194.68 299.73 187.86 304.12 181.96 300.19 188.32 295.86 194.68 299.73"/><path class="cls-8" d="M185.46,316c-.36-.46-8.19-5.89-8.65-5.8s-14.28,8.57-14.28,8.57l7.54,6.11Z"/><path class="cls-8" d="M168.24,325.65c-.28,0-7,3.92-7,3.92l-4.7-3.31,6-4.88Z"/><polygon class="cls-8" points="160.41 279.74 154.79 283.98 161.61 288.77 167.78 283.79 160.41 279.74"/><polygon class="cls-8" points="154.24 275.32 158.94 278.73 156.54 280.85 151.94 277.71 154.24 275.32"/><path class="cls-5" d="M160.56,285.05l18.12,21,64-53.18s7.61-6.39,7.86-24.08,4.91-80.32,4.91-80.32,2.7-11.3-4.91-15.47L214,154.62l-4.42,74.43Z"/><path class="cls-9" d="M178.46,304.24S159.31,327.92,155,329l-.93-37,7.83-6.26Z"/><path class="cls-6" d="M155.71,343.76c0-.55.88-63.74.88-63.74a11.55,11.55,0,0,0-4.56-7.65c-4.1-2.9-94.17-56.34-94.91-56.46a8.5,8.5,0,0,0-8.15,5l99.56,58.91L150,348.39Z"/><path class="cls-4" d="M48.77,221.53c.09-.6,1.11-4.61,5.16-2.21l93.77,55.36s4.33,1.75,4.05,7.46-.73,64.2-.73,64.2-.19,4.6-5.44,1.38S51.9,292.27,51.9,292.27s-3.59-2.21-3.59-9.12S48.68,222.13,48.77,221.53Z"/><path class="cls-10" d="M61.21,337.5s19,36.1,37,59.32S124,435.5,124,435.5s11.42,29.35,10.56,43.11l.61,6.75,14.49-2.08,6.14-3.32-4.17-36.11-9.09-17.19s-6.88-26.77-13.51-34.14-29-47.9-29-47.9Z"/><path class="cls-11" d="M134.54,478.76s-3.19,10.44-.44,15.55c0,0,20.78-3.54,24.24-9.48-.07-.19-.37-22.93-.92-26.12l5.12,7.93,2.8-2.4s-12.16-23-14.42-22l.56,36.2-14.33,5.85Z"/><path class="cls-11" d="M79.63,504.28s-9,7.49-10.56,10-6.86,11.42-7.1,12.28l29.08,4,3.5-1.59L106,510.66l5,2.4,3.31-27.45L93,516.44l-18-2.16Z"/><path class="cls-12" d="M98.05,348.73l-4.24,102.8L73.64,516.72,94,520.24,114.26,488l-1.47-26.16L139,371s1.47-12,0-17.31Z"/><path class="cls-13" d="M172.42,102.8s.5,34,4.17,40.16c2.4,4,24.62-11.05,24.62-11.05l9.71-32.43Z"/><path class="cls-9" d="M159,42.92s-.25,27.82,1.53,35.56,5.29,26.16,15.42,29.29,20.08,1.66,27.08-2.21a41,41,0,0,0,11.79-10.5L232,63.37Z"/><path class="cls-14" d="M201.21,121.22s-1.9,21.67,2.46,28.86,7.56,6,12.1,5,26.71-13.44,26.71-13.44a22,22,0,0,0,10.32-10c3.38-7.06,5.28-24.44,4.91-36.72s-2.58-41.39-8-53.8S233.52,6.75,220.87,3.81,188.69-4,175.55,6.14,151.72,31.81,150.86,40s-1.32,56.56,1.26,66.51c0,0,6.87-2.06,20.78-.31,0,0-9.91-10.24-12.21-28.62-2.38-19-1.66-29.69-1.23-31.69,0,0,22.87,26.75,49.31,30.15,0,0-.46-11.69,6.26-14.09s8.85,1.84,8.85,1.84,2.11,4.52-1.11,11.61-14.55,27.08-14.55,27.08A55.7,55.7,0,0,0,201.21,121.22Z"/></g></svg>