<svg xmlns="http://www.w3.org/2000/svg" viewBox="0 0 478.9 400.7"><defs><style>.cls-1{fill:#00a0a4;}.cls-2{fill:#00c2c6;}.cls-3{fill:#dadefe;}.cls-4{fill:#c8cbdd;}.cls-5{fill:#00666a;}.cls-6{fill:#70560f;}.cls-7{fill:#008386;}.cls-8{fill:#008587;}.cls-9{fill:#ffba77;}.cls-10{fill:#30324d;}.cls-11{fill:#1a1e31;}.cls-12{fill:#3e4260;}.cls-13{fill:#d9985f;}.cls-14{fill:#c1e9eb;}.cls-15{fill:#97b5b9;}.cls-16{fill:#ffd333;}.cls-17{fill:#00666c;}.cls-18{fill:#3e4361;}.cls-19{fill:#eda769;}.cls-20{fill:#c89d24;}.cls-21{fill:#292f58;}.cls-22{fill:#f9c430;}.cls-23{fill:#e8ebfe;}.cls-24{fill:#acafcf;}.cls-25{fill:#fff;}.cls-26{fill:#171e41;}.cls-27{fill:#2a3058;}.cls-28{fill:#30365e;}</style></defs><title>work</title><g id="Слой_2" data-name="Слой 2"><path class="cls-1" d="M195.5,222.6h20.9v17a5.7,5.7,0,0,1-5.7,5.7h-9.6a5.7,5.7,0,0,1-5.7-5.7h0v-17Z"/><path class="cls-2" d="M195.5,222.6v17a5.91,5.91,0,0,0,1.9,4.3h7.4a5.68,5.68,0,0,0,5.7-5.6h0V222.7h-15Z"/><path class="cls-1" d="M219.5,227.1h-5.1v1.8h4a4.5,4.5,0,0,1,0,9h-4v1.8h5.1a5.68,5.68,0,0,0,5.7-5.6h0v-1.4a5.68,5.68,0,0,0-5.7-5.6Z"/><path class="cls-3" d="M213.1,159.8s-13.7,5.3-5.9,25.9.1,27.5-5.8,29.9c0,0,6.4-7.5-4.5-32.4C192.6,173.2,202.1,155.2,213.1,159.8Z"/><ellipse class="cls-4" cx="245.1" cy="387.1" rx="233.8" ry="13.6"/><rect class="cls-5" x="310.4" y="293.4" width="5.1" height="85.7"/><rect class="cls-6" x="341.5" y="247.6" width="6.6" height="134"/><rect class="cls-6" x="136.3" y="245.6" width="6.6" height="134"/><rect class="cls-5" x="248.9" y="347.6" width="5.1" height="28.3"/><rect class="cls-5" x="84.7" y="291" width="8.3" height="90.2"/><path class="cls-2" d="M330.6,223.3c-2.1,12.7-11.2,73.3-11.2,73.3H255.6V208c1.7-8.9,8.3-15.9,21.1-16.1,0,0,30.3,1.4,35.2,1.7C326.4,194.7,333.3,206.7,330.6,223.3Z"/><path class="cls-7" d="M277.2,275.2h28.4a13.87,13.87,0,0,1,13.9,13.9h0v8.7H277.1V275.2Z"/><polygon class="cls-8" points="55.7 381.2 64.4 381.2 75.4 292.1 65.6 292.7 55.7 381.2"/><path class="cls-9" d="M107.5,342.5l-3,6.5,8.3,4.7s3.4-7.5,3.2-7.6S107.5,342.5,107.5,342.5Z"/><path class="cls-10" d="M113.9,300.9s-10.3,24.7-9.3,41.2l10.5,4.4,24-61-8.8-12L94.7,284Z"/><path class="cls-8" d="M116.1,381.2c.3.3,8.6,0,8.6,0L114.3,291l-9.8,1Z"/><path class="cls-11" d="M100.1,356.6l25.3,15.7s5.4-6-3.2-12.2c-8.1-5.9-17-11.5-17-11.5s-1-1.3-1.9,0-3.3,5.8-3.3,5.8S99.2,356.1,100.1,356.6Z"/><path class="cls-11" d="M181.5,337.4s4.4,4.3,7.8,1.8,3.5-5.3,2.3-7.6-8.2-9.9-8.2-9.9l-6.9-6.1s-9.7-1.1-9.6,3.6a12.48,12.48,0,0,0,4.3,9C172.6,329.8,181.5,337.4,181.5,337.4Z"/><path class="cls-9" d="M166.4,314.6s2.4,8.2,6,7.7,4.4-1.9,4.5-3.2-1.3-6.1-4.6-7S166.4,314.6,166.4,314.6Z"/><path class="cls-12" d="M164.9,291c.2.4,8.1,17.8,8.1,17.8s2,3.8-.4,5-6.6,4.4-10.6,0l-33.1-39-35,11.7L66.5,284s-4.7-4.3-5.1-10.6.9-17.8,5.8-21.2c3-2.1,23.7,4.3,23.7,4.3l45.7-1.2C136.5,255.3,148.5,260.8,164.9,291Z"/><path class="cls-2" d="M63.8,282.6H119a6.38,6.38,0,0,1,6.4,6.4h0a6.38,6.38,0,0,1-6.4,6.4H63.8a6.38,6.38,0,0,1-6.4-6.4h0A6.38,6.38,0,0,1,63.8,282.6Z"/><path class="cls-13" d="M105.3,226.4s3.6,9.7,5.3,11.2l29.4-.9c.2,0,15.6-4.4,21.7,1.4l.4,1.4h-63V226.4Z"/><polygon class="cls-14" points="179.6 208.3 166.7 240.9 173.5 243.7 186.1 209.5 179.6 208.3"/><rect class="cls-15" x="144.3" y="238.5" width="27.8" height="7.1"/><path class="cls-12" d="M324.2,222.4c.2,0,4.8-15.8.9-20.1s-7.7-11.8-7.7-11.8-4-2.9-2.5-12,2.6-11.7,2.6-11.7,2.1-10.7-3.9-15.2-12.2-4.4-15.5-1.5a45,45,0,0,0-5.9,6.5v65.8Z"/><path class="cls-10" d="M302.3,161.9c.1,0,9,4,7.4,13.5s-3,15.5-2.4,20.5l-14.1,1.6V161.9Z"/><path class="cls-16" d="M291.4,157.2a6.37,6.37,0,0,1,7-2.4c4.5,1.3,5,7.6,3.9,10.5Z"/><path class="cls-12" d="M287.7,156.1c-9.5,0-17.3,7.2-17.3,16.2a15.68,15.68,0,0,0,.5,3.7h12.6l10.1,11.5A16.31,16.31,0,0,0,305,172.3C304.9,163.4,297.2,156.1,287.7,156.1Z"/><path class="cls-17" d="M248.4,217.9c0-.4,12.2-21.2,37.8-21.3s30.3,9.2,35.5,18.5,5.1,11,5.1,11l-14.6,4.8-1.2-1.2.2,31.3H265.8V218Z"/><path class="cls-9" d="M282.9,197.3s5.5,8.2,11.6.4V184.4l-11.6-.1Z"/><path class="cls-13" d="M293.6,187.3s-5.8,16.7-10.7,10v-10Z"/><path class="cls-9" d="M274.4,175.7s0,11.6,4.1,16.4c1.4,1.6,6,1.8,9.7.4,3.2-1.2,7.1-7.8,7.1-7.8s6.8-4.9,1.4-6.9l-2.6-2.1Z"/><path class="cls-18" d="M275,178.7c-2.3,0-4.2,1.5-4.2,3.3s1.9,3.3,4.2,3.3,4.2-1.5,4.2-3.3S277.3,178.7,275,178.7Zm0,5.6c-1.7,0-3-1-3-2.3s1.4-2.3,3-2.3,3,1,3,2.3S276.7,184.3,275,184.3Z"/><path class="cls-18" d="M286.6,178.7c-2.3,0-4.2,1.5-4.2,3.3s1.9,3.3,4.2,3.3,4.2-1.5,4.2-3.3S289,178.7,286.6,178.7Zm0,5.6c-1.7,0-3-1-3-2.3s1.4-2.3,3-2.3,3,1,3,2.3S288.3,184.3,286.6,184.3Z"/><rect class="cls-18" x="278" y="180.5" width="5.4" height="0.7"/><rect class="cls-18" x="289.35" y="178.36" width="9" height="1.2" transform="translate(-48.11 216.88) rotate(-37.67)"/><path class="cls-9" d="M243.8,227.6s-6.8,9.3-6.9,13.7a7.67,7.67,0,0,0,3.9,1.4c2.7.3,10.2.8,10.2.8Z"/><path class="cls-9" d="M288.5,233.5s17.8-1.5,30.1,2.6c0,0-4.2-5.8-4.1-6s12.1-4.2,12.2-4c0,0,3.47,8.65,4,11.2.63,3-1.17,6-2.5,7.3-.4.7-20.94.11-20.94.11s-7.46-5-14.86-4.21Z"/><rect class="cls-15" x="290.7" y="239.1" width="16.6" height="7.2"/><path class="cls-14" d="M296.6,248l-41.9.3a1.56,1.56,0,0,1-1.3-.8L237.2,218a1.49,1.49,0,0,1,.6-2,1.85,1.85,0,0,1,.7-.2l40-.3a4.58,4.58,0,0,1,4,2.3l15.3,27.9a1.46,1.46,0,0,1-.5,2A1.08,1.08,0,0,1,296.6,248Z"/><path class="cls-19" d="M349.6,244.6c3.1-1.1,7.6-4.6,17.1-5.4,0,0,3.7.5,3.9-3.3s1.2-30.9,1.5-30.9,11.3,1.7,11.3,1.7l-4.7,34.1s-2.3,3.6-3.7,3.8S349.6,244.6,349.6,244.6Z"/><path class="cls-20" d="M372,171.3s-3.8,3.1-3.7,13.9l.1,22,19.4,2.6,2.6-22.6Z"/><path class="cls-9" d="M285.2,218.8c-.2,2.7,12.4.5,12.4,1.4l4.9,6.3s2.5,2.1,8.8-.1,45.6-11.3,45.6-11.3,2.5-.6,9.6-6.3l10.1-8.1-11-10.2-11.7,12.1L315.8,217a16.33,16.33,0,0,1-7.9-.7c-4.1-1.5-7.4-2.3-9.9-1S285.4,217.3,285.2,218.8Z"/><polygon class="cls-20" points="114.6 245.1 382.4 244.2 384 249.8 114.6 250.7 114.6 245.1"/><polygon class="cls-9" points="206.4 364.4 202.6 369.4 208.5 374.9 213.4 369.2 206.4 364.4"/><path class="cls-11" d="M182.2,366.5l24.2,15.1s7.1-8.9,2.6-9h-2.4c-3.3-6.4-14.6-10.3-22.3-8.5C182.3,364.6,181.1,365.8,182.2,366.5Z"/><polygon class="cls-9" points="254 363.8 256.9 376.3 265.8 375.9 262.6 361.5 254 363.8"/><path class="cls-11" d="M236.9,384.1l30-.3s1.6-11.8-2.6-9.3l-2.2,1.3c-6.4-3.8-18.7-.9-24.7,5C236,382.3,235.5,384.1,236.9,384.1Z"/><polygon class="cls-10" points="203.8 363.1 213.4 371.4 246 323.7 257 318.8 284.8 292.6 249.6 282.8 203.8 363.1"/><path class="cls-12" d="M251.2,365.2h13.3s-5.3-42.2-5.3-42.9,6-18.5-6.2-32.1c0,0,21,6.3,33.2,3.1s24.2-7.3,23.2-32.5l-69.6-.8s-19.1,3.1-13.5,20.7C232.1,298.9,251.8,365.3,251.2,365.2Z"/><path class="cls-16" d="M63.3,252.3s14.3,7.9,28.7,5.2l3.9-17.9s14.4-10.4,9.6-22.2-5.6-12.8-8.9-15.5-18.3-12.8-18.3-12.8L66.2,214s5.1,13.9,3.8,18.6c-.8,3.1-6.7,18.3-6.7,18.3S62.8,252,63.3,252.3Z"/><path class="cls-9" d="M103.3,238.4h32.3s16.1-6.81,22.4,6.69l-22.1.51c-.2,0-28.9,8.2-38.2,7.8s-20.9-36.2-20.9-36.2-2.4-15.1,8.4-12.4c4.6,1.2,5.1,4.6,7,9C97.4,225.1,100.1,235.9,103.3,238.4Z"/><path class="cls-9" d="M90.5,197.6s-.2,6.9,7.7,10l.3-10.9s1.8-5.4,8-3,8.1-7.6,8.1-7.6l4.6-2.2-1.1-4.3s5.9-10.9,2.9-11.7L91,175Z"/><path class="cls-21" d="M105.9,174c13.8,1.7,17.3-7.1,17.3-7.1s2.6-6.7-5.8-12.5a22.76,22.76,0,0,0-16.8-3.8,23.07,23.07,0,0,0-15.5,10.6c-5.9,9.5-13.4,13.5-22.2,13.3s-11.1,5.6-11.8,15.6a10.45,10.45,0,0,1-5.4,8.8s-7.4,7.7-4.2,18.2,10.2,14.1,10.2,14.1,7.3,3.8,14.6.4,3.2-12.6,4.4-16.8,3.7-16.6,12.3-16.4c8.8.2,12-.1,12.4-5.7C95.8,187.7,92.1,172.3,105.9,174Z"/><path class="cls-11" d="M411.2,362.8,396,370.7s-13.4,7.4-2.5,6.6c9-.7,26.4-4.5,26.4-4.5l.5,1.4,7.2-1.1-2.9-12.2Z"/><path class="cls-11" d="M438.3,369.1l-16.8,6.1s-13,5-2.9,5.6c9.1.5,26.8-.5,26.8-.5l.2,1.5h7.3l-1.2-14.5-13.6-.1Z"/><path class="cls-10" d="M410.3,363.8c.2-.1,15.3-1.3,15.3-1.3l-1.7-35.9s-.6-12.6-4.4-18.6,1.2-19.6,5.3-21.1l.9-56.6-9,.9L393,287a22.32,22.32,0,0,0-.2,12.8C394.8,306.2,410.3,363.8,410.3,363.8Z"/><path class="cls-10" d="M422.6,231.8l1.5,65.8,13.1,70.6s10.4,1.7,15.3,0L454,318s.8-4.8-6.2-20.2l7.9-55.7s.2-17.7-9-25.6Z"/><path class="cls-22" d="M414.7,233s30.8,2.7,32.6-16.5c0,0-24.6-55.3-64-56.9l-11.7,12.2s-3.9,11.3,6.4,17C378,188.8,401.9,207.6,414.7,233Z"/><path class="cls-16" d="M363.1,189.7l18.5-19.6a10.32,10.32,0,0,1,14.7-.4h0a10.32,10.32,0,0,1,.4,14.7L378.2,204h0l-15.1-14.3Z"/><path class="cls-9" d="M372.3,171.8s14.4-4.8,11.9-11.5l-11-8.8s-.3-7.6-.9-7.6-15.8-6.8-15.8-6.8l-10,6.1a6.89,6.89,0,0,0,2.5,6.3s-.8,4.1-1.7,5.3,0,2.7,2.4,2.7l.9,1.7-.1,1.1.9.4v.9l1.1.5s2,7.9,7.4,2.6C363.8,160.9,372.8,171.5,372.3,171.8Z"/><path class="cls-12" d="M356.6,142.9s5.1-2.3,6.8,2.2,2,5.4,2,5.4,2,.7,2-1.8,1.6-4.5,3.6.6,5.3,5,5.3,5l2.6.4v-8.8s-.1-18.4-14.6-18-17.9,3.8-17.9,3.8-6.8,5.6-4.4,8.9C343.8,143,346.5,145.1,356.6,142.9Z"/><path class="cls-22" d="M173.1,136.2h0a2.9,2.9,0,0,1,2.9,2.9v17a2.9,2.9,0,0,1-2.9,2.9h0a2.9,2.9,0,0,1-2.9-2.9v-17A2.9,2.9,0,0,1,173.1,136.2Z"/><path class="cls-22" d="M184.5,147.6h0a2.9,2.9,0,0,1-2.9,2.9h-17a2.9,2.9,0,0,1-2.9-2.9h0a2.9,2.9,0,0,1,2.9-2.9h17A3,3,0,0,1,184.5,147.6Z"/><path class="cls-23" d="M38.5,106.6H150.4a4.91,4.91,0,0,1,4.9,4.9h0v17.9a4.91,4.91,0,0,1-4.9,4.9H38.5V106.6Z"/><rect class="cls-24" x="118.9" y="117.9" width="26" height="6.2"/><rect class="cls-22" x="54.9" y="117.9" width="65.2" height="6.2"/><circle class="cls-2" cx="25" cy="121" r="25"/><circle class="cls-22" cx="25" cy="121" r="18.2"/><path class="cls-25" d="M31,118.2l-7.2-4.5a3.08,3.08,0,0,0-4.2,1,3,3,0,0,0-.5,1.6v8.9a3.12,3.12,0,0,0,3.1,3.1,3,3,0,0,0,1.6-.5l7.2-4.5a3.08,3.08,0,0,0,1-4.2A9,9,0,0,0,31,118.2Z"/><path class="cls-3" d="M19.3,9.1h126a10.82,10.82,0,0,1,10.8,10.8V74a10.82,10.82,0,0,1-10.8,10.8H19.3A10.73,10.73,0,0,1,8.6,74V19.9A10.73,10.73,0,0,1,19.3,9.1Z"/><path class="cls-2" d="M19.3,9.1h126A10.8,10.8,0,0,1,156,19.9v8.3H8.6V19.9A10.73,10.73,0,0,1,19.3,9.1Z"/><rect class="cls-25" x="25" y="62.9" width="119.8" height="6.4"/><rect class="cls-25" x="25" y="50.9" width="119.8" height="6.4"/><rect class="cls-25" x="25" y="38.9" width="119.8" height="6.4"/><circle class="cls-25" cx="23.5" cy="19.4" r="3.5"/><circle class="cls-25" cx="37.2" cy="19.4" r="3.5"/><circle class="cls-25" cx="50.7" cy="19.4" r="3.5"/><path class="cls-22" d="M285.5,44.8c0,30-20.6,26.3-22.1,60.8,0,.7-45.4.2-45.4-.5-1-30.8-22.1-32.3-22.1-60.3a44.8,44.8,0,0,1,89.6,0Z"/><path class="cls-25" d="M238.9,108V59a8.15,8.15,0,0,0-8.3-8h-.5c-6.4.2-8.6,3.9-8.8,7.8a9,9,0,0,0,8.1,9.8h.7l3-.2.1-3c.1.1-9,1.5-9-6.2,0-6.7,6.8-5.4,6.8-5.4s4.9.8,4.9,5.3V108Z"/><path class="cls-25" d="M243.1,108V59a8.15,8.15,0,0,1,8.3-8h.5c6.4.2,8.6,3.9,8.8,7.8.3,4.4-2.3,9.4-8.8,9.8l-3-.2-.1-3c-.1.1,9.1,1.5,9.1-6.2,0-6.7-6.9-5.4-6.9-5.4s-4.9.8-4.9,5.3V108Z"/><path class="cls-26" d="M227.7,134.4h26.1v10.8a1.58,1.58,0,0,1-1.6,1.6H229.3a1.58,1.58,0,0,1-1.6-1.6h0V134.4Z"/><path class="cls-27" d="M218.8,104h43.9a.79.79,0,0,1,.8.8h0v25.8a6.81,6.81,0,0,1-6.8,6.8H224.8a6.81,6.81,0,0,1-6.8-6.8V104.8a.79.79,0,0,1,.8-.8Z"/><path class="cls-2" d="M352.6,69.9a22.2,22.2,0,1,0,22.2,22.2h0A22.09,22.09,0,0,0,352.6,69.9Zm0,37.2a15,15,0,1,1,15-15h0A15,15,0,0,1,352.6,107.1Z"/><polygon class="cls-2" points="352.2 70.7 340.1 74.9 340.1 66.5 347.3 63.9 352.2 70.7"/><polygon class="cls-2" points="338.1 78.3 330.9 88.8 325.9 82 330.2 75.7 338.1 78.3"/><polygon class="cls-2" points="332.2 92.6 335.7 104.8 327.3 104.4 325.1 97.1 332.2 92.6"/><polygon class="cls-2" points="338.7 107.1 349.8 113.4 343.4 119 336.8 115.3 338.7 107.1"/><polygon class="cls-2" points="353.3 113.1 365.5 109.3 365.3 117.8 358 120.1 353.3 113.1"/><polygon class="cls-2" points="368.3 106.3 374.2 95 380 101.2 376.5 107.9 368.3 106.3"/><polygon class="cls-2" points="374.1 91.6 369.2 79.8 377.6 79.3 380.6 86.3 374.1 91.6"/><polygon class="cls-2" points="367.3 76.6 355.9 71 361.8 65 368.7 68.3 367.3 76.6"/><path class="cls-28" d="M412.1,89.7a22.2,22.2,0,1,0,22.2,22.2h0A22.21,22.21,0,0,0,412.1,89.7Zm0,37.2a15,15,0,1,1,15-15h0A15,15,0,0,1,412.1,126.9Z"/><polygon class="cls-28" points="411.6 90.5 399.6 94.7 399.6 86.3 406.7 83.7 411.6 90.5"/><polygon class="cls-28" points="397.6 98.1 390.3 108.6 385.3 101.8 389.6 95.5 397.6 98.1"/><polygon class="cls-28" points="391.6 112.4 395.1 124.7 386.7 124.2 384.5 116.9 391.6 112.4"/><polygon class="cls-28" points="398.1 126.9 409.2 133.3 402.9 138.8 396.2 135.1 398.1 126.9"/><polygon class="cls-28" points="412.8 133 424.9 129.2 424.7 137.6 417.4 139.9 412.8 133"/><polygon class="cls-28" points="427.7 126.1 433.6 114.8 439.4 121 435.9 127.8 427.7 126.1"/><polygon class="cls-28" points="433.5 111.4 428.6 99.6 437 99.1 440 106.1 433.5 111.4"/><polygon class="cls-28" points="426.7 96.4 415.3 90.8 421.3 84.8 428.1 88.1 426.7 96.4"/><polygon class="cls-22" points="430.7 54.3 450.3 54.3 442.3 78.4 472 40.7 451.4 40.7 459 17.8 430.7 54.3"/></g></svg>