<svg xmlns="http://www.w3.org/2000/svg" viewBox="0 0 478.9 400.7">
  <defs/>
  <defs>
    <style>
      .cls-1{fill:#00a0a4}.cls-2{fill:#00c2c6}.cls-3{fill:#dadefe}.cls-5{fill:#00666a}.cls-6{fill:#70560f}.cls-8{fill:#008587}.cls-9{fill:#ffba77}.cls-10{fill:#30324d}.cls-11{fill:#1a1e31}.cls-12{fill:#3e4260}.cls-13{fill:#d9985f}.cls-14{fill:#c1e9eb}.cls-15{fill:#97b5b9}.cls-16{fill:#ffd333}.cls-18{fill:#3e4361}.cls-20{fill:#c89d24}.cls-22{fill:#f9c430}.cls-25{fill:#fff}.cls-28{fill:#30365e}
    </style>
  </defs>
  <g id="Слой_2" data-name="Слой 2">
    <path d="M195.5 222.6h20.9v17a5.7 5.7 0 01-5.7 5.7h-9.6a5.7 5.7 0 01-5.7-5.7v-17z" class="cls-1"/>
    <path d="M195.5 222.6v17a5.91 5.91 0 001.9 4.3h7.4a5.68 5.68 0 005.7-5.6v-15.6h-15z" class="cls-2"/>
    <path d="M219.5 227.1h-5.1v1.8h4a4.5 4.5 0 010 9h-4v1.8h5.1a5.68 5.68 0 005.7-5.6v-1.4a5.68 5.68 0 00-5.7-5.6z" class="cls-1"/>
    <path d="M213.1 159.8s-13.7 5.3-5.9 25.9.1 27.5-5.8 29.9c0 0 6.4-7.5-4.5-32.4-4.3-10 5.2-28 16.2-23.4z" class="cls-3"/>
    <ellipse cx="245.1" cy="387.1" fill="#c8cbdd" rx="233.8" ry="13.6"/>
    <path d="M310.4 293.4h5.1v85.7h-5.1z" class="cls-5"/>
    <path d="M341.5 247.6h6.6v134h-6.6zM136.3 245.6h6.6v134h-6.6z" class="cls-6"/>
    <path d="M248.9 347.6h5.1v28.3h-5.1zM84.7 291H93v90.2h-8.3z" class="cls-5"/>
    <path d="M330.6 223.3c-2.1 12.7-11.2 73.3-11.2 73.3h-63.8V208c1.7-8.9 8.3-15.9 21.1-16.1 0 0 30.3 1.4 35.2 1.7 14.5 1.1 21.4 13.1 18.7 29.7z" class="cls-2"/>
    <path fill="#008386" d="M277.2 275.2h28.4a13.87 13.87 0 0113.9 13.9v8.7h-42.4v-22.6z"/>
    <path d="M55.7 381.2h8.7l11-89.1-9.8.6-9.9 88.5z" class="cls-8"/>
    <path d="M107.5 342.5l-3 6.5 8.3 4.7s3.4-7.5 3.2-7.6-8.5-3.6-8.5-3.6z" class="cls-9"/>
    <path d="M113.9 300.9s-10.3 24.7-9.3 41.2l10.5 4.4 24-61-8.8-12L94.7 284z" class="cls-10"/>
    <path d="M116.1 381.2c.3.3 8.6 0 8.6 0L114.3 291l-9.8 1z" class="cls-8"/>
    <path d="M100.1 356.6l25.3 15.7s5.4-6-3.2-12.2c-8.1-5.9-17-11.5-17-11.5s-1-1.3-1.9 0-3.3 5.8-3.3 5.8-.8 1.7.1 2.2zM181.5 337.4s4.4 4.3 7.8 1.8 3.5-5.3 2.3-7.6-8.2-9.9-8.2-9.9l-6.9-6.1s-9.7-1.1-9.6 3.6a12.48 12.48 0 004.3 9c1.4 1.6 10.3 9.2 10.3 9.2z" class="cls-11"/>
    <path d="M166.4 314.6s2.4 8.2 6 7.7 4.4-1.9 4.5-3.2-1.3-6.1-4.6-7-5.9 2.5-5.9 2.5z" class="cls-9"/>
    <path d="M164.9 291c.2.4 8.1 17.8 8.1 17.8s2 3.8-.4 5-6.6 4.4-10.6 0l-33.1-39-35 11.7-27.4-2.5s-4.7-4.3-5.1-10.6.9-17.8 5.8-21.2c3-2.1 23.7 4.3 23.7 4.3l45.7-1.2c-.1 0 11.9 5.5 28.3 35.7z" class="cls-12"/>
    <path d="M63.8 282.6H119a6.38 6.38 0 016.4 6.4 6.38 6.38 0 01-6.4 6.4H63.8a6.38 6.38 0 01-6.4-6.4 6.38 6.38 0 016.4-6.4z" class="cls-2"/>
    <path d="M105.3 226.4s3.6 9.7 5.3 11.2l29.4-.9c.2 0 15.6-4.4 21.7 1.4l.4 1.4h-63v-13.1z" class="cls-13"/>
    <path d="M179.6 208.3l-12.9 32.6 6.8 2.8 12.6-34.2-6.5-1.2z" class="cls-14"/>
    <path d="M144.3 238.5h27.8v7.1h-27.8z" class="cls-15"/>
    <path d="M324.2 222.4c.2 0 4.8-15.8.9-20.1s-7.7-11.8-7.7-11.8-4-2.9-2.5-12 2.6-11.7 2.6-11.7 2.1-10.7-3.9-15.2-12.2-4.4-15.5-1.5a45 45 0 00-5.9 6.5v65.8z" class="cls-12"/>
    <path d="M302.3 161.9c.1 0 9 4 7.4 13.5s-3 15.5-2.4 20.5l-14.1 1.6v-35.6z" class="cls-10"/>
    <path d="M291.4 157.2a6.37 6.37 0 017-2.4c4.5 1.3 5 7.6 3.9 10.5z" class="cls-16"/>
    <path d="M287.7 156.1c-9.5 0-17.3 7.2-17.3 16.2a15.68 15.68 0 00.5 3.7h12.6l10.1 11.5a16.31 16.31 0 0011.4-15.2c-.1-8.9-7.8-16.2-17.3-16.2z" class="cls-12"/>
    <path fill="#00666c" d="M248.4 217.9c0-.4 12.2-21.2 37.8-21.3s30.3 9.2 35.5 18.5 5.1 11 5.1 11l-14.6 4.8-1.2-1.2.2 31.3h-45.4v-43z"/>
    <path d="M282.9 197.3s5.5 8.2 11.6.4v-13.3l-11.6-.1z" class="cls-9"/>
    <path d="M293.6 187.3s-5.8 16.7-10.7 10v-10z" class="cls-13"/>
    <path d="M274.4 175.7s0 11.6 4.1 16.4c1.4 1.6 6 1.8 9.7.4 3.2-1.2 7.1-7.8 7.1-7.8s6.8-4.9 1.4-6.9l-2.6-2.1z" class="cls-9"/>
    <path d="M275 178.7c-2.3 0-4.2 1.5-4.2 3.3s1.9 3.3 4.2 3.3 4.2-1.5 4.2-3.3-1.9-3.3-4.2-3.3zm0 5.6c-1.7 0-3-1-3-2.3s1.4-2.3 3-2.3 3 1 3 2.3-1.3 2.3-3 2.3zM286.6 178.7c-2.3 0-4.2 1.5-4.2 3.3s1.9 3.3 4.2 3.3 4.2-1.5 4.2-3.3-1.8-3.3-4.2-3.3zm0 5.6c-1.7 0-3-1-3-2.3s1.4-2.3 3-2.3 3 1 3 2.3-1.3 2.3-3 2.3z" class="cls-18"/>
    <path d="M278 180.5h5.4v.7H278z" class="cls-18"/>
    <path d="M289.35 178.36h9v1.2h-9z" class="cls-18" transform="rotate(-37.67 293.85 178.96)"/>
    <path d="M243.8 227.6s-6.8 9.3-6.9 13.7a7.67 7.67 0 003.9 1.4c2.7.3 10.2.8 10.2.8zM288.5 233.5s17.8-1.5 30.1 2.6c0 0-4.2-5.8-4.1-6s12.1-4.2 12.2-4c0 0 3.47 8.65 4 11.2.63 3-1.17 6-2.5 7.3-.4.7-20.94.11-20.94.11s-7.46-5-14.86-4.21z" class="cls-9"/>
    <path d="M290.7 239.1h16.6v7.2h-16.6z" class="cls-15"/>
    <path d="M296.6 248l-41.9.3a1.56 1.56 0 01-1.3-.8L237.2 218a1.49 1.49 0 01.6-2 1.85 1.85 0 01.7-.2l40-.3a4.58 4.58 0 014 2.3l15.3 27.9a1.46 1.46 0 01-.5 2 1.08 1.08 0 01-.7.3z" class="cls-14"/>
    <path fill="#eda769" d="M349.6 244.6c3.1-1.1 7.6-4.6 17.1-5.4 0 0 3.7.5 3.9-3.3s1.2-30.9 1.5-30.9 11.3 1.7 11.3 1.7l-4.7 34.1s-2.3 3.6-3.7 3.8-25.4 0-25.4 0z"/>
    <path d="M372 171.3s-3.8 3.1-3.7 13.9l.1 22 19.4 2.6 2.6-22.6z" class="cls-20"/>
    <path d="M285.2 218.8c-.2 2.7 12.4.5 12.4 1.4l4.9 6.3s2.5 2.1 8.8-.1 45.6-11.3 45.6-11.3 2.5-.6 9.6-6.3l10.1-8.1-11-10.2-11.7 12.1-38.1 14.4a16.33 16.33 0 01-7.9-.7c-4.1-1.5-7.4-2.3-9.9-1s-12.6 2-12.8 3.5z" class="cls-9"/>
    <path d="M114.6 245.1l267.8-.9 1.6 5.6-269.4.9v-5.6z" class="cls-20"/>
    <path d="M206.4 364.4l-3.8 5 5.9 5.5 4.9-5.7-7-4.8z" class="cls-9"/>
    <path d="M182.2 366.5l24.2 15.1s7.1-8.9 2.6-9h-2.4c-3.3-6.4-14.6-10.3-22.3-8.5-2 .5-3.2 1.7-2.1 2.4z" class="cls-11"/>
    <path d="M254 363.8l2.9 12.5 8.9-.4-3.2-14.4-8.6 2.3z" class="cls-9"/>
    <path d="M236.9 384.1l30-.3s1.6-11.8-2.6-9.3l-2.2 1.3c-6.4-3.8-18.7-.9-24.7 5-1.4 1.5-1.9 3.3-.5 3.3z" class="cls-11"/>
    <path d="M203.8 363.1l9.6 8.3 32.6-47.7 11-4.9 27.8-26.2-35.2-9.8-45.8 80.3z" class="cls-10"/>
    <path d="M251.2 365.2h13.3s-5.3-42.2-5.3-42.9 6-18.5-6.2-32.1c0 0 21 6.3 33.2 3.1s24.2-7.3 23.2-32.5l-69.6-.8s-19.1 3.1-13.5 20.7c5.8 18.2 25.5 84.6 24.9 84.5z" class="cls-12"/>
    <path d="M63.3 252.3s14.3 7.9 28.7 5.2l3.9-17.9s14.4-10.4 9.6-22.2-5.6-12.8-8.9-15.5-18.3-12.8-18.3-12.8L66.2 214s5.1 13.9 3.8 18.6c-.8 3.1-6.7 18.3-6.7 18.3s-.5 1.1 0 1.4z" class="cls-16"/>
    <path d="M103.3 238.4h32.3s16.1-6.81 22.4 6.69l-22.1.51c-.2 0-28.9 8.2-38.2 7.8s-20.9-36.2-20.9-36.2-2.4-15.1 8.4-12.4c4.6 1.2 5.1 4.6 7 9 5.2 11.3 7.9 22.1 11.1 24.6zM90.5 197.6s-.2 6.9 7.7 10l.3-10.9s1.8-5.4 8-3 8.1-7.6 8.1-7.6l4.6-2.2-1.1-4.3s5.9-10.9 2.9-11.7L91 175z" class="cls-9"/>
    <path fill="#292f58" d="M105.9 174c13.8 1.7 17.3-7.1 17.3-7.1s2.6-6.7-5.8-12.5a22.76 22.76 0 00-16.8-3.8 23.07 23.07 0 00-15.5 10.6c-5.9 9.5-13.4 13.5-22.2 13.3s-11.1 5.6-11.8 15.6a10.45 10.45 0 01-5.4 8.8s-7.4 7.7-4.2 18.2 10.2 14.1 10.2 14.1 7.3 3.8 14.6.4 3.2-12.6 4.4-16.8 3.7-16.6 12.3-16.4c8.8.2 12-.1 12.4-5.7.4-5-3.3-20.4 10.5-18.7z"/>
    <path d="M411.2 362.8l-15.2 7.9s-13.4 7.4-2.5 6.6c9-.7 26.4-4.5 26.4-4.5l.5 1.4 7.2-1.1-2.9-12.2z" class="cls-11"/>
    <path d="M438.3 369.1l-16.8 6.1s-13 5-2.9 5.6c9.1.5 26.8-.5 26.8-.5l.2 1.5h7.3l-1.2-14.5-13.6-.1z" class="cls-11"/>
    <path d="M410.3 363.8c.2-.1 15.3-1.3 15.3-1.3l-1.7-35.9s-.6-12.6-4.4-18.6 1.2-19.6 5.3-21.1l.9-56.6-9 .9L393 287a22.32 22.32 0 00-.2 12.8c2 6.4 17.5 64 17.5 64z" class="cls-10"/>
    <path d="M422.6 231.8l1.5 65.8 13.1 70.6s10.4 1.7 15.3 0L454 318s.8-4.8-6.2-20.2l7.9-55.7s.2-17.7-9-25.6z" class="cls-10"/>
    <path d="M414.7 233s30.8 2.7 32.6-16.5c0 0-24.6-55.3-64-56.9l-11.7 12.2s-3.9 11.3 6.4 17c0 0 23.9 18.8 36.7 44.2z" class="cls-22"/>
    <path d="M363.1 189.7l18.5-19.6a10.32 10.32 0 0114.7-.4 10.32 10.32 0 01.4 14.7L378.2 204l-15.1-14.3z" class="cls-16"/>
    <path d="M372.3 171.8s14.4-4.8 11.9-11.5l-11-8.8s-.3-7.6-.9-7.6-15.8-6.8-15.8-6.8l-10 6.1a6.89 6.89 0 002.5 6.3s-.8 4.1-1.7 5.3 0 2.7 2.4 2.7l.9 1.7-.1 1.1.9.4v.9l1.1.5s2 7.9 7.4 2.6c3.9-3.8 12.9 6.8 12.4 7.1z" class="cls-9"/>
    <path d="M356.6 142.9s5.1-2.3 6.8 2.2 2 5.4 2 5.4 2 .7 2-1.8 1.6-4.5 3.6.6 5.3 5 5.3 5l2.6.4v-8.8s-.1-18.4-14.6-18-17.9 3.8-17.9 3.8-6.8 5.6-4.4 8.9c1.8 2.4 4.5 4.5 14.6 2.3z" class="cls-12"/>
    <path d="M173.1 136.2a2.9 2.9 0 012.9 2.9v17a2.9 2.9 0 01-2.9 2.9 2.9 2.9 0 01-2.9-2.9v-17a2.9 2.9 0 012.9-2.9z" class="cls-22"/>
    <path d="M184.5 147.6a2.9 2.9 0 01-2.9 2.9h-17a2.9 2.9 0 01-2.9-2.9 2.9 2.9 0 012.9-2.9h17a3 3 0 012.9 2.9z" class="cls-22"/>
    <path fill="#e8ebfe" d="M38.5 106.6h111.9a4.91 4.91 0 014.9 4.9v17.9a4.91 4.91 0 01-4.9 4.9H38.5v-27.7z"/>
    <path fill="#acafcf" d="M118.9 117.9h26v6.2h-26z"/>
    <path d="M54.9 117.9h65.2v6.2H54.9z" class="cls-22"/>
    <circle cx="25" cy="121" r="25" class="cls-2"/>
    <circle cx="25" cy="121" r="18.2" class="cls-22"/>
    <path d="M31 118.2l-7.2-4.5a3.08 3.08 0 00-4.2 1 3 3 0 00-.5 1.6v8.9a3.12 3.12 0 003.1 3.1 3 3 0 001.6-.5l7.2-4.5a3.08 3.08 0 001-4.2 9 9 0 00-1-.9z" class="cls-25"/>
    <path d="M19.3 9.1h126a10.82 10.82 0 0110.8 10.8V74a10.82 10.82 0 01-10.8 10.8h-126A10.73 10.73 0 018.6 74V19.9A10.73 10.73 0 0119.3 9.1z" class="cls-3"/>
    <path d="M19.3 9.1h126A10.8 10.8 0 01156 19.9v8.3H8.6v-8.3A10.73 10.73 0 0119.3 9.1z" class="cls-2"/>
    <path d="M25 62.9h119.8v6.4H25zM25 50.9h119.8v6.4H25zM25 38.9h119.8v6.4H25z" class="cls-25"/>
    <circle cx="23.5" cy="19.4" r="3.5" class="cls-25"/>
    <circle cx="37.2" cy="19.4" r="3.5" class="cls-25"/>
    <circle cx="50.7" cy="19.4" r="3.5" class="cls-25"/>
    <path d="M285.5 44.8c0 30-20.6 26.3-22.1 60.8 0 .7-45.4.2-45.4-.5-1-30.8-22.1-32.3-22.1-60.3a44.8 44.8 0 0189.6 0z" class="cls-22"/>
    <path d="M238.9 108V59a8.15 8.15 0 00-8.3-8h-.5c-6.4.2-8.6 3.9-8.8 7.8a9 9 0 008.1 9.8h.7l3-.2.1-3c.1.1-9 1.5-9-6.2 0-6.7 6.8-5.4 6.8-5.4s4.9.8 4.9 5.3V108zM243.1 108V59a8.15 8.15 0 018.3-8h.5c6.4.2 8.6 3.9 8.8 7.8.3 4.4-2.3 9.4-8.8 9.8l-3-.2-.1-3c-.1.1 9.1 1.5 9.1-6.2 0-6.7-6.9-5.4-6.9-5.4s-4.9.8-4.9 5.3V108z" class="cls-25"/>
    <path fill="#171e41" d="M227.7 134.4h26.1v10.8a1.58 1.58 0 01-1.6 1.6h-22.9a1.58 1.58 0 01-1.6-1.6v-10.8z"/>
    <path fill="#2a3058" d="M218.8 104h43.9a.79.79 0 01.8.8v25.8a6.81 6.81 0 01-6.8 6.8h-31.9a6.81 6.81 0 01-6.8-6.8v-25.8a.79.79 0 01.8-.8z"/>
    <path d="M352.6 69.9a22.2 22.2 0 1022.2 22.2 22.09 22.09 0 00-22.2-22.2zm0 37.2a15 15 0 1115-15 15 15 0 01-15 15z" class="cls-2"/>
    <path d="M352.2 70.7l-12.1 4.2v-8.4l7.2-2.6 4.9 6.8zM338.1 78.3l-7.2 10.5-5-6.8 4.3-6.3 7.9 2.6zM332.2 92.6l3.5 12.2-8.4-.4-2.2-7.3 7.1-4.5zM338.7 107.1l11.1 6.3-6.4 5.6-6.6-3.7 1.9-8.2zM353.3 113.1l12.2-3.8-.2 8.5-7.3 2.3-4.7-7zM368.3 106.3l5.9-11.3 5.8 6.2-3.5 6.7-8.2-1.6zM374.1 91.6l-4.9-11.8 8.4-.5 3 7-6.5 5.3zM367.3 76.6L355.9 71l5.9-6 6.9 3.3-1.4 8.3z" class="cls-2"/>
    <path d="M412.1 89.7a22.2 22.2 0 1022.2 22.2 22.21 22.21 0 00-22.2-22.2zm0 37.2a15 15 0 1115-15 15 15 0 01-15 15z" class="cls-28"/>
    <path d="M411.6 90.5l-12 4.2v-8.4l7.1-2.6 4.9 6.8zM397.6 98.1l-7.3 10.5-5-6.8 4.3-6.3 8 2.6zM391.6 112.4l3.5 12.3-8.4-.5-2.2-7.3 7.1-4.5zM398.1 126.9l11.1 6.4-6.3 5.5-6.7-3.7 1.9-8.2zM412.8 133l12.1-3.8-.2 8.4-7.3 2.3-4.6-6.9zM427.7 126.1l5.9-11.3 5.8 6.2-3.5 6.8-8.2-1.7zM433.5 111.4l-4.9-11.8 8.4-.5 3 7-6.5 5.3zM426.7 96.4l-11.4-5.6 6-6 6.8 3.3-1.4 8.3z" class="cls-28"/>
    <path d="M430.7 54.3h19.6l-8 24.1L472 40.7h-20.6l7.6-22.9-28.3 36.5z" class="cls-22"/>
  </g>
</svg>
